<?xml version="1.0" encoding="utf-8"?>
<!-- Generator: Adobe Illustrator 24.3.0, SVG Export Plug-In . SVG Version: 6.00 Build 0)  -->
<svg version="1.1" id="Layer_1" xmlns="http://www.w3.org/2000/svg" xmlns:xlink="http://www.w3.org/1999/xlink" x="0px" y="0px"
	 viewBox="0 0 24 24" style="enable-background:new 0 0 24 24;" xml:space="preserve">
<style type="text/css">
	.st0{fill:#505050;}
</style>
<path class="st0" d="M7.8,3C7.5,3,7.2,3.2,7.1,3.5C6.9,3.8,7,4.1,7.2,4.4l1,1L3.7,9.9c-0.4,0.4-0.4,1,0,1.4c0.4,0.4,1,0.4,1.4,0
	l4.5-4.5l1,1c0.2,0.2,0.6,0.3,0.9,0.2c0.1,0,0.2-0.1,0.3-0.2C11.9,7.6,12,7.4,12,7.2V3.8C12,3.4,11.6,3,11.2,3H7.8z M19.5,3
	C18.7,3,18,3.7,18,4.5v15c0,0.8,0.7,1.5,1.5,1.5s1.5-0.7,1.5-1.5v-15C21,3.7,20.3,3,19.5,3z M14.5,11c-0.8,0-1.5,0.7-1.5,1.5v7
	c0,0.8,0.7,1.5,1.5,1.5s1.5-0.7,1.5-1.5v-7C16,11.7,15.3,11,14.5,11z M9.5,15C8.7,15,8,15.7,8,16.5v3C8,20.3,8.7,21,9.5,21
	s1.5-0.7,1.5-1.5v-3C11,15.7,10.3,15,9.5,15z M4.5,17C3.7,17,3,17.7,3,18.5v1C3,20.3,3.7,21,4.5,21S6,20.3,6,19.5v-1
	C6,17.7,5.3,17,4.5,17z"/>
</svg>
