<svg id="Layer_1" data-name="Layer 1" xmlns="http://www.w3.org/2000/svg" viewBox="0 0 2499.6 2499.9"><defs><style>.cls-1{fill:#4ac645;}.cls-2{fill:#fff;}</style></defs><path class="cls-1" d="M2499.6,1250c0,690.2-559.6,1249.8-1250.1,1249.9C559.5,2499.9-.1,1940.2,0,1249.9-.2,559.6,559.4,0,1249.7,0S2499.6,559.7,2499.6,1250Z" transform="translate(0 0)"/><path class="cls-2" d="M1658.17,840.67c-55.35-158.8-209-179-390.22-151.24l-55.11-225.67-137.27,33.53,53.64,219.64c-36,8.8-72.79,18.5-109.22,28.22l-54-221.1L828.73,557.57l55,225.5c-29.59,7.84-58.69,15.56-87.15,22.52l-.17-.68L607,851.05l35.83,146.69S743.79,971,742.5,973.3c55.66-13.6,81.6,14.24,93.66,40.84l62.77,257.05a108.89,108.89,0,0,1,14.72-2.57l-14.48,3.54L987,1632.3c1.84,18.08-1.65,48.47-40.48,58.06,2.13,1.13-99.77,24.37-99.77,24.37l12.75,170.64,178.75-43.65c33.22-8.11,66.1-15.53,98.21-23.16l55.82,228.17,137.17-33.5-55.13-225.76c37.78-8.41,74.28-17,109.93-25.72l54.78,224.72L1576.32,1953l-55.61-227.71c227.59-69.58,375.12-167.27,342.18-389-26.41-178.53-127.55-236.49-266.28-236,69.89-59.89,102.28-143.46,61.56-259.62Zm-73,534.79c41.64,170.49-255,222.45-348.16,245.2l-73.86-302.41C1256.35,1295.69,1541.75,1197.69,1585.16,1375.46ZM1417.07,964.51C1455,1119.65,1206.88,1161,1129.38,1180l-67-274.14C1140.05,886.91,1377.66,802.74,1417.07,964.51Z" transform="translate(0 0)"/><path class="cls-2" d="M897.66,1265.12l20.4-5,3.68,15-20.4,5Z" transform="translate(0 0)"/></svg>