<svg id="Layer_1" data-name="Layer 1" xmlns="http://www.w3.org/2000/svg" viewBox="0 0 546 546"><defs><style>.cls-1{fill:none;stroke:#474747;stroke-miterlimit:10;stroke-width:25.436px;}.cls-2{fill:#474747;}</style></defs><circle class="cls-1" cx="273" cy="273" r="154.5"/><rect class="cls-2" x="260" width="27" height="93" rx="12.7823"/><rect class="cls-2" x="307.2841" y="44.0499" width="27" height="93.0001" rx="12.7823" transform="translate(-144.2337 102.6515) rotate(-22.5)"/><rect class="cls-2" x="233.6939" y="92.9867" width="27" height="93" rx="12.7823" transform="translate(-160.2305 188.6472) rotate(-45)"/><rect class="cls-2" x="184.4326" y="166.3602" width="27" height="93" rx="12.7823" transform="translate(-208.4701 287.268) rotate(-67.5)"/><rect class="cls-2" x="167" y="253" width="27" height="93.0001" rx="12.7823" transform="translate(-253 453.0001) rotate(-90)"/><rect class="cls-2" x="184.05" y="339.7158" width="27" height="93.0001" rx="12.7823" transform="translate(-217.6678 689.5267) rotate(-112.5)"/><rect class="cls-2" x="232.9868" y="413.3061" width="27" height="93" rx="12.7823" transform="translate(-38.3527 932.2306) rotate(-135)"/><rect class="cls-2" x="306.3602" y="462.5673" width="27" height="93.0001" rx="12.7823" transform="translate(286.5608 1074.7895) rotate(-157.5)"/><rect class="cls-2" x="393" y="480" width="27" height="93" rx="12.7823" transform="translate(679 1025.9999) rotate(180)"/><rect class="cls-2" x="479.7158" y="462.9501" width="27" height="93" rx="12.7823" transform="translate(1009.846 764.3752) rotate(157.5)"/><rect class="cls-2" x="553.3061" y="414.0133" width="27" height="93" rx="12.7823" transform="translate(1159.2305 358.3531) rotate(135)"/><rect class="cls-2" x="602.5674" y="340.6397" width="27" height="93.0001" rx="12.7823" transform="translate(1075.4967 -60.8805) rotate(112.5)"/><rect class="cls-2" x="620" y="254" width="27" height="93" rx="12.7823" transform="translate(800 -360) rotate(90)"/><rect class="cls-2" x="602.9501" y="167.2842" width="27" height="93" rx="12.7823" transform="translate(444.0556 -464.5531) rotate(67.5)"/><rect class="cls-2" x="554.0132" y="93.6938" width="27" height="93.0001" rx="12.7823" transform="translate(131.3528 -387.2306) rotate(45)"/><rect class="cls-2" x="480.6397" y="44.4326" width="27" height="93" rx="12.7823" transform="translate(-61.5875 -209.1772) rotate(22.5)"/></svg>