<svg xmlns="http://www.w3.org/2000/svg" xmlns:xlink="http://www.w3.org/1999/xlink" x="0" y="0" viewBox="0 0 128 128"><path fill="#fff" d="M101,124H27c-5.5,0-10-4.5-10-10V14c0-5.5,4.5-10,10-10h74c5.5,0,10,4.5,10,10v100 C111,119.5,106.5,124,101,124z"/><path fill="#444b54" d="M101,127H27c-7.2,0-13-5.8-13-13V14c0-7.2,5.8-13,13-13h74c7.2,0,13,5.8,13,13v100 C114,121.2,108.2,127,101,127z M27,7c-3.9,0-7,3.1-7,7v100c0,3.9,3.1,7,7,7h74c3.9,0,7-3.1,7-7V14c0-3.9-3.1-7-7-7H27z"/><path fill="#71c2ff" d="M94,38H34c-1.7,0-3-1.3-3-3V21c0-1.7,1.3-3,3-3h60c1.7,0,3,1.3,3,3v14C97,36.7,95.7,38,94,38z"/><path fill="#444b54" d="M34,62h12c1.7,0,3-1.3,3-3V47c0-1.7-1.3-3-3-3H34c-1.7,0-3,1.3-3,3v12C31,60.7,32.3,62,34,62z"/><path fill="#444b54" d="M34,110h12c1.7,0,3-1.3,3-3V95c0-1.7-1.3-3-3-3H34c-1.7,0-3,1.3-3,3v12C31,108.7,32.3,110,34,110z"/><path fill="#444b54" d="M34,86h12c1.7,0,3-1.3,3-3V71c0-1.7-1.3-3-3-3H34c-1.7,0-3,1.3-3,3v12C31,84.7,32.3,86,34,86z"/><path fill="#444b54" d="M58,62h12c1.7,0,3-1.3,3-3V47c0-1.7-1.3-3-3-3H58c-1.7,0-3,1.3-3,3v12C55,60.7,56.3,62,58,62z"/><path fill="#444b54" d="M58,110h12c1.7,0,3-1.3,3-3V95c0-1.7-1.3-3-3-3H58c-1.7,0-3,1.3-3,3v12C55,108.7,56.3,110,58,110z"/><path fill="#444b54" d="M58,86h12c1.7,0,3-1.3,3-3V71c0-1.7-1.3-3-3-3H58c-1.7,0-3,1.3-3,3v12C55,84.7,56.3,86,58,86z"/><path fill="#444b54" d="M82,62h12c1.7,0,3-1.3,3-3V47c0-1.7-1.3-3-3-3H82c-1.7,0-3,1.3-3,3v12C79,60.7,80.3,62,82,62z"/><path fill="#444b54" d="M82,110h12c1.7,0,3-1.3,3-3V71c0-1.7-1.3-3-3-3H82c-1.7,0-3,1.3-3,3v36C79,108.7,80.3,110,82,110z"/></svg>