<svg xmlns="http://www.w3.org/2000/svg" xmlns:xlink="http://www.w3.org/1999/xlink" viewBox="0 0 24 24" fill="#5B5B5B">
  <path d="M12 1C10.696 1 9.5965937 1.837 9.1835938 3L5 3C3.895 3 3 3.895 3 5L3 19C3 20.105 3.895 21 5 21L12 21L12 12C12 10.343 13.343 9 15 9L21 9L21 5C21 3.895 20.105 3 19 3L14.816406 3C14.403406 1.837 13.304 1 12 1 z M 12 3C12.552 3 13 3.448 13 4C13 4.552 12.552 5 12 5C11.448 5 11 4.552 11 4C11 3.448 11.448 3 12 3 z M 15 11C14.448 11 14 11.448 14 12L14 23C14 23.552 14.448 24 15 24L23 24C23.552 24 24 23.552 24 23L24 12C24 11.448 23.552 11 23 11L15 11 z M 17 13L21 13C21.552 13 22 13.448 22 14C22 14.552 21.552 15 21 15L17 15C16.448 15 16 14.552 16 14C16 13.448 16.448 13 17 13 z M 17 17C17.552 17 18 17.448 18 18C18 18.552 17.552 19 17 19C16.448 19 16 18.552 16 18C16 17.448 16.448 17 17 17 z M 21 17C21.552 17 22 17.448 22 18C22 18.552 21.552 19 21 19C20.448 19 20 18.552 20 18C20 17.448 20.448 17 21 17 z M 17 20C17.552 20 18 20.448 18 21C18 21.552 17.552 22 17 22C16.448 22 16 21.552 16 21C16 20.448 16.448 20 17 20 z M 21 20C21.552 20 22 20.448 22 21C22 21.552 21.552 22 21 22C20.448 22 20 21.552 20 21C20 20.448 20.448 20 21 20 z" fill="#5B5B5B" />
</svg>