<svg id="Layer_1" data-name="Layer 1" xmlns="http://www.w3.org/2000/svg" viewBox="0 0 564 564"><defs><style>.cls-1{fill:none;stroke:#474747;stroke-miterlimit:10;stroke-width:42.6402px;}.cls-2{fill:#474747;}</style></defs><path class="cls-1" d="M157.5,8.5" transform="translate(-118 -19)"/><path class="cls-2" d="M385.8,161.2885A58.4916,58.4916,0,0,0,327.7532,262.27C320.285,187.0347,369.4041,166.1308,385.8,161.2885Z" transform="translate(-118 -19)"/><path class="cls-2" d="M681.27,280.77c-12.24-7.48-20.34-20.87-21.31-36.39-.58-9.33,3.41-19.88,9.27-27.53C633.43,102.21,526.43,19,400,19A280.9639,280.9639,0,0,0,251.48,61.25a36.1388,36.1388,0,0,1,4.09,6.23c7.93,15.27,4.51,34.83-9.37,47.04a39.722,39.722,0,0,1-28.16,9.94,37.9418,37.9418,0,0,1-16.78-4.82,37.07,37.07,0,0,1-9.6-7.81l-3.56,3.13A281.3652,281.3652,0,0,0,118,301c0,155.74,126.26,282,282,282S682,456.74,682,301C682,294.2,681.74,287.45,681.27,280.77ZM536.58,190.91a44.32,44.32,0,0,1-13.05,9.16c.82,2.49,1.61,5,2.35,7.56,32.7,112.22-13.1,241.99-117.1,330.21q-4.365.165-8.78.16c-130.89,0-237-106.11-237-237a235.8227,235.8227,0,0,1,41.43-133.89,82.08,82.08,0,0,0,10.15,1.14,85.4742,85.4742,0,0,0,89.19-83.89A236.0475,236.0475,0,0,1,400,64a238.73,238.73,0,0,1,26.89,1.51,314.3635,314.3635,0,0,1,56.49,57.72,43.2141,43.2141,0,0,1,21.15-6.03c24.39,0,42.76,18.85,44.25,42.73C549.46,170.76,543.99,183.23,536.58,190.91Zm44.5052,215.171a46.9288,46.9288,0,0,1-19.987,1.3575c11.6-7.4233,44.9157-34.6118,22.2657-91.1475a47.117,47.117,0,0,1-2.2787,89.79Z" transform="translate(-118 -19)"/><path class="cls-2" d="M250.866,301.03a32.409,32.409,0,0,0,32.4492,55.7861C245.1216,339.607,248.66,310.2414,250.866,301.03Z" transform="translate(-118 -19)"/><path class="cls-2" d="M349.2663,316.3779a51.5835,51.5835,0,0,0,66.1278,78.6037C350.8031,378.4375,348.3244,331.4253,349.2663,316.3779Z" transform="translate(-118 -19)"/></svg>