<svg id="Layer_1" data-name="Layer 1" xmlns="http://www.w3.org/2000/svg" viewBox="0 0 116 116"><defs><style>.cls-1{fill:#0e4095;}</style></defs><path class="cls-1" d="M64,6a58,58,0,1,0,58,58A58,58,0,0,0,64,6Zm37.47,43.22L69.17,85.27a1.54,1.54,0,0,1-.13.12,5.61,5.61,0,0,1-1,.85,3.57,3.57,0,0,1-.56.33,7.21,7.21,0,0,1-1.35.55,6.36,6.36,0,0,1-.72.17l-.64.09a7.62,7.62,0,0,1-1.51,0l-.64-.09a5.71,5.71,0,0,1-.71-.17,7,7,0,0,1-1.36-.55,3.57,3.57,0,0,1-.56-.33,7.59,7.59,0,0,1-1.14-1l-32.3-36A4.84,4.84,0,0,1,25.25,46a5.13,5.13,0,0,1,2.58-4.32,7.37,7.37,0,0,1,9.05,1.08L64,73,91.13,42.74a7.37,7.37,0,0,1,9.05-1.08C103,43.46,103.62,46.88,101.47,49.22Z" transform="translate(-6 -6)"/></svg>