<svg id="Layer_1" data-name="Layer 1" xmlns="http://www.w3.org/2000/svg" viewBox="0 0 107.7207 92.1"><defs><style>.cls-1{fill:#fff;}.cls-2{fill:#f2b630;}.cls-3{fill:#444b54;}</style></defs><path class="cls-1" d="M55.26,92.75l-18.8,13.1a5.0991,5.0991,0,0,1-7.8-5.7l6.6-21.9a5.2485,5.2485,0,0,0-1.8-5.6l-18.3-13.9a5.1115,5.1115,0,0,1,3-9.2l22.9-.5a5.0527,5.0527,0,0,0,4.7-3.4l7.6-21.6a5.1341,5.1341,0,0,1,9.7,0l7.5,21.6a5.0527,5.0527,0,0,0,4.7,3.4l22.9.5a5.1115,5.1115,0,0,1,3,9.2l-18.3,13.9a5.1938,5.1938,0,0,0-1.8,5.6l6.6,21.9a5.1136,5.1136,0,0,1-7.8,5.7l-18.8-13.1A4.8,4.8,0,0,0,55.26,92.75Z" transform="translate(-10.1397 -17.95)"/><path class="cls-2" d="M68.26,94.05l-18.8,13.1a5.0991,5.0991,0,0,1-7.8-5.7l6.6-21.9a5.2485,5.2485,0,0,0-1.8-5.6l-18.3-13.8a5.1115,5.1115,0,0,1,3-9.2l22.9-.5a5.0527,5.0527,0,0,0,4.7-3.4l7.5-21.6a5.1341,5.1341,0,0,1,9.7,0l7.6,21.6a5.0527,5.0527,0,0,0,4.7,3.4l22.9.5a5.1115,5.1115,0,0,1,3,9.2l-18.2,13.8a5.1938,5.1938,0,0,0-1.8,5.6l6.6,21.9a5.1136,5.1136,0,0,1-7.8,5.7l-18.9-13.1A5.1222,5.1222,0,0,0,68.26,94.05Z" transform="translate(-10.1397 -17.95)"/><path class="cls-3" d="M105.76,52.55a8.079,8.079,0,0,0-7.6-5.6l-22.9-.5a2.175,2.175,0,0,1-2-1.4l-7.5-21.6a8.1746,8.1746,0,0,0-7.7-5.5h0a8.0424,8.0424,0,0,0-7.7,5.5l-7.4,21.6a2.175,2.175,0,0,1-2,1.4l-22.8.5a8.1769,8.1769,0,0,0-7.6,5.6,8.0225,8.0225,0,0,0,2.8,9l18.2,13.8a2.0412,2.0412,0,0,1,.7,2.3l-6.6,21.9a2.9741,2.9741,0,1,0,5.7,1.7l6.8-21.9a8.0864,8.0864,0,0,0-2.9-8.8l-18.3-13.8a2.006,2.006,0,0,1-.7-2.3,2.25,2.25,0,0,1,2-1.5l22.9-.5a8.1935,8.1935,0,0,0,7.5-5.5l7.5-21.6a2.0567,2.0567,0,0,1,2-1.4h0a2.0567,2.0567,0,0,1,2,1.4l7.5,21.7a8.1935,8.1935,0,0,0,7.5,5.5l22.9.5a2.0136,2.0136,0,0,1,2,1.5,1.9828,1.9828,0,0,1-.7,2.3l-18.3,13.7a8.2527,8.2527,0,0,0-2.9,8.8l6.6,21.9a2.0277,2.0277,0,0,1-.8,2.3,2.1457,2.1457,0,0,1-2.5,0l-18.8-13.1a8.2993,8.2993,0,0,0-9.3,0l-20.2,14c-.1,0-.1.1-.2.1-.1.1-.2.1-.3.2s-.1.2-.2.2l-.2.2a.3674.3674,0,0,0-.1.3c0,.1-.1.2-.1.3s-.1.2-.1.3-.1.2-.1.3v.6h0v.6c0,.1.1.2.1.3a.3674.3674,0,0,0,.1.3.0979.0979,0,0,0,.1.1c.1.1.1.3.2.4h0c0,.1.1.1.1.2.1.1.1.2.2.3l.2.2.2.2a.3674.3674,0,0,0,.3.1c.1,0,.2.1.3.1s.2.1.3.1.2.1.3.1h65.3a3,3,0,0,0,0-6h-9.2a7.69,7.69,0,0,0-.1-4.5l-6.6-21.9a2.0412,2.0412,0,0,1,.7-2.3l18.2-13.8A7.5281,7.5281,0,0,0,105.76,52.55Zm-61.1,51.5,12.3-8.6a2.1075,2.1075,0,0,1,2.4,0l12.3,8.6Z" transform="translate(-10.1397 -17.95)"/><path class="cls-3" d="M114.86,104.05a3,3,0,1,0,3,3A3,3,0,0,0,114.86,104.05Z" transform="translate(-10.1397 -17.95)"/></svg>