<svg id="Layer_1" data-name="Layer 1" xmlns="http://www.w3.org/2000/svg" viewBox="0 0 517.84 521.5"><defs><style>.cls-1{fill:#474747;}</style></defs><path class="cls-1" d="M457.25,48.63H169.92L141.08,77.47V364.79c11.27,11.26,17.58,17.58,28.84,28.84H356.1l40.74-37.25H190.34l-12-12V97.88c4.68-4.69,7.31-7.32,12-12h246.5l12,12V308.83l37.24-34.05V77.47C474.82,66.2,468.51,59.89,457.25,48.63Z" transform="translate(-141.08 -48.25)"/><path class="cls-1" d="M415.26,149.9979v36.6154H391.08a350.4533,350.4533,0,0,1-43.8,64.3944c2.4771.1972,5.0283.3327,7.6657.3327l-9.6992,49.6669s-14.37-5.94-33.0291-16.0093a213.6841,213.6841,0,0,1-20.6555,14.6413,246.4946,246.4946,0,0,1-62.3978,27.4832v-31.846c13.7046-5.4966,29.7508-18.2152,45.6368-33.485C252.6291,245.77,232.91,226.0634,229.1637,205.1h50.32a83.0613,83.0613,0,0,0,22.5781,28.1117c15.5409-17.5129,29.27-34.8285,38.2669-46.5982H211.91V149.9979h78.8754V115.1325H328.99v34.8654Z" transform="translate(-141.08 -48.25)"/><path class="cls-1" d="M484.6829,341.6688H484.16c-2.4628,9.8654-4.99,22.5984-7.6794,32.3411l-10.0314,35.6022h37.11l-10.4465-35.6443C490.2328,364.0513,487.2563,351.4819,484.6829,341.6688Z" transform="translate(-141.08 -48.25)"/><path class="cls-1" d="M630.08,224.57H448.84L313.92,356.38V540.73c11.26,11.26,17.57,17.58,28.83,28.84H630.08c11.26-11.26,17.57-17.58,28.84-28.84V253.41Zm-108,256.36-12.9-43.06H460.95l-11.84,43.06H409.9L461.09,313.2h49.63l52.21,167.73Z" transform="translate(-141.08 -48.25)"/><polygon class="cls-1" points="401.49 64.25 473.88 128.5 473.88 0 401.49 64.25 473.88 128.5 473.88 0 401.49 64.25"/><polygon class="cls-1" points="115.27 457.25 42.88 393 42.88 521.5 115.27 457.25 42.88 393 42.88 521.5 115.27 457.25"/></svg>