<svg id="Layer_1" data-name="Layer 1" xmlns="http://www.w3.org/2000/svg" viewBox="0 0 2499.98 2500"><defs><style>.cls-1{fill:#fff;}.cls-2{fill:#bebebe;}</style></defs><path class="cls-1" d="M1741.5,943.8c-16.1-167.4-160.6-223.5-343.2-239.5V472H1257V698.1c-37.1,0-75.1.7-112.8,1.5V472H1002.9l-.1,232.1c-30.6.6-60.7,1.2-90,1.2v-.7l-194.9-.1v151s104.4-2,102.6-.1c57.3,0,75.9,33.2,81.3,61.9v264.6a108.88,108.88,0,0,1,14.9,1H901.8l-.1,370.7c-2.5,18-13.1,46.7-53.1,46.8,1.8,1.6-102.7,0-102.7,0l-28.1,168.8h184c34.2,0,67.9.6,100.9.8l.1,234.9H1144V1772.5c38.7.8,76.2,1.1,112.9,1.1l-.1,231.3h141.3V1770.5c237.6-13.6,404.1-73.5,424.7-296.7,16.7-179.7-67.8-260-202.7-292.4,82.1-41.6,133.4-115.1,121.4-237.6ZM1543.7,1446c0,175.5-300.5,155.6-396.4,155.6V1290.3C1243.2,1290.5,1543.7,1263,1543.7,1446Zm-65.8-439.1c0,159.7-250.8,141-330.6,141.1V865.8C1227.2,865.8,1478,840.4,1477.9,1006.9Z" transform="translate(0.19 -3)"/><path class="cls-1" d="M902,1175.7h21v15.5H902Z" transform="translate(0.19 -3)"/><path class="cls-2" d="M2499.79,1253c0,690.36-559.63,1250-1250,1250S-.19,1943.35-.19,1253,559.45,3,1249.81,3s1250,559.64,1250,1250" transform="translate(0.19 -3)"/><path class="cls-2" d="M2234.41,1253c0,543.75-440.82,984.6-984.6,984.6S265.19,1796.76,265.19,1253,706,268.39,1249.81,268.39s984.6,440.82,984.6,984.62" transform="translate(0.19 -3)"/><path class="cls-1" d="M1176.75,1586.92l81.19-305.72L1450.16,1211,1498,1031.3l-1.63-4.45L1307.13,1096l136.33-513.34H1056.82L878.53,1252.55l-148.86,54.38-49.18,185.23,148.74-54.33L724.15,1832.64h1029l66-245.72H1176.75" transform="translate(0.19 -3)"/></svg>