<svg xmlns="http://www.w3.org/2000/svg" xmlns:xlink="http://www.w3.org/1999/xlink" viewBox="0 0 24 24" fill="#5B5B5B">
  <path d="M12.984375 1.9863281 A 1.0001 1.0001 0 0 0 12 3L12 4L11 4C10.4 4 10 4.4 10 5L10 10C10 10.6 10.4 11 11 11L12 11L12 12 A 1.0001 1.0001 0 1 0 14 12L14 11L15 11C15.6 11 16 10.6 16 10L16 5C16 4.4 15.6 4 15 4L14 4L14 3 A 1.0001 1.0001 0 0 0 12.984375 1.9863281 z M 4.984375 8.9863281 A 1.0001 1.0001 0 0 0 4 10L4 11L3 11C2.4 11 2 11.4 2 12L2 17C2 17.6 2.4 18 3 18L4 18L4 19 A 1.0001 1.0001 0 1 0 6 19L6 18L7 18C7.6 18 8 17.6 8 17L8 12C8 11.4 7.6 11 7 11L6 11L6 10 A 1.0001 1.0001 0 0 0 4.984375 8.9863281 z M 18.984375 10.986328 A 1.0001 1.0001 0 0 0 18 12L18 13L17 13C16.4 13 16 13.4 16 14L16 19C16 19.6 16.4 20 17 20L18 20L18 21 A 1.0001 1.0001 0 1 0 20 21L20 20L21 20C21.6 20 22 19.6 22 19L22 14C22 13.4 21.6 13 21 13L20 13L20 12 A 1.0001 1.0001 0 0 0 18.984375 10.986328 z M 4 13L6 13L6 16L5.1542969 16 A 1.0001 1.0001 0 0 0 4.984375 15.986328 A 1.0001 1.0001 0 0 0 4.8398438 16L4 16L4 13 z" fill="#5B5B5B" />
</svg>