<svg xmlns="http://www.w3.org/2000/svg" xmlns:xlink="http://www.w3.org/1999/xlink" viewBox="0 0 128 128"><path fill="#fcca3d" d="M24,105h80c5.5,0,10-4.5,10-10V33c0-5.5-4.5-10-10-10H24c-5.5,0-10,4.5-10,10v62C14,100.5,18.5,105,24,105z"/><path fill="#444b54" d="M104,108H24c-7.2,0-13-5.8-13-13V46c0-1.7,1.3-3,3-3s3,1.3,3,3v49c0,3.9,3.1,7,7,7h80c3.9,0,7-3.2,7-6V46c0-1.7,1.3-3,3-3s3,1.3,3,3v50C117,102.4,110.9,108,104,108z"/><path fill="#fff" d="M64,69c-14.2,0-27.4-5.6-37.2-15.9c-1.1-1.2-1.1-3.1,0.1-4.2c1.2-1.1,3.1-1.1,4.2,0.1c8.7,9,20.3,14,32.8,14c12.5,0,24.2-5,32.8-14c1.1-1.2,3-1.2,4.2-0.1c1.2,1.1,1.2,3,0.1,4.2C91.4,63.4,78.2,69,64,69z"/><g><path fill="#444b54" d="M114,36c-1.7,0-3-1.3-3-3c0-3.9-3.1-7-7-7H24c-3.9,0-7,3.1-7,7c0,1.7-1.3,3-3,3s-3-1.3-3-3c0-7.2,5.8-13,13-13h80c7.2,0,13,5.8,13,13C117,34.7,115.7,36,114,36z"/></g></svg>