<?xml version="1.0" encoding="utf-8"?>
<!-- Generator: Adobe Illustrator 24.3.0, SVG Export Plug-In . SVG Version: 6.00 Build 0)  -->
<svg version="1.1" id="Layer_1" xmlns="http://www.w3.org/2000/svg" xmlns:xlink="http://www.w3.org/1999/xlink" x="0px" y="0px"
	 viewBox="0 0 24 24" style="enable-background:new 0 0 24 24;" xml:space="preserve">
<style type="text/css">
	.st0{fill:#5B5B5B;}
	.st1{fill:#4D4D4D;}
</style>
<path class="st0" d="M12,1.1L0.8,9.5v12.1c0,0.8,0.6,1.4,1.4,1.4h19.6c0.8,0,1.4-0.6,1.4-1.4V9.5L12,1.1z M20.6,21.4H3.4V8.5h17.2
	V21.4z"/>
<path class="st0" d="M17.6,11h-10c-0.4,0-0.7-0.3-0.7-0.7l0,0c0-0.4,0.3-0.7,0.7-0.7h10c0.4,0,0.7,0.3,0.7,0.7l0,0
	C18.3,10.7,18,11,17.6,11z"/>
<path class="st0" d="M12.6,12.9H7.4c-0.3,0-0.5-0.2-0.5-0.5V12c0-0.3,0.2-0.5,0.5-0.5h5.2c0.3,0,0.5,0.2,0.5,0.5v0.4
	C13.1,12.7,12.9,12.9,12.6,12.9z"/>
<path class="st1" d="M23.2,9.5v12.1c0,0.8-0.6,1.4-1.4,1.4H2.2c-0.8,0-1.4-0.6-1.4-1.4V9.5L12,16.2h0.2L23.2,9.5z"/>
</svg>
