<?xml version="1.0" encoding="utf-8"?>
<!-- Generator: Adobe Illustrator 24.3.0, SVG Export Plug-In . SVG Version: 6.00 Build 0)  -->
<svg version="1.1" id="Layer_1" xmlns="http://www.w3.org/2000/svg" xmlns:xlink="http://www.w3.org/1999/xlink" x="0px" y="0px"
	 viewBox="0 0 128 128" style="enable-background:new 0 0 128 128;" xml:space="preserve">
<style type="text/css">
	.st0{fill:#00A859;}
</style>
<path class="st0" d="M64,122c-14.9,0-29.7-5.7-41-17C0.4,82.4,0.4,45.6,23,23s59.4-22.6,82,0l0,0c22.6,22.6,22.6,59.4,0,82
	C93.7,116.3,78.9,122,64,122z M64,12c-13.3,0-26.6,5.1-36.8,15.2C7,47.5,7,80.5,27.2,100.8c20.3,20.3,53.3,20.3,73.5,0
	c20.3-20.3,20.3-53.3,0-73.5C90.6,17.1,77.3,12,64,12z"/>
<path class="st0" d="M102.9,25.1c-21.5-21.5-56.3-21.5-77.8,0s-21.5,56.3,0,77.8c21.5,21.5,56.3,21.5,77.8,0
	C124.4,81.4,124.4,46.6,102.9,25.1z M94.7,68.8H68.8v25.8c0,2.7-2.1,4.8-4.8,4.8s-4.8-2.1-4.8-4.8V68.8H33.3c-2.7,0-4.8-2.1-4.8-4.8
	s2.1-4.8,4.8-4.8h25.8V33.3c0-2.7,2.1-4.8,4.8-4.8s4.8,2.1,4.8,4.8v25.8h25.8c2.7,0,4.8,2.1,4.8,4.8S97.4,68.8,94.7,68.8z"/>
</svg>
