<?xml version="1.0" encoding="utf-8"?>
<!-- Generator: Adobe Illustrator 24.3.0, SVG Export Plug-In . SVG Version: 6.00 Build 0)  -->
<svg version="1.1" id="Layer_1" xmlns="http://www.w3.org/2000/svg" xmlns:xlink="http://www.w3.org/1999/xlink" x="0px" y="0px"
	 viewBox="0 0 2499.6 2110.1" style="enable-background:new 0 0 2499.6 2110.1;" xml:space="preserve">
<style type="text/css">
	.st0{fill:#FFFFFF;}
	.st1{fill:#F58634;}
	.st2{fill:#FFF4E4;}
</style>
<path class="st0" d="M902,982.4h21v15.5h-21V982.4z"/>
<path class="st1" d="M2491,248.2v1489.5c0,137.8-111.7,248.2-248.2,248.2c0,68.3-55.9,124.1-124.1,124.1s-124.1-55.9-124.1-124.1
	H505.1c0,68.3-55.9,124.1-124.1,124.1s-124.1-55.9-124.1-124.1C119,1986,8.6,1875.5,8.6,1737.7V248.2C8.6,111.7,119,0,256.8,0h1986
	C2379.3,0,2491,111.7,2491,248.2z"/>
<g>
	<path class="st2" d="M643.2,800.4v509.2c0,70-57.3,127.3-127.3,127.3c-71.3,0-127.3-57.3-127.3-127.3V800.4
		c0-70,56-127.3,127.3-127.3C585.9,673.1,643.2,730.4,643.2,800.4z"/>
	<path class="st2" d="M2073.8,1427.9l-120.9-120.9c44.6-76.4,72.6-162.9,72.6-257.1s-28-180.8-72.6-257.1l109.5-109.5
		c49.6-49.6,49.6-129.8,0-179.5c-24.2-25.5-57.3-38.2-90.4-38.2c-31.8,0-64.9,12.7-89.1,38.2l-109.5,109.5
		c-76.4-45.8-162.9-72.6-257.1-72.6s-182,26.7-257.1,72.6l-99.3-98c-49.6-49.6-129.8-49.6-179.5,0c-49.6,49.6-49.6,129.8,0,179.5
		l98,98c-44.6,76.4-71.3,162.9-71.3,257.1s26.7,180.8,71.3,257.1l-109.5,109.5c-49.6,49.6-49.6,131.1,0,180.8
		c49.6,49.6,131.1,49.6,180.8,0l109.5-110.8c75.1,45.8,162.9,72.6,257.1,72.6s180.8-28,257.1-72.6l120.9,120.9
		c49.6,49.6,129.8,49.6,179.5,0C2123.4,1557.7,2123.4,1477.5,2073.8,1427.9z M1516.2,1304.4c-141.3,0-254.6-114.6-254.6-254.6
		c0-140,113.3-254.6,254.6-254.6c140,0,254.6,114.6,254.6,254.6C1770.8,1189.8,1656.2,1304.4,1516.2,1304.4z"/>
</g>
</svg>
