<svg xmlns="http://www.w3.org/2000/svg" xmlns:xlink="http://www.w3.org/1999/xlink" viewBox="0 0 24 24" fill="#5B5B5B">
  <path d="M10.490234 2C10.011234 2 9.6017656 2.3385938 9.5097656 2.8085938L9.1757812 4.5234375C8.3550224 4.8338012 7.5961042 5.2674041 6.9296875 5.8144531L5.2851562 5.2480469C4.8321563 5.0920469 4.33375 5.2793594 4.09375 5.6933594L2.5859375 8.3066406C2.3469375 8.7216406 2.4339219 9.2485 2.7949219 9.5625L4.1132812 10.708984C4.0447181 11.130337 4 11.559284 4 12C4 12.440716 4.0447181 12.869663 4.1132812 13.291016L2.7949219 14.4375C2.4339219 14.7515 2.3469375 15.278359 2.5859375 15.693359L4.09375 18.306641C4.33275 18.721641 4.8321562 18.908906 5.2851562 18.753906L6.9296875 18.1875C7.5958842 18.734206 8.3553934 19.166339 9.1757812 19.476562L9.5097656 21.191406C9.6017656 21.661406 10.011234 22 10.490234 22L13.509766 22C13.988766 22 14.398234 21.661406 14.490234 21.191406L14.824219 19.476562C15.644978 19.166199 16.403896 18.732596 17.070312 18.185547L18.714844 18.751953C19.167844 18.907953 19.66625 18.721641 19.90625 18.306641L21.414062 15.691406C21.653063 15.276406 21.566078 14.7515 21.205078 14.4375L19.886719 13.291016C19.955282 12.869663 20 12.440716 20 12C20 11.559284 19.955282 11.130337 19.886719 10.708984L21.205078 9.5625C21.566078 9.2485 21.653063 8.7216406 21.414062 8.3066406L19.90625 5.6933594C19.66725 5.2783594 19.167844 5.0910937 18.714844 5.2460938L17.070312 5.8125C16.404116 5.2657937 15.644607 4.8336609 14.824219 4.5234375L14.490234 2.8085938C14.398234 2.3385937 13.988766 2 13.509766 2L10.490234 2 z M 12 8C14.209 8 16 9.791 16 12C16 14.209 14.209 16 12 16C9.791 16 8 14.209 8 12C8 9.791 9.791 8 12 8 z" fill="#5B5B5B" />
</svg>