<svg id="Layer_1" data-name="Layer 1" xmlns="http://www.w3.org/2000/svg" viewBox="0 0 49.9988 47.6012"><defs><style>.cls-1{fill:#505050;}</style></defs><path class="cls-1" d="M49.77,18.77a.9659.9659,0,0,0-.72-.37l-1.46-.07L32.1,17.54,26.15,2.21l-.22-.57a.9957.9957,0,0,0-1.86,0l-.22.57L17.9,17.54l-15.49.79L.95,18.4a.9953.9953,0,0,0-.58,1.77l2.04,1.67,11.16,9.13L9.23,47.34c0,.02-.01.03-.01.05a1.0122,1.0122,0,0,0,.72,1.18,1.0281,1.0281,0,0,0,.8-.13l1.64-1.05L25,39.29l12.62,8.1,1.64,1.05a.9928.9928,0,0,0,1.38-.3,1.036,1.036,0,0,0,.14-.75c0-.02-.01-.03-.01-.05L36.43,30.97l11.16-9.13,2.04-1.67A.99.99,0,0,0,49.77,18.77ZM34.67,29.83a.9865.9865,0,0,0-.34,1.03l3.85,14.51L25.54,37.26a1.0045,1.0045,0,0,0-1.08,0L11.82,45.37l3.85-14.51a.9865.9865,0,0,0-.34-1.03L3.64,20.27l15.01-.77a.9983.9983,0,0,0,.88-.64L25,4.76l5.47,14.1a.9983.9983,0,0,0,.88.64l15.01.77Z" transform="translate(0.0015 -1)"/></svg>