<svg xmlns="http://www.w3.org/2000/svg" xmlns:xlink="http://www.w3.org/1999/xlink" viewBox="0 0 24 24" fill="#704545">
  <path d="M11.984375 -0.013671875 A 1.0001 1.0001 0 0 0 11 1L11 2 A 1.0001 1.0001 0 1 0 13 2L13 1 A 1.0001 1.0001 0 0 0 11.984375 -0.013671875 z M 4.1894531 3.1894531 A 1.0001 1.0001 0 0 0 3.4921875 4.90625L4.1933594 5.6074219 A 1.0001 1.0001 0 1 0 5.6074219 4.1933594L4.90625 3.4921875 A 1.0001 1.0001 0 0 0 4.1894531 3.1894531 z M 19.78125 3.1894531 A 1.0001 1.0001 0 0 0 19.09375 3.4921875L18.392578 4.1933594 A 1.0001 1.0001 0 1 0 19.806641 5.6074219L20.507812 4.90625 A 1.0001 1.0001 0 0 0 19.78125 3.1894531 z M 12 5 A 7 7 0 1 0 12 19 A 7 7 0 1 0 12 5 z M 1 11 A 1.0001 1.0001 0 1 0 1 13L2 13 A 1.0001 1.0001 0 1 0 2 11L1 11 z M 22 11 A 1.0001 1.0001 0 1 0 22 13L23 13 A 1.0001 1.0001 0 1 0 23 11L22 11 z M 4.8808594 18.089844 A 1.0001 1.0001 0 0 0 4.1933594 18.392578L3.4921875 19.09375 A 1.0001 1.0001 0 1 0 4.90625 20.507812L5.6074219 19.806641 A 1.0001 1.0001 0 0 0 4.8808594 18.089844 z M 19.089844 18.089844 A 1.0001 1.0001 0 0 0 18.392578 19.806641L19.09375 20.507812 A 1.0001 1.0001 0 1 0 20.507812 19.09375L19.806641 18.392578 A 1.0001 1.0001 0 0 0 19.089844 18.089844 z M 11.984375 20.986328 A 1.0001 1.0001 0 0 0 11 22L11 23 A 1.0001 1.0001 0 1 0 13 23L13 22 A 1.0001 1.0001 0 0 0 11.984375 20.986328 z" fill="#704545" />
</svg>