<svg id="Layer_1" data-name="Layer 1" xmlns="http://www.w3.org/2000/svg" viewBox="0 0 2500 2500"><defs><style>.cls-1{fill:#26a17b;}.cls-2{fill:#fff;}</style></defs><path id="path0_fill" data-name="path0 fill" class="cls-1" d="M1249.8,0c690.28,0,1250,559.72,1250,1250s-559.72,1250-1250,1250S-.2,1940.63-.2,1250,559.52,0,1249.8,0Z" transform="translate(0.2 0)"/><g id="Vector"><path id="path1_fill" data-name="path1 fill" class="cls-2" d="M1403.79,1020.66V834.55h425.35V551.22h-1158V834.55H1096.5v186.11C751,1036.63,491,1105,491,1187S751,1337.33,1096.5,1353.3v595.48h307.64V1353.3c345.14-16,604.51-84.38,604.51-166.32-.34-82-259.72-150.35-604.86-166.32Zm.35,282.29c-8.68.35-53.12,3.13-152.43,3.13-79.51,0-135.07-2.09-154.86-3.13v.35c-305.21-13.54-533.33-66.67-533.33-130.21s227.77-116.67,533.33-130.21v206.95c20.14,1.39,77.08,4.86,156.25,4.86,94.79,0,142.36-3.82,151.39-4.86V1042.19c304.86,13.54,532.29,66.66,532.29,130.21-.7,63.54-228.13,116.66-532.64,130.55" transform="translate(0.2 0)"/></g></svg>