<svg id="Layer_1" data-name="Layer 1" xmlns="http://www.w3.org/2000/svg" viewBox="0 0 116 116"><defs><style>.cls-1{fill:#0e4095;}</style></defs><path class="cls-1" d="M63.41,6a58,58,0,1,0,58,58A58,58,0,0,0,63.41,6Zm0,111.29A53.29,53.29,0,1,1,116.7,64,53.28,53.28,0,0,1,63.41,117.29Z" transform="translate(-5.41 -6)"/><path class="cls-1" d="M62.65,40.62a7.62,7.62,0,0,1,1.51,0c.22,0,.43.06.65.09a6.17,6.17,0,0,1,.71.17,7.21,7.21,0,0,1,1.35.55,3.57,3.57,0,0,1,.56.33,8.2,8.2,0,0,1,1.15,1l32.29,36.05A4.84,4.84,0,0,1,102.16,82a5.13,5.13,0,0,1-2.58,4.32,7.35,7.35,0,0,1-9-1.08L63.41,55,36.28,85.26a7.35,7.35,0,0,1-9,1.08c-2.8-1.8-3.45-5.22-1.3-7.56l32.3-36.05.13-.12a5.61,5.61,0,0,1,1-.85,4.79,4.79,0,0,1,.56-.33,7,7,0,0,1,1.36-.55,5.71,5.71,0,0,1,.71-.17Z" transform="translate(-5.41 -6)"/></svg>