<?xml version="1.0" encoding="utf-8"?>
<!-- Generator: Adobe Illustrator 26.0.1, SVG Export Plug-In . SVG Version: 6.00 Build 0)  -->
<svg version="1.1" id="Layer_1" xmlns="http://www.w3.org/2000/svg" xmlns:xlink="http://www.w3.org/1999/xlink" x="0px" y="0px"
	 viewBox="0 0 122.9 121.9" style="enable-background:new 0 0 122.9 121.9;" xml:space="preserve">
<style type="text/css">
	.st0{fill-rule:evenodd;clip-rule:evenodd;fill:#10A64A;}
	.st1{fill-rule:evenodd;clip-rule:evenodd;fill:#0BB34B;}
	.st2{fill-rule:evenodd;clip-rule:evenodd;fill:#FFFFFF;}
</style>
<g>
	<path class="st0" d="M83.8,53.8c-0.1-0.6-0.5-1.2-1.3-1.9L76.8,46c-1.7-1.8-2.6-0.6-4,0.8L58.6,61.3l-7.1-6.7v0c-1-1-1.8-1-2.8,0
		L42,61.4c-0.1,0.1-0.2,0.2-0.3,0.3c-0.6,0.7-0.5,1.7,0.2,2.3l8.3,8.2L55,77c3.8,3.7,3.1,3.5,6.8-0.1l20.7-20.4
		C83.6,55.4,84,54.6,83.8,53.8z M83.8,53.8c-0.1-0.6-0.5-1.2-1.3-1.9L76.8,46c-1.7-1.8-2.6-0.6-4,0.8L58.6,61.3l-7.1-6.7v0
		c-1-1-1.8-1-2.8,0L42,61.4c-0.1,0.1-0.2,0.2-0.3,0.3c-0.6,0.7-0.5,1.7,0.2,2.3l8.3,8.2L55,77c3.8,3.7,3.1,3.5,6.8-0.1l20.7-20.4
		C83.6,55.4,84,54.6,83.8,53.8z M115.6,47.3c-0.8-1-1.4-2-2-2.9c-0.2-0.4-0.5-0.8-0.7-1.2c-0.1-0.2-0.2-0.4-0.3-0.5
		c-0.1-0.1-0.2-0.3-0.2-0.5c-0.2-0.3-0.3-0.6-0.4-0.9c0,0,0-0.1-0.1-0.1c-0.3-0.7-0.6-1.4-0.8-2c-0.7-2.2-1-4.2-1.1-6.3
		c-0.3-4.1-0.4-8.3-4-13.6c-6.1-9.1-18-4-24.5-7.7c-4.6-2.6-8.3-6.8-11.6-8.9C67.5,0.9,64.5,0,61.5,0c-3,0-6,0.9-8.4,2.7
		c-3.3,2.1-7,6.2-11.7,8.9c-6.5,3.7-18.4-1.4-24.5,7.7c-3.6,5.3-3.7,9.5-4,13.6c-0.3,4.4-1.1,8.5-5.6,14.5
		C-0.3,57.2-1.8,63.8,2,70.7c2.7,4.7,8.2,7.3,9.5,10.3c1.8,4.1,1.1,7.6,1.5,11.6c0,0.2,0,0.4,0.1,0.6c0,0.2,0.1,0.4,0.1,0.6
		c0.1,0.4,0.1,0.8,0.2,1.2c0,0,0,0,0,0c0,0.2,0.1,0.4,0.1,0.6c0,0.2,0.1,0.4,0.2,0.6c0.1,0.4,0.3,0.9,0.4,1.3
		c0.1,0.2,0.2,0.4,0.3,0.7c0,0,0,0,0,0c0.1,0.2,0.2,0.4,0.3,0.7c0.1,0.2,0.2,0.5,0.3,0.7c2.4,4.9,6.7,8.6,11.8,10.2
		c0.7,0.2,1.3,0.4,2,0.4c0.8,0.1,1.7,0.1,2.5,0.1c0.2,0,0.5,0,0.7,0c0.5,0,0.9,0,1.4-0.1c2-0.2,3.9-0.3,5.6,0.3
		c0.1,0,0.3,0.1,0.4,0.2c0.6,0.2,1.2,0.5,1.8,0.8c0.4,0.2,0.8,0.4,1.1,0.6c5,3,9,7.6,13.2,8.9c3.8,1.2,7.9,1.2,11.6,0
		c0.2-0.1,0.3-0.1,0.5-0.2c0.5-0.2,0.9-0.4,1.4-0.6c0.2-0.1,0.3-0.2,0.5-0.2c0.9-0.5,1.9-1.2,2.8-1.9c0.3-0.2,0.6-0.5,1-0.7
		c1-0.7,1.9-1.5,2.9-2.3c0.3-0.3,0.7-0.5,1-0.8c0.5-0.4,1-0.8,1.5-1.1c1.4-1,2.9-1.9,4.5-2.5c1.8-0.8,3.9-0.6,6-0.5
		c1.2,0.1,2.4,0.2,3.6,0.1c0.3,0,0.7,0,1-0.1c0.7-0.1,1.3-0.2,2-0.4c0.3-0.1,0.6-0.2,1-0.3c0.6-0.2,1.3-0.5,1.9-0.8c0,0,0,0,0,0
		c0.9-0.5,1.8-1,2.6-1.5c0.8-0.6,1.6-1.2,2.4-1.9c0.2-0.2,0.4-0.4,0.6-0.6c0.2-0.2,0.3-0.4,0.5-0.5c0.2-0.2,0.4-0.4,0.5-0.6
		c0.2-0.2,0.4-0.4,0.5-0.7c0,0,0-0.1,0-0.1c0.2-0.3,0.4-0.6,0.6-0.9c0.2-0.2,0.3-0.5,0.5-0.7c0.3-0.5,0.6-1,0.9-1.6
		c0-0.1,0.1-0.2,0.1-0.2c0-0.1,0.1-0.2,0.1-0.3c0.2-0.5,0.5-1,0.6-1.5c0.1-0.2,0.2-0.4,0.2-0.6c0.1-0.4,0.3-0.8,0.4-1.2
		c0.1-0.4,0.2-0.8,0.3-1.2c0.1-0.6,0.2-1.2,0.2-1.7c0-0.4,0.1-0.8,0.1-1.1c0.1-1.8,0-3.4,0.2-5.1c0.1-1.7,0.4-3.5,1.2-5.3
		c0.1-0.3,0.3-0.6,0.6-1c0.2-0.3,0.5-0.6,0.8-1c0.1-0.1,0.2-0.2,0.3-0.3c1.3-1.3,3.1-2.6,4.7-4.2c0.9-0.9,1.8-1.9,2.6-3
		c0.2-0.3,0.4-0.6,0.5-0.8C124.7,63.8,123.1,57.2,115.6,47.3z M61.3,98.2c-12.4,0-23.4-6.2-29.9-15.7c-4.1-5.9-6.4-13-6.4-20.7
		c0-10,4.1-19.1,10.7-25.7c6.6-6.6,15.7-10.7,25.7-10.7c15.1,0,28,9.2,33.5,22.2c1.8,4.3,2.8,9.1,2.8,14.1
		C97.7,82,81.4,98.2,61.3,98.2z M82.5,51.8L76.8,46c-1.7-1.8-2.6-0.6-4,0.8L58.6,61.3l-7.1-6.7v0c-1-1-1.8-1-2.8,0L42,61.4
		c-0.1,0.1-0.2,0.2-0.3,0.3c-0.6,0.7-0.5,1.7,0.2,2.3l8.3,8.2L55,77c3.8,3.7,3.1,3.5,6.8-0.1l20.7-20.4c1-1,1.5-1.8,1.3-2.7
		C83.7,53.2,83.3,52.6,82.5,51.8z M83.8,53.8c-0.1-0.6-0.5-1.2-1.3-1.9L76.8,46c-1.7-1.8-2.6-0.6-4,0.8L58.6,61.3l-7.1-6.7v0
		c-1-1-1.8-1-2.8,0L42,61.4c-0.1,0.1-0.2,0.2-0.3,0.3c-0.6,0.7-0.5,1.7,0.2,2.3l8.3,8.2L55,77c3.8,3.7,3.1,3.5,6.8-0.1l20.7-20.4
		C83.6,55.4,84,54.6,83.8,53.8z M83.8,53.8c-0.1-0.6-0.5-1.2-1.3-1.9L76.8,46c-1.7-1.8-2.6-0.6-4,0.8L58.6,61.3l-7.1-6.7v0
		c-1-1-1.8-1-2.8,0L42,61.4c-0.1,0.1-0.2,0.2-0.3,0.3c-0.6,0.7-0.5,1.7,0.2,2.3l8.3,8.2L55,77c3.8,3.7,3.1,3.5,6.8-0.1l20.7-20.4
		C83.6,55.4,84,54.6,83.8,53.8z"/>
	<path class="st1" d="M82.5,56.4L61.8,76.8c-3.7,3.6-3,3.8-6.8,0.1l-4.8-4.8l33.6-18.4C84,54.6,83.6,55.4,82.5,56.4z"/>
	<path class="st1" d="M120.8,70.7c-0.2,0.3-0.3,0.6-0.5,0.8c-0.7,1.1-1.6,2.1-2.6,3c-1.6,1.6-3.4,2.9-4.7,4.2
		c-0.1,0.1-0.2,0.2-0.3,0.3c-0.3,0.3-0.6,0.6-0.8,1c-0.2,0.3-0.4,0.6-0.6,1c-0.8,1.9-1.1,3.6-1.2,5.3c-0.1,1.7-0.1,3.4-0.2,5.1
		c0,0.4,0,0.8-0.1,1.1c-0.1,0.6-0.1,1.2-0.2,1.7c-0.1,0.4-0.2,0.8-0.3,1.2c-0.1,0.4-0.2,0.8-0.4,1.2c-0.1,0.2-0.2,0.4-0.2,0.6
		c-0.2,0.5-0.4,1-0.6,1.5c0,0.1-0.1,0.2-0.1,0.3c0,0.1-0.1,0.2-0.1,0.2c-0.3,0.5-0.5,1.1-0.9,1.6c-0.2,0.2-0.3,0.5-0.5,0.7
		c-0.2,0.3-0.4,0.6-0.6,0.9c0,0,0,0,0,0.1c-0.2,0.2-0.3,0.4-0.5,0.7c-0.2,0.2-0.3,0.4-0.5,0.6c-0.2,0.2-0.3,0.4-0.5,0.5
		c-0.2,0.2-0.4,0.4-0.6,0.6c-0.7,0.7-1.5,1.3-2.4,1.9c-0.8,0.6-1.7,1.1-2.6,1.5c0,0,0,0,0,0c-0.6,0.3-1.2,0.5-1.9,0.8
		c-0.3,0.1-0.6,0.2-1,0.3c-0.7,0.2-1.3,0.4-2,0.4c-0.3,0-0.7,0.1-1,0.1c-1.2,0.1-2.4,0-3.6-0.1c-2.2-0.2-4.2-0.3-6,0.5
		c-1.6,0.7-3.1,1.5-4.5,2.5c-0.5,0.4-1,0.8-1.5,1.1c-0.3,0.2-0.7,0.5-1,0.8c-1,0.8-2,1.6-2.9,2.3c-0.3,0.2-0.6,0.5-1,0.7
		c-0.9,0.7-1.9,1.3-2.8,1.9c-0.2,0.1-0.3,0.2-0.5,0.2c-0.5,0.2-0.9,0.5-1.4,0.6c-0.2,0.1-0.3,0.1-0.5,0.2c-3.8,1.2-7.9,1.2-11.6,0
		c-4.2-1.3-8.2-5.9-13.2-8.9c-0.4-0.2-0.7-0.4-1.1-0.6c-0.6-0.3-1.2-0.6-1.8-0.8c-0.1-0.1-0.3-0.1-0.4-0.2c-1.7-0.6-3.6-0.5-5.6-0.3
		c-0.4,0-0.9,0.1-1.4,0.1c-0.2,0-0.5,0-0.7,0c-0.8,0-1.7,0-2.5-0.1c-0.7-0.1-1.3-0.2-2-0.4c-5.2-1.6-9.5-5.3-11.8-10.2
		c-0.1-0.2-0.2-0.5-0.3-0.7c-0.1-0.2-0.2-0.5-0.3-0.7c0,0,0,0,0,0c-0.1-0.2-0.2-0.4-0.3-0.7c-0.2-0.4-0.3-0.8-0.4-1.3
		c-0.1-0.2-0.1-0.4-0.2-0.6c-0.1-0.2-0.1-0.4-0.1-0.6c0,0,0,0,0,0c-0.1-0.4-0.2-0.8-0.2-1.2c0-0.2,0-0.4-0.1-0.6
		c0-0.2,0-0.4-0.1-0.6l18.3-10c6.6,9.5,17.5,15.7,29.9,15.7c20.1,0,36.4-16.3,36.4-36.4c0-5-1-9.8-2.8-14.1l16.2-8.9
		c0,0.1,0,0.2,0.1,0.2c0.2,0.7,0.5,1.4,0.8,2c0,0,0,0.1,0.1,0.1c0.1,0.3,0.3,0.6,0.4,0.9c0.1,0.2,0.2,0.3,0.2,0.5
		c0.1,0.2,0.2,0.4,0.3,0.5c0.8,1.4,1.7,2.8,2.7,4.1C123.1,57.2,124.7,63.8,120.8,70.7z"/>
	<path class="st2" d="M82.5,56.4L61.8,76.8c-3.7,3.6-3,3.8-6.8,0.1l-4.8-4.8L41.9,64c-0.7-0.6-0.8-1.6-0.2-2.3
		c0.1-0.1,0.2-0.2,0.3-0.3l6.6-6.8c1-1,1.8-1,2.8,0v0l7.1,6.7l14.3-14.5c1.4-1.4,2.3-2.6,4-0.8l5.7,5.8c0.8,0.8,1.2,1.4,1.3,1.9
		C84,54.6,83.6,55.4,82.5,56.4z"/>
	<path class="st0" d="M82.5,56.4L61.8,76.8c-3.7,3.6-3,3.8-6.8,0.1l-4.8-4.8L41.9,64c-0.7-0.6-0.8-1.6-0.2-2.3
		c0.1-0.1,0.2-0.2,0.3-0.3l6.6-6.8c1-1,1.8-1,2.8,0v0l7.1,6.7l14.3-14.5c1.4-1.4,2.3-2.6,4-0.8l5.7,5.8c0.8,0.8,1.2,1.4,1.3,1.9
		C84,54.6,83.6,55.4,82.5,56.4z"/>
</g>
</svg>
