<?xml version="1.0" encoding="utf-8"?>
<!-- Generator: Adobe Illustrator 25.2.3, SVG Export Plug-In . SVG Version: 6.00 Build 0)  -->
<svg version="1.1" id="Layer_1" xmlns="http://www.w3.org/2000/svg" xmlns:xlink="http://www.w3.org/1999/xlink" x="0px" y="0px"
	 viewBox="0 0 437.9 487.7" style="enable-background:new 0 0 437.9 487.7;" xml:space="preserve">
<style type="text/css">
	.st0{fill:#C6D2DB;}
	.st1{fill:none;}
	.st2{fill:#262264;}
	.st3{fill:#252367;}
	.st4{fill:#F7F9FB;}
	.st5{fill:#AEAED3;}
	.st6{fill:#4C2E90;}
	.st7{fill:#E9C49F;}
	.st8{fill:#D5A83E;}
	.st9{fill:#D7A93E;}
	.st10{fill:#D8A93E;}
	.st11{fill:#CDA241;}
	.st12{fill:#D9AA3E;}
	.st13{fill:#DAAA3E;}
	.st14{fill:#DBAB3E;}
	.st15{fill:#DAAB3E;}
	.st16{fill:#1F553E;}
	.st17{fill:#1C543C;}
	.st18{fill:#21553D;}
	.st19{fill:#24563D;}
	.st20{fill:#417CBD;}
	.st21{fill:#69ABCF;}
	.st22{fill:#69A6C8;}
	.st23{fill:#6BAED3;}
	.st24{fill:#6BAFD4;}
	.st25{fill:#6CB1D6;}
	.st26{fill:#7DCEDB;}
	.st27{fill:#87CEDE;}
	.st28{fill:#89D2E2;}
	.st29{fill:#13385E;}
	.st30{fill:#8AD4E4;}
	.st31{fill:#3F78B6;}
	.st32{fill:#EE9523;}
	.st33{fill:#D15228;}
	.st34{fill:#F7B71A;}
	.st35{fill:#E46F26;}
	.st36{fill:#D85D28;}
	.st37{fill:#FFFFFE;}
	.st38{fill:#A96327;}
</style>
<g>
	<g>
		<path class="st0" d="M255.4,235.9C255.5,235.8,255.4,235.9,255.4,235.9L255.4,235.9z"/>
		<path class="st0" d="M256.3,234.8C256.4,235.5,256.4,234.3,256.3,234.8L256.3,234.8z"/>
		<path class="st1" d="M269.7,229.1c-0.1-0.1-0.1-0.2-0.1-0.3"/>
		<path class="st0" d="M292.9,135c-0.6,0.6-1.1,1.2-1.5,2c-6.9,13.8-11.8,28.1-21.6,40.2c-2.2,2.5-3.8,5.6-4.5,8.9
			c-1.8,11.8-3.1,23.4-2.2,34.6c0.4,5,4.4,4.6,6.4,8c-0.7-0.1-1.5-0.3-2.2-0.4c-1.5-0.1-3.5-0.2-5.9,0.2c-0.4,0.1-0.8,0.1-1.1,0.2
			l-3.3-0.1c2.2-3.3,2.3-7,1.7-11.6c-1.2-9.9,0.2-20.2,1.8-29.5c0.6-3.7-0.1-6.7-2.7-8c-16.8-8.5-28-20.5-39.4-35
			c-1.3-1.8-2.6-3.5-4.1-5.1c0.2-0.2,0.3-0.4,0.5-0.6c1,0.6,2.2,1.1,3.4,1.3c1.8,0.4,3.6,1.2,5.2,2.2c-0.4,2,2.7,6.3,3.6,7.3
			c8.5,9.1,18.1,17.1,28.7,23.7c1,0.6,2.1,1.8,3.3,0.1c0.1-0.2,0.3-0.2,0.5-0.5s0.4-0.8,0.6-1.2c0.5-1.1,0.9-2.3,1.3-3.4
			c0.1-0.4,0.2-0.9,0.3-1.2c0.1-0.3,0.1-0.1,0.1-0.3c0,0,0-0.1,0-0.1c0.1-0.2,0.1-0.4,0.2-0.6c0,0,0-0.1,0-0.1v-0.2
			c0-0.2,0-0.3,0.1-0.5c0-0.2,0.1-0.8,0.1-1c0.1-2.9-0.3-5.7-1.1-8.5c-2.8-9.9-5.7-18.9-9-28.4c1.2,0,2.3-0.2,3.5-0.5
			c0.3-0.1,0.6-0.2,0.9-0.4c0.1,0.4,0.2,0.8,0.3,1.2c0.6,2.3,1.2,4.6,2,6.9c0.2,0.7,0.4,1.5,0.7,2.3c1.4,4.9,3.1,9.9,4.5,14.8
			c1.4,5.3,2.4,10.6,3,16c0.4,3.3,0.6,5.4,3.7,1.2c6.4-8.7,10.6-20,14.9-30.1c0.4-0.8,0.4-1.2,0.6-1.7c0.2-0.4,0.6-0.4,1-0.5
			c0.8-0.3,1.7-0.2,2.6-0.5c1-0.3,2-0.7,3-1.1C292.8,134.9,293,135,292.9,135z"/>
		<path class="st0" d="M252.7,238.3c-0.2,0.4-0.2,1-0.2,1.6l-0.7,1.1H251c0.3-0.6,0.7-1.1,1-1.7c0,0,0,0,0,0
			C252.2,239,252.5,238.7,252.7,238.3z"/>
		<path class="st0" d="M256.4,234.4v0.3c0,0,0,0,0,0c-0.1,0.7-0.7,0.5-0.9,1.2c-0.2,0.4-0.5,0.7-0.8,1c0,0.1,0,0.1,0,0.1
			c0,0,0,0,0,0c-0.4,0.1-0.7,0.2-1,0.4c0.2-0.2,0.4-0.5,0.6-0.7c0,0,0,0,0,0c0.2-0.2,0.4-0.4,0.6-0.6
			C255.2,235.5,255.7,235,256.4,234.4z"/>
		<path class="st0" d="M260.4,228.7c-1.8,0.4-3.4,0.9-4.6,1.5c0,0,0,0,0,0c0.5-0.5,0.9-1.1,1.3-1.6L260.4,228.7z"/>
		<path class="st1" d="M269.7,229.1C269.7,229.1,269.7,229.1,269.7,229.1"/>
	</g>
	<path class="st2" d="M252.7,238.3c0.2-0.3,0.5-0.7,0.8-1C253.1,237.6,252.9,237.9,252.7,238.3z"/>
	<path class="st2" d="M273.1,272.9c0.6-1.7,0.9-3.4-0.3-5c0,0,0,0,0,0.1c-0.1,0.4-0.1,0.8-0.2,1.2c-0.1,0.5-0.3,1-0.5,1.4
		c-0.2,0.4-0.5,0.8-0.7,1c-0.2,0.2-0.4,0.3-0.6,0.5c-1.5,1-3.6,0.6-5.9-0.3h0l0,0c-6.7-0.5-12.9-2.8-18.8-5.8
		c-2.3-1.2-2.6-2.7-2.2-5.2c1.1-6.5,3.6-12.5,6.5-18.3c0,0,0-0.1,0.1-0.1c0.2-0.4,0.5-0.9,0.7-1.3c0.3-0.6,0.7-1.1,1-1.7
		c0,0,0,0,0,0c0.2-0.3,0.4-0.6,0.7-1c0.1-0.4,0.4-0.8,0.8-1l0,0c0.2-0.2,0.4-0.5,0.6-0.7c0,0,0,0,0,0c0.2-0.2,0.4-0.4,0.6-0.6
		c0.5-0.5,1-1,1.6-1.5c0.1-0.1,0.3-0.3,0.5-0.4l2.6-1.6l0,0c1,3.2,0.3,5.4-2,7.5c-3.1,2.9-4.1,6.5-1.5,10.5c0.1,0,0.2,0,0.3,0
		c0.1,0,0.2,0,0.3,0.1c3,0.6,2.8,4.4,5.1,5.8c0,0,0,0,0-0.1l0-0.3c0.1-1.2-0.5-2.2-0.9-3.2c-0.2-0.4-0.4-0.9-0.3-1.3
		c0,0,0-0.1,0-0.1c0.1-0.3,0.3-0.6,1-0.7c1.2-0.1,1.4,1,1.7,1.9c0,0,0,0,0,0l0.1,0l3.9-2.1c-0.9-0.3-1.7-1-2-1.9
		c-0.1-0.1-0.1-0.2-0.1-0.4c0-0.1-0.1-0.3-0.1-0.5h0c-0.9,0.2-1.9,0.5-2.8,0.7c-0.5,0.1-1,0.1-1.4,0c-0.8-0.1-1.4-0.6-1.8-1.6
		c-0.4-1.1-0.2-2,0.2-2.8c0.2-0.4,0.5-0.7,0.8-1c0.1-0.1,0.2-0.2,0.3-0.3c0.5-0.5,1.1-1,1.7-1.5c0.4-0.3,0.7-0.5,1.1-0.8l1.2-1.6
		c-0.3,0-0.5-0.1-0.8-0.2c-0.1,0-0.2-0.1-0.4-0.1c-0.6-0.2-1-0.4-1.4-0.7c-0.1-0.1-0.2-0.2-0.3-0.3c-0.1-0.1-0.1-0.2-0.1-0.2
		c0-0.1-0.1-0.2-0.1-0.3c-0.1-0.4-0.1-0.9,0.1-1.5c0-0.1,0.1-0.2,0.1-0.4c0.1-0.2,0.2-0.4,0.3-0.6c0-0.1,0.1-0.2,0.2-0.3
		c0.3,0.1,0.5,0.3,0.7,0.4c0,0,0,0,0,0c0.1,0.1,0.2,0.2,0.3,0.2c0.2,0.2,0.3,0.3,0.5,0.5c0.1,0.1,0.1,0.2,0.2,0.3
		c0,0.1,0.1,0.2,0.1,0.3c0,0,0,0,0,0c0,0.1,0.1,0.2,0.1,0.3c0.1,0.2,0.1,0.4,0.2,0.6c0.1,0.3,0.1,0.7,0.2,1c0.1,0.3,0.1,0.6,0.2,0.9
		c1.8-0.6,3.7-0.5,5.4,0.1h0c-0.2-0.8-0.5-1.6-0.4-2.3c0-0.1,0-0.2,0-0.2c0-0.1,0-0.2,0-0.3c0.2-0.6,0.6-1.1,1.5-1.5c0,0,0,0,0-0.1
		c0.3-1.5,0-3.1-0.8-4.5c0-0.3-0.1-0.6-0.2-0.8c0,0,0,0,0,0c0-0.1-0.1-0.2-0.1-0.3c0,0,0,0,0-0.1c0,0,0,0,0,0
		c-0.7-0.1-1.5-0.3-2.2-0.4c-1.5-0.1-3.5-0.2-5.9,0.2c-0.4,0.1-0.8,0.1-1.1,0.2c-1.8,0.4-3.4,0.9-4.6,1.5c0,0,0,0,0,0c0,0,0,0,0,0
		c-0.7,0.5-1.7,1.2-2.8,2.2c-3.6,3.1-6.8,5.9-6.6,9.1c-1.9,2.3-2,6-4.5,8.3c-2-10.9-6.5-20.3-10.8-29.7c-2-4.2-4.9-7.3-10.5-7.5
		c-3-0.1-6.3-0.1-9.2-2.4c-17.5-13.9-36.8-19.8-58.9-13.4c-2.9,0.8-6.3,0.5-8.4,3.3c-4,4.7-9.8,6.1-14.9,8.8l-1.8,1.1
		c-0.1,1.1-0.9,1.9-2,1.9c-1.4,2.8-4.8,3.3-6.6,5.6c-5.9,7.6-11,15.7-13.2,25.3c-1.7,7.4-1.2,15.7-8.7,20.8c-0.6,0.4-0.8,1.7-1,2.7
		c-2.4,7.8,2.4,13.7,5.1,20.2l4,0.8c-1.5-4.1-3-8.2-4.6-12.3c-1.7-4.7-1.2-8.8,3-12.9c1.6,10.1,4.8,19.9,9.4,29.1c1.3,2,2.5,4,3.9,6
		c1.4,2,2.9,3.7,4.6,5.9c-4.6,0.6-7.4-2-10.5-3.9c0.4,2.1,1.4,3.5,2.8,4.5c1.4,0.9,3.1,1.3,5,1.5c2.7,0.2,3.5,1,3.2,4
		c-0.5,4.1,1.4,8.3,0,12.5c0.2,0.1,0.4,0.2,0.6,0.3l0.2,0.1c0.2,0.1,0.4,0.2,0.6,0.4l0.3,0.3c0.1,0.1,0.2,0.2,0.3,0.3
		c0,0,0.1,0.1,0.1,0.1c0.2,0.2,0.3,0.5,0.4,0.7c0,0.1,0.1,0.3,0.1,0.5v0.3c0,0.1,0,0.3,0,0.4v0.4c0,0.2,0,0.4-0.1,0.6
		c0,0.2-0.1,0.4-0.1,0.6c-0.1,0.6-0.3,1.2-0.5,1.9c0,0.1-0.1,0.3-0.1,0.5c0,0.2-0.1,0.3-0.1,0.4c0,0.1,0,0.3,0,0.4
		c0,0.2,0,0.3,0,0.5c0,0.2,0,0.4,0,0.6c0.4-0.6,0.9-1.1,1.3-1.7l0.5-0.7l0.5-0.8l0.5-0.8l0.5-0.9c0.3-0.6,0.7-1.2,1-1.8
		c0.1-0.3,0.2-0.5,0.4-0.8c0.1-0.3,0.2-0.6,0.4-0.9l-1.6-3.1l-2.6,2.2c-1.2-4.2-0.7-8.2-1-12.2c-0.2-2.1,1-2.8,2.6-2
		c2.1,1.2,4.2,2.5,6.1,4c1.2,0.9,0.2,1.6-0.5,2.3c-1.6,1.8-3.7,3.1-4.5,5.6c0.5,1,1.1,2,1.6,3.1l7.6-7.7c1.5,10.6,10,9.2,16.5,11.1
		l2,0.1l5.8,0.1c13.8-1.5,27.2-5.3,39.8-11.4c12.5-6.2,23.1-14.6,31.1-26.2c2.3-6.6,6.8-12.1,9.6-18.5c0.9-1.9,1.9-1.2,3.1-0.5
		c6.3,3.7,13.3,5.1,20.2,6.7c6.3,0.4,6.3,0.4,4.6,6.4c-4.2,14.6-10.8,28.5-19.4,41c-2,2.9-2,2.8-4.8,0.5c-1.5,6.1-0.5,12.1-0.2,18
		c0.4,9.2,0.5,9.2-9,9.3l-2.8,0.8c-3.7,1-5.4,0.1-5.5-4.3c-0.2-7.9-2.3-9.4-10.4-9c-17.4,0.9-34.9,1.8-52.3,2.6
		c-6,0.3-7.9,2.4-7.8,8.6c0.2,6.9,0.2,6.9-6.9,6.9c-7.8,0-7.8,0-7.8-8v-13.8c-2.4,0.8-1.8,2.6-2.5,3.7c-1.5,8.2-0.1,16.8-3,24.9
		c-0.3,1.3-0.1,2.6,0.5,3.7c2.9,5.4,2.9,11.9,0,17.2c0.8,0,1.6-0.4,2-1.2c0.5-0.9,1.1-1.8,2.2-1.1c0.8,0.5,1.1,1.6,0.6,2.5
		c-0.1,0.2-0.3,0.4-0.5,0.5c-2.8,2.6-2.3,4.2,1,6.1c1.8,1,0.2,3.7,1.1,5.5c0.8,1.8,0.1,4,1.6,5.5c0.7-7.2-1.5-14.1-1.3-21.2
		c-1.6-8.8-1.6-9,7.2-8.7c2.4,0.1,7.3-2.9,6.8,3.5c0.1,3.5,0.4,7,3.2,9.6c4.3,1,8.6-0.2,12.8,0.3c16.3-1.1,32.7-2.1,49-2.3l3.8-2
		c3-2.8,1.8-6.4,2-9.7c-0.6-2.4-0.4-4.1,2.8-4.1c2.6-0.1,5.2-0.4,7.8-0.9c6.1-0.8,6.1-0.8,6.2,5.6c0,4.1-0.1,8.2-0.2,12.2
		c2.7,13.3,2.7,26.9,0,40.2c-0.9,4.6-2.3,7.3-7.9,7.5c-9,0.3-17.9,0.8-26.4-2.6c-3.6-0.7-5-2.7-4.9-6.5c0.2-7.8-0.5-15.7-2.2-23.3
		c-1-4.4,2.8-5.4,6-6.2s6.5-1.8,9.1-4.5c-14.7,4.1-29.7,4.6-44.8,3.3c3.1,2.3,6.6,2.8,10.1,3c2.6,0.2,3.2,1.3,3.1,3.7
		c-0.1,8.5-0.2,17,0.1,25.5c0.1,4-1.5,5.3-5.1,5.1c-9.5,2.4-19,1.6-28.5-0.5c-2.1-0.5-2.6-1.8-3.3-3.6c-1.9-5.1-1.6-10.9-4.5-15.7
		c-0.5,3,0.9,6.2-1,9c-0.3,3.6,0.6,7.3,2.6,10.3c3.1,4.7,2,8.4-0.7,12.6c-4.2,6.5-6.3,14.1-5.9,21.9c0.4,7.1,7.4,18.4,16.8,19.2
		c9.7,0.9,17.9-2.3,24-10.1c8.5-10.7,12.7-22.5,10.5-36.4c-1.8-11.7-2.3-23.5-1.4-35.3c0.4-4.5,3.2-4.4,6-4.7c3.7-0.5,3,2.5,3.1,4.7
		c0.2,1.8,0.4,3.6,0.6,5.3c1.5,12.2,2.3,24.3,0.1,36.6c-1,5.1-0.8,10.4,0.8,15.4c5.5,17,23.3,25.5,38.8,25.1
		c4.9-0.1,10.2-4.5,10.5-8.8c0.6-7.9,0.1-15.7-4.7-22.6l-3.5,0.7c1.5,4.7,3.4,9.3,4.1,14.3c0.4,3,0.7,6.1-1.3,8.8
		c-1.7,3.4-5,3.5-8.1,3.3c-12.4-0.9-22.4-6.2-29.2-16.9c-2.8-4.3-4-9.4-3.5-14.5c0.3-3.2,0.8-6.5,1-9.7c0.4-6.1,0.4-6.1,6.2-3.7
		c9.4,2.3,19.2,2.7,28.8,1.1c-1.8,5.4-1.8,5.4-13,11.8c5.7,0.5,13-3.8,14.8,5.4c0.8-2.2-0.4-4.1-1.2-6c-0.5-1.2-1.3-2.3,0.1-3.5
		l-0.1-2.4c0.3-2.7-0.3-6,3.9-6.3c0.1-0.2,0.1-0.4,0-0.6c-0.6-3.2,1.1-6.1,1.5-9.1c1.2-8.5,3-17,1.5-25.7c-0.3-1.9-1.4-4.7,1.8-5.9
		c0-1-0.1-2-0.1-3c-2.7-1.7-2.7-3.3,0.1-4.9c9.7-3.1,12.8-7.2,12.7-17.1c0-4.2-0.3-8.5-0.9-12.7c-1.6-10.4-0.2-20.9-1.8-31.3
		c-1-6.5,0.7-12.3,4-18.1c4.5-7.9,7.8-16.5,8.7-25.7c-0.2-1,0.5-2,1.5-2.2c0.1,0,0.1,0,0.2,0c0-0.5,0-1,0-1.5s0-1,0-1.5
		C272.8,275.4,272.6,274.3,273.1,272.9z M227.8,222.7c2.6,6.1,4.8,12.4,7.2,18.6c3.4,6.6,2.9,11.3-2.1,17c-0.8-4.9-1.6-9.5-2.4-14.1
		c-2.6-9.7-7-18.9-13-27C222.3,216.4,225.8,218,227.8,222.7z M130.1,305.3c-14-10.6-20-25.5-22.3-42c-3.4-24.6,13.4-50.7,38.2-60
		c18.4-6.9,36.3-6.2,53.6,3.8c2.1,1.2,4.3,2.3,5.4,4.7c1.1,0.1,2.2,0.6,3,1.4c12.6,10.4,25.3,38.2,18.6,58.4
		c-3,9.3-8.9,17.3-16.9,22.9c-18.2,12.9-38,21.2-60.9,18.7C141.9,312.5,135.4,309.7,130.1,305.3z M226.8,287.8
		c-8.1,12.2-19.8,19.8-32.8,25.5c-14.3,6.2-29,10.2-44.8,7.7c-0.7,0-1.3-0.1-1.9-0.3c-2.2-1-5.6-0.1-6.1-3.8c-0.1-0.9,0.1-0.9,6,0
		c19.6,2.8,37.1-3.4,54-12.2c10.5-5.5,19.2-12.9,25.6-23.6C229.7,283.6,228.2,285.7,226.8,287.8L226.8,287.8z M234.5,274.2
		c-0.8,1.4-2.6,1.9-4.1,1c-0.1,0-0.1-0.1-0.2-0.1c-1.4-1-0.9-3-0.3-4.5c2.1-5.4,5.6-10.1,10-13.8
		C240.9,263.7,237.2,268.8,234.5,274.2z M156.7,368c-5.1,0.5-10.2,1.5-15.1-0.6c-0.3-0.1-0.4-0.8-0.6-1.3c-2-3.6,0.3-4.9,3.2-5
		c4.1-0.1,8.3-0.7,12.5,0.3c0.2,0.2,0.3,0.3,0.5,0.5c0,0-0.1,0.2-0.2,0.3c0,1.2,0.1,2.5,0.1,3.7C157.2,366.7,157.5,367.9,156.7,368z
		 M172.4,381.9l-1.5,0.1c-9.3,0.4-9.3,0.4-9.2-9c-0.4-7.7-0.7-15.4-1.3-23c-0.4-4.7,2.6-4.2,5.6-4.6c3.3-0.3,4.7,0.5,4.5,4.1
		c-0.1,3.3,0,6.5,0.4,9.8c0.2,3.1-0.5,7,4.9,6c1-0.2,1.5,0.5,1.4,1.5c-0.3,2.8,1.8,5.3,0.9,8.1C178.9,381.6,178.9,381.6,172.4,381.9
		z M220.8,379.6c-11.9,0.5-23.8,1.2-35.7,1.5c-5,0.1-2-4-2.6-6.2c-0.2-3.4-0.4-6.8-0.7-10.2c-0.1-1.9-0.6-3.8-3.1-3.4
		c-3.6,0.7-3.9-1.3-4.1-4.1c-0.9-12.3-1-12.2,11.5-12.8c10.6-0.4,21.2-1,31.7-1.6c2.8-0.2,5,0.1,4.7,3.7c1.6,10,1.4,20.1,1.9,30.1
		C224.6,379,222.8,379.5,220.8,379.6z M244.1,361.9c-4.5,0.8-9.1,1.2-13.6,1.9c-2.9,0.5-2.8-1.7-2.9-3.3c-0.1-1.6-1.2-3.8,1.9-4.1
		c0.6-0.1,1.3-0.1,2-0.2l12.1-1.6c1.4,0.2,3.3,0.6,3.5,2.9C247.4,359.8,246.5,361.6,244.1,361.9z M171.9,476.2L171.9,476.2
		c-9.1,6.7-24.5,1.9-26.1-9.8c-1.8-7.1-0.4-14.6,3.7-20.7c1.7-2.7,3.6-5.1,7.3-2.6c1,0.7,2.4,0.9,3.6,0.4c-2.6-2.8-6.1-4.9-6.9-9.7
		c8.8,1.7,17.8,2,26.6,1l7.7-1.6C190.3,450.6,186.7,465.4,171.9,476.2z M256.4,376.7L256.4,376.7c-1.6,2.2-3.6,4.7-6.3,4
		c-2.4-0.7-0.9-3.7-0.9-5.6c0-4.8-1-9.8,1.9-14.3c0.9-1.6,0.8-3.6-0.1-5.2c-3.8-7-2.3-14.7-2.7-22c-0.2-4,4.3-6.2,6.2-10.3
		c1.8,5,1.3,9.6,1.6,14.1c0.7,10.6,1.2,21.2,1.9,31.8C258.1,371.9,258,374.5,256.4,376.7z"/>
	<path class="st3" d="M100.8,286.5l4,0.8l0,0c-0.2,2.5-0.4,5,2.6,6.1c0.2,0.2,0.3,0.5,0.3,0.8c-0.1,0.8,0.3,1.7,1,2.1l0,0
		c-0.1,0.8,0.4,1.6,1.2,1.9l-0.1-0.1l1,1.2l0,0c0.9,4.2,4,5.7,7.8,6c2.7,0.2,3.5,1,3.2,4c-0.5,4.1,1.4,8.3,0,12.5
		c5.3,2.1,1.3,6.1,1.8,9.1l0,0c-1.3,0.4-2.3,1.3-2.8,2.6c-4.7,11.5-8.8,23-9.3,35.6c-0.2,4.6,0.7,9.4-1.3,13.7
		c-3.2,7-2.7,14.3-2.3,21.6c0.1,1.4,1,2.5,2.3,2.9l0.1,0.1c-0.8,2.9,0,4.7,3.3,4.8l1,0.1c1,1.7,1.1,4.7,3.7,4.3s4.6-2.8,6.3-4.8
		c1.5-1.7-0.5-2.5-1.2-3.5c2.2-0.5,5.1,0.2,5.7-3.2v0c2,0.2,3.1-0.9,3.3-2.7c0.6-4,4.4-7.3,2.3-11.8c-0.2-0.9-0.5-1.9-0.8-2.8
		c1.2-0.6,1.6-1.9,2.2-3c0.3-0.1,0.6-0.2,0.9-0.2c0.8,0,1.6-0.4,2-1.2c0.5-0.9,1.1-1.9,2.2-1.1c0.9,0.5,1.1,1.6,0.6,2.5
		c-0.1,0.2-0.3,0.4-0.5,0.5c-2.8,2.6-2.3,4.2,0.9,6.1c1.8,1,0.2,3.7,1.1,5.5s0.1,4,1.6,5.5l0.2,1.9c-1.7,1.9,0,3.4,0.7,5
		c0.1,0.3,0.2,0.5,0.2,0.8c-0.5,3,0.9,6.2-1,9c-2.7-6.1-2.7-12.7-3.8-19.1c-0.3-2.5-1-4.9-2.1-7.1c-2.5,5.6-4.9,11.1-7.7,16.5
		c-2.6,5.1-7.2,7.5-12,9.3c-3.4,1.3-6-0.9-8.5-3.3c-6.9-6.8-7.8-15.7-5.5-23.6c3.5-11.9,2.8-24.2,5.2-36.1c1.6-7.3,3.9-14.5,7-21.4
		c2.6-6.1,1.9-12.2,1.6-18.3c-0.2-4.8-0.7-9.2-6.8-11c-5.6-1.6-7.4-7.2-9.5-12.1C102,290.9,101.5,288.7,100.8,286.5z"/>
	<path class="st4" d="M240.8,156.4c-1-0.3-1.7-1.1-1.7-2.1c-0.5-3.9-2.3-6.2-6.4-6.6c-1-0.1-2.5-0.5-2.2-2c0.2-1,1.3-1.4,2.3-1.6
		c3.7-0.6,5.9-2.2,5.8-6.3c0.2-1.1,1-2,2-2.4c1.4-0.4,2,1.1,2.1,2.1c0.4,4.3,2.8,6.3,6.9,6.8c0.8,0.1,1.5,0.6,1.8,1.4
		c0.2,1.2-1,1.8-1.8,1.9c-4.1,0.5-6.5,2.6-6.9,6.8C242.5,155.4,241.8,156.2,240.8,156.4z"/>
	<path class="st2" d="M261,236.9c-0.1-0.4-0.1-0.9,0.1-1.5C260.9,235.9,260.9,236.5,261,236.9z"/>
	<path class="st3" d="M245.2,434.3c-0.6-3.2,1.1-6.1,1.5-9.1c1.2-8.5,3-17,1.5-25.7c-0.3-1.9-1.4-4.7,1.8-5.9
		c1.8,13.5,2.5,27-3.6,39.8C246.3,433.8,245.6,434,245.2,434.3z"/>
	<path class="st3" d="M143.9,200.1c-4,4.6-9.8,6.1-14.9,8.8C132.8,203.9,138.1,201.5,143.9,200.1z"/>
	<path class="st3" d="M246.1,452.6l-3.5,0.7l-0.1-0.3c0.8-2.2-0.4-4.1-1.2-6c-0.4-1.2-1.4-2.3,0.1-3.5
		C244.1,445.8,245.8,449.1,246.1,452.6z"/>
	<path class="st3" d="M241.3,441.2c0.3-2.7-0.3-6,3.9-6.3C244.1,437,245,440.6,241.3,441.2z"/>
	<path class="st3" d="M249.9,390.7c-2.7-1.7-2.7-3.3,0.1-4.9C250,387.4,249.9,389,249.9,390.7z"/>
	<path class="st3" d="M127.2,209.9c-0.1,1.1-0.9,1.9-2,1.9C125.3,210.8,126.2,210,127.2,209.9z"/>
	<path class="st3" d="M272.7,280.9c-0.2-1,0.5-2,1.5-2.2c0.1,0,0.1,0,0.2,0C274.5,279.9,273.7,280.5,272.7,280.9z"/>
	<path class="st2" d="M278.3,262c-0.1-0.2-0.1-0.5-0.2-0.7c0-0.1,0.2-0.2,0.3-0.3C278.4,261.3,278.4,261.6,278.3,262z"/>
	<path class="st4" d="M128.6,322.4c2.3-2.4,4.6-4.7,7.6-7.7c1.4,10.6,10,9.2,16.5,11.1c0.6,0.8,1.3,0.9,2,0.1l5.8,0.1
		c1.5,3.1,4.3,1.6,6.5,1.5c16.8-0.9,32.7-5.4,48.2-11.8c7.6-3.1,13.4-0.7,16.5,7c3.7,9.2,5.8,18.7,3.6,28.6l-2.8,0.8
		c-3.7,1-5.4,0.2-5.5-4.3c-0.2-7.9-2.3-9.4-10.4-9c-17.5,0.9-34.9,1.8-52.3,2.6c-6,0.3-7.9,2.4-7.8,8.6c0.2,6.9,0.2,6.9-6.9,6.9
		c-7.8,0-7.8,0-7.8-8c0-4.5,0-9,0-13.9c-2.4,0.8-1.8,2.6-2.6,3.7c-2.5,1.6-2.6,4.4-3.2,6.8c-3,11.9-3.9,24.1-5,36.3
		c-4.6-1.2-9.2-3-13.9-2.6c-5.1,0.4-5-2-4.8-5.6c0.9-14.9,4.6-29.5,11-42.9l0,0c2.1-2.5,3.8-5.3,5.1-8.3L128.6,322.4z"/>
	<path class="st4" d="M130.1,305.3c-14-10.5-20-25.5-22.3-42c-3.4-24.6,13.4-50.8,38.2-60.1c18.4-6.9,36.3-6.2,53.6,3.9
		c2.1,1.2,4.3,2.3,5.4,4.7c1,1.8,2.2,3.6,3.1,5.5c2.3,5,6,9.4,5.6,15.4c-9.8-9.4-21.8-12-34.8-10.6c-14.2,1.5-27.8,6.5-39.6,14.4
		c-6.5,4.1-12.1,9.6-16.3,16c-8.7,13.5-7.3,31.2,3.3,41.9v0c0.6,1.3,1.6,2.2,2.9,2.8l1.7,1.2l1.2,0.9l0,0c1.1,1.2,2.5,2.1,4.1,2.5
		l0.4,0.2c2.8,1.9,6,2.5,9.2,3.3C140.6,307.9,135.3,305.3,130.1,305.3z"/>
	<path class="st4" d="M226.4,381.8c3-2.8,1.8-6.4,2.1-9.7c4-1.5,8.3-0.8,12.4-1.9c2.4-0.6,3.4,0.7,3.5,3.2c0.1,3.8-0.8,7.7,0.6,11.5
		c2.7,13.2,2.8,26.9,0.1,40.2c-0.9,4.6-2.3,7.3-7.9,7.5c-9,0.3-17.9,0.8-26.4-2.6c-0.2-7.8,0.3-15.6-0.9-23.4
		c-0.6-3.6,1.2-6.6,4.6-8.4c4-2,7.5-4.6,10.6-7.8C227.5,387.5,228.5,385,226.4,381.8z"/>
	<path class="st5" d="M235.3,351.4c2.2-10,0.1-19.4-3.6-28.6c-3.1-7.7-8.9-10.1-16.5-7c-15.5,6.3-31.4,10.8-48.2,11.8
		c-2.1,0.1-4.9,1.6-6.5-1.5c13.8-1.5,27.3-5.3,39.8-11.4c12.5-6.2,23.1-14.6,31.1-26.2c3.1,2.8,4.1,7,6.7,10.2
		c5.8,7.3,14.3,6.5,18.6-1.8c3.3-6.6,5.9-13.5,7.6-20.7c6.3,0.4,6.3,0.4,4.6,6.4c-4.3,14.6-10.8,28.5-19.4,41c-2,2.9-2,2.8-4.8,0.5
		c-1.5,6.1-0.5,12.1-0.2,18C244.7,351.4,244.8,351.4,235.3,351.4z"/>
	<path class="st4" d="M145.9,410.2c0-0.3-0.1-0.6-0.2-0.8c0.5-1.8,1-3.5-0.7-5l-0.2-1.9c0.6-7.1-1.5-14.1-1.3-21.2
		c-0.3-4.5,2-5.9,6.2-5.4c2.6,0.2,5.2,0.2,7.8,0.2c0.1,3.5,0.4,7,3.2,9.6c-0.3,2.5,0.9,4.3,2.5,6.1c3.3,3.8,7.4,7,11.9,9.2
		c3.7,1.7,6.2,4.4,6.1,8.6c-0.1,6.9,0.6,13.6,0.9,20.5c-9.6,2.4-19,1.6-28.5-0.5c-2.1-0.5-2.6-1.8-3.3-3.6
		C148.5,420.8,148.8,415,145.9,410.2z"/>
	<path class="st4" d="M145.8,466.4c-1.7-7.1-0.4-14.6,3.7-20.7c1.7-2.7,3.6-5.1,7.3-2.6c1.1,0.7,2.4,0.9,3.6,0.4
		c-2.6-2.8-6.1-4.9-6.9-9.7c8.8,1.7,17.8,2,26.6,1c1.6,0.3,3,0.6,3.2,2.9c0.9,10.9-0.9,20.9-10,28.1
		C164.4,472.8,155.1,471.1,145.8,466.4z"/>
	<path class="st5" d="M213.6,232.6c0.3-5.9-3.3-10.4-5.6-15.4c-0.9-1.9-2-3.7-3.1-5.5c1.1,0.1,2.2,0.6,3,1.4
		c12.6,10.4,25.3,38.2,18.6,58.4c-3,9.3-8.9,17.3-16.9,22.9c-18.2,12.9-38,21.2-60.9,18.7c-6.9-0.6-13.4-3.4-18.6-7.8
		c5.2,0.1,10.5,2.6,15.7,0.1c16.7,2.8,32-1.7,46.6-9.2l0.3-0.1c2.6-1.2,5.3-2.2,7.4-4.4l-0.1,0.1l1.3-0.8h0.1
		c2.9-1.5,5.5-3.6,7.6-6.1l-0.2-0.2l0.2,0.2c3.3-2.4,6-5.5,7.8-9l1.1-1.9c2.9-4,4.5-8.9,4.6-13.9c0-0.7,0.1-1.3,0.1-2
		c0.8-4,0.3-8.1-1.2-11.8l-0.8-2l-0.7-1.3h0.1l-1-2l0,0c-0.4-1.4-1.2-2.7-2.3-3.7v0.1l-1-1.2l0.1,0.1l-1-1.2h0.1l-0.4-1.4l-1-1.2
		L213.6,232.6z"/>
	<path class="st4" d="M211.9,434.8c9.4,2.3,19.2,2.6,28.8,1.1c-1.8,5.4-1.8,5.4-13,11.8c5.7,0.5,13-3.8,14.8,5.4l0.1,0.3
		c1.5,4.7,3.4,9.3,4.1,14.3c0.4,3,0.8,6.1-1.3,8.8c-20.2-1.9-34.8-16.8-35.4-36.2C209.9,438.2,208.9,435.7,211.9,434.8z"/>
	<path class="st5" d="M182.2,429.9c-0.4-6.8-1.1-13.6-0.9-20.5c0.1-4.2-2.5-6.9-6.1-8.6c-4.5-2.2-8.6-5.3-11.9-9.2
		c-1.6-1.7-2.8-3.6-2.5-6.1c4.3,1,8.6-0.2,12.9,0.3c9.6,1.6,19.2,0.9,28.8,0.5c6.8-0.3,13.7-0.6,20.2-2.8l3.8-2
		c2.1,3.2,1.1,5.8-1.3,8.4c-3,3.2-6.6,5.8-10.6,7.8c-3.4,1.9-5.2,4.9-4.6,8.4c1.2,7.8,0.7,15.6,0.9,23.4c-3.6-0.7-5-2.7-4.9-6.5
		c0.2-7.8-0.5-15.7-2.2-23.3c-1-4.4,2.8-5.4,6-6.2s6.5-1.8,9.1-4.5c-14.7,4.1-29.7,4.6-44.8,3.3c3.1,2.3,6.6,2.8,10.1,3
		c2.6,0.2,3.2,1.3,3.1,3.7c-0.1,8.5-0.2,17,0.1,25.5C187.4,428.9,185.8,430.2,182.2,429.9z"/>
	<path class="st4" d="M217.8,342.8c-10.6,0.6-21.1,1.2-31.7,1.6c-12.4,0.5-12.4,0.4-11.4,12.8c0.2,2.8,0.5,4.7,4.1,4.1
		c2.5-0.5,2.9,1.4,3.1,3.4c0.2,3.4,0.5,6.8,0.7,10.2c3.4-1.6,7.4,0.4,10.7-2c-0.1-1-0.3-1.9-0.4-2.9c-0.1-2.6-1.1-5.6,3.3-6
		c4-0.3,6.8,0.2,6.4,5.1c0,0.6,0.2,1.3,0.4,1.9l3.8-2c-0.9-6.7,4-5.7,7.9-6c0.1-1.4,1.4-2.6,1-4.1c-7.5,2.3-9.3,1.4-9.6-4.3
		c-0.2-3.6,1.6-4.4,4.7-4.5s5.6,0.1,5.2,4.2c-0.1,1.3-0.1,2.6-0.1,3.9c3.5-1.5,3.7-5,4.7-8c0.5-1.4-0.5-3.5,2.1-3.8
		C222.8,342.9,220.6,342.6,217.8,342.8z M196.8,360.4c-4.4,0.8-4.5-1.8-4.9-4.9c-0.5-5,2.8-4.6,5.9-4.9c3.9-0.3,3.8,2.3,4.1,5.1
		C202.3,360.1,200,360.8,196.8,360.4L196.8,360.4z"/>
	<path class="st4" d="M264.3,276.2c-1.7,7.2-4.3,14.1-7.6,20.7c-4.3,8.3-12.7,9-18.6,1.8c-2.6-3.2-3.7-7.3-6.7-10.2
		c2.3-6.6,6.8-12.1,9.6-18.5c0.9-1.9,1.9-1.2,3.1-0.5C250.3,273.2,257.3,274.6,264.3,276.2z"/>
	<path class="st5" d="M145.8,466.4c9.3,4.6,18.6,6.4,27.5-0.7c9.1-7.2,10.9-17.2,10-28.1c-0.2-2.2-1.5-2.6-3.2-2.9l7.7-1.6
		c2.5,17.5-1.1,32.3-15.9,43.1C162.8,482.9,147.4,478.1,145.8,466.4z"/>
	<path class="st5" d="M215.8,358.2c3.5-1.5,3.7-5,4.7-8c0.5-1.4-0.5-3.5,2.1-3.8c1.6,10,1.4,20.1,1.9,30.1c0.1,2.4-1.7,2.9-3.6,3
		c-11.9,0.5-23.8,1.2-35.7,1.5c-5,0.1-2-4-2.6-6.2c3.4-1.6,7.4,0.4,10.7-2c3.6,1.4,7.2,2.4,9.7-1.9l3.8-2c0.2,2.3,0.7,4.4,3.7,4.1
		c2-0.2,4.8,0.9,5.7-1.5c1.1-2.9,1.4-6.1-1.5-8.5c0.1-1.4,1.4-2.5,1-4.1C215.5,358.6,215.6,358.3,215.8,358.2z"/>
	<path class="st5" d="M211.9,434.8c-2.9,1-1.9,3.5-1.9,5.4c0.6,19.4,15.2,34.3,35.4,36.2c-1.7,3.4-5,3.5-8.1,3.3
		c-12.4-0.9-22.4-6.3-29.2-16.9c-2.8-4.3-4-9.4-3.4-14.5c0.3-3.2,0.8-6.5,1-9.7C206.1,432.4,206,432.4,211.9,434.8z"/>
	<path class="st5" d="M226.8,281.1c2.9,2.5,1.4,4.6,0,6.7c-8.1,12.2-19.8,19.8-32.8,25.5c-14.3,6.2-29,10.2-44.8,7.7
		c-0.7,0-1.3-0.1-1.9-0.3c-2.2-1-5.6-0.1-6.1-3.8c-0.1-0.9,0.1-0.9,6,0c19.6,2.8,37.1-3.4,54-12.2
		C211.6,299.2,220.4,291.8,226.8,281.1z"/>
	<path class="st4" d="M254.5,323.3c1.8,5,1.3,9.6,1.6,14.1c0.7,10.6,1.2,21.2,1.9,31.8c0.2,2.7,0,5.3-1.6,7.5
		c-1.6,2.2-3.6,4.7-6.2,4c-2.4-0.6-0.9-3.7-0.9-5.6c0-4.8-1-9.8,1.9-14.3c0.9-1.6,0.8-3.6-0.1-5.2c-3.8-7-2.4-14.6-2.7-22
		C248.1,329.6,252.6,327.4,254.5,323.3z"/>
	<path class="st4" d="M256,234.5l3.4-2.1c1,3.2,0.3,5.4-2,7.5c-3.1,2.9-4.1,6.5-1.5,10.5c0,6.1,3.7,10.6,7.5,14.6
		c2.2,2.3,2.8,4.1,1.4,6.8c-6.8-0.5-12.9-2.8-18.9-5.8c-2.4-1.2-2.6-2.7-2.2-5.1c1.2-7.3,4.2-13.9,7.6-20.4l0.8-1.1
		c1-0.7,1.8-1.7,2.1-2.8l-0.1,0.1l1-1.1l-0.1,0.1L256,234.5L256,234.5z"/>
	<path class="st4" d="M161.7,373c-0.4-7.7-0.7-15.4-1.3-23c-0.4-4.7,2.6-4.3,5.6-4.6c3.3-0.4,4.7,0.5,4.5,4.1
		c-0.1,3.3,0.1,6.5,0.4,9.8c0.2,3.1-0.5,7,4.9,6c1-0.2,1.5,0.5,1.4,1.5c-0.3,2.8,1.8,5.3,0.9,8.1C172.6,374.6,167.1,374,161.7,373z"
		/>
	<path class="st5" d="M131.1,381.9c1.1-12.2,2-24.4,5-36.3c0.6-2.4,0.7-5.3,3.2-6.8c-1.5,8.2-0.1,16.8-2.9,24.9
		c-0.3,1.3-0.1,2.6,0.5,3.7c2.9,5.4,2.9,11.8,0,17.2c-0.3,0-0.6,0.1-0.9,0.2C133.7,385,132.7,383,131.1,381.9z"/>
	<path class="st4" d="M104.8,287.3c-1.5-4.1-3.1-8.2-4.6-12.3c-1.7-4.7-1.2-8.8,3-12.9c1.6,10.1,4.8,19.9,9.4,29.1
		c-1.3,2.1-3.3,0.7-5,1.1L104.8,287.3L104.8,287.3z"/>
	<path class="st4" d="M230.5,244.2c-2.6-9.7-7-18.9-13-27c4.9-0.8,8.4,0.8,10.3,5.5c2.6,6.1,4.8,12.4,7.2,18.6
		C232.7,241.1,233.5,245.6,230.5,244.2z"/>
	<path class="st4" d="M243.6,354.7c1.4,0.2,3.3,0.6,3.5,2.9s-0.6,4-3,4.4c-4.5,0.8-9.1,1.2-13.6,1.9c-2.9,0.5-2.8-1.7-2.9-3.3
		s-1.2-3.9,1.9-4.1c0.7,0,1.3-0.1,2-0.2L243.6,354.7z"/>
	<path class="st5" d="M161.7,373c5.4,1,10.9,1.7,16.4,1.9c0.7,6.7,0.7,6.7-5.8,7c-0.5,0-1,0-1.5,0.1
		C161.6,382.3,161.6,382.3,161.7,373z"/>
	<path class="st5" d="M264.8,271.8c1.3-2.6,0.8-4.4-1.4-6.8c-3.8-4-7.5-8.5-7.5-14.6c3.7,0.2,3.2,4.4,5.7,5.8h0.1l1.2,1.1l1.5,1
		c-0.2,5.7,4.7,6,8.2,7.9l0,0c0,0.3,0.1,0.6,0.4,0.7l0.1,1C272,273.2,268.8,273.3,264.8,271.8z"/>
	<path class="st6" d="M239.9,256.8c1,6.9-2.7,12-5.4,17.4c-0.8,1.4-2.6,1.9-4,1.2c-0.1-0.1-0.2-0.1-0.3-0.2c-1.4-1-0.9-3-0.3-4.5
		C232.1,265.2,235.5,260.5,239.9,256.8z"/>
	<path class="st4" d="M222.6,383.7c-6.6,2.2-13.5,2.5-20.2,2.8c-9.6,0.4-19.2,1-28.8-0.5C189.9,384.9,206.2,383.8,222.6,383.7z"/>
	<path class="st4" d="M126.9,319.4l-2.6,2.2c-1.1-4.2-0.7-8.2-1-12.2c-0.2-2.1,1-2.8,2.6-2c2.1,1.2,4.2,2.5,6.1,4
		c1.2,0.9,0.2,1.6-0.4,2.3c-1.6,1.8-3.7,3.1-4.5,5.6L126.9,319.4z"/>
	<path class="st4" d="M156.9,362.2c0,1.2,0.1,2.5,0.1,3.7l-16,0.2c-2-3.6,0.3-4.9,3.2-5c4.1-0.1,8.3-0.7,12.5,0.3
		C156.5,361.7,156.6,362,156.9,362.2C156.9,362.2,156.9,362.2,156.9,362.2z"/>
	<path class="st5" d="M245,384.8c-1.5-3.8-0.5-7.7-0.6-11.5c-0.1-2.5-1.1-3.8-3.5-3.2c-4.1,1-8.4,0.4-12.4,1.9
		c-0.6-2.4-0.4-4.1,2.8-4.1c2.6-0.1,5.2-0.4,7.8-0.9c6.1-0.8,6.1-0.8,6.1,5.6C245.1,376.7,245.1,380.7,245,384.8z"/>
	<path class="st5" d="M230.5,244.2c3,1.4,2.2-3.1,4.5-2.9c3.4,6.6,2.9,11.3-2.1,17L230.5,244.2z"/>
	<path class="st5" d="M107.7,292.4c1.7-0.4,3.7,1,5-1.1c1.3,2,2.6,4,4,6s2.9,3.7,4.6,5.9c-4.6,0.6-7.4-2-10.5-3.9l0,0l-1-1.2
		l0.1,0.1l-1.2-1.9l0,0l-1-2.1c0.1-0.3,0-0.6-0.3-0.8L107.7,292.4z"/>
	<path class="st5" d="M157.5,376c-2.6,0.1-5.2,0-7.8-0.2c-4.2-0.5-6.4,0.9-6.2,5.4c-1.6-8.8-1.6-9,7.2-8.7
		C153.1,372.6,158.1,369.6,157.5,376z"/>
	<path class="st5" d="M141,366.1l16-0.2c0.2,0.8,0.5,2-0.3,2.1c-5.1,0.5-10.2,1.5-15.1-0.6C141.2,367.3,141.1,366.6,141,366.1z"/>
	<path class="st3" d="M127,319.4l1.6,3.1l-0.1,0.1L127,319.4L127,319.4z"/>
	<path class="st5" d="M154.8,325.9c-0.7,0.8-1.4,0.7-2-0.1L154.8,325.9z"/>
	<path class="st5" d="M156.9,362.2c-0.3-0.1-0.4-0.5-0.3-0.8c0,0,0,0,0-0.1c0.2,0.2,0.3,0.3,0.5,0.5
		C157.1,361.9,156.9,362.1,156.9,362.2z"/>
	<path class="st7" d="M187.2,185.9h-0.1l0,0H187.2L187.2,185.9L187.2,185.9z"/>
	<path class="st3" d="M196,154.9L196,154.9l-0.3-0.2L196,154.9z"/>
	<path class="st2" d="M254.1,236.6c-0.4,1.2-1.1,2.2-2.1,2.8C252,237.9,252.2,236.6,254.1,236.6z"/>
	<path class="st2" d="M255.1,235.5l-1,1.1L255.1,235.5z"/>
	<path class="st2" d="M256,234.5l-1,1.1L256,234.5z"/>
	<path class="st4" d="M110.2,407.5l-0.1-0.1c-2.5-6.8-2.4-14.2,0.2-20.9c0.5-1.4,0.8-2.9,2.7-3c5.6-0.1,11.3-0.4,16.2,3.2
		c-0.6,4-2.8,6.9-6.7,8.1c-3.2,1-4.4,3-5.6,6c-1.2,3.1-1.8,7-5.5,8.7L110.2,407.5z"/>
	<path class="st2" d="M129.3,386.6c-4.9-3.6-10.6-3.3-16.2-3.2c-1.9,0-2.2,1.6-2.7,3c-2.6,6.7-2.7,14.2-0.2,20.9
		c-1.3-0.4-2.2-1.6-2.3-2.9c-0.5-7.3-0.9-14.6,2.3-21.6c1.9-4.3,1.1-9.2,1.3-13.7c0.5-12.6,4.6-24.2,9.3-35.6
		c0.5-1.2,1.5-2.2,2.8-2.6c-6.4,13.5-10.1,28-11,42.9c-0.2,3.7-0.3,6.1,4.8,5.6c4.7-0.4,9.3,1.3,13.9,2.6c1.6,1.1,2.6,3.1,4.9,2.9
		c-0.6,1.1-1,2.4-2.2,3L129.3,386.6z"/>
	<path class="st5" d="M129.3,386.6l4.5,1.2c0.2,1,0.5,1.9,0.8,2.8c-1.4,5-3.3,9.9-5.6,14.5v0c-2.1,0.8-3.1-0.8-4.2-2
		c-0.3-0.7-0.6-1.4-0.9-2.1c-2.5-3.4-4-2-4.5,1.2c-0.6,3.9-1.7,7.5-4.9,10.1l-1-0.1l-1.9-3c3.7-1.7,4.3-5.5,5.5-8.7
		c1.1-2.9,2.4-5,5.6-6C126.5,393.5,128.7,390.6,129.3,386.6z"/>
	<path class="st2" d="M114.5,412.4c3.2-2.6,4.2-6.2,4.9-10.1c0.5-3.2,2-4.6,4.5-1.2c-0.2,0.2-0.4,0.3-0.6,0.5
		c-1.7-0.1-2.9,0.4-2.9,2.4s0.5,3.9,2.9,4.5l0,0c0.7,1.1,2.7,1.9,1.2,3.5c-1.8,2-3.6,4.4-6.3,4.8S115.4,414.1,114.5,412.4z"/>
	<path class="st2" d="M128.9,405.2c2.4-4.6,4.3-9.5,5.6-14.5c2,4.5-1.7,7.9-2.3,11.8C131.9,404.3,130.9,405.4,128.9,405.2z"/>
	<path class="st2" d="M124.7,403.1c1.1,1.2,2.1,2.8,4.2,2c-0.5,3.4-3.4,2.8-5.7,3.2l0,0l0.9-4.9L124.7,403.1z"/>
	<path class="st2" d="M107.7,292.4c-0.1,0.4-0.2,0.7-0.3,1c-3-1.1-2.8-3.6-2.6-6.1L107.7,292.4z"/>
	<path class="st2" d="M145,404.4c1.8,1.4,1.2,3.2,0.7,5C145.1,407.8,143.3,406.3,145,404.4z"/>
	<path class="st2" d="M111.6,409.3l1.9,3c-3.2-0.1-4.1-1.9-3.3-4.8C110.7,408.1,111.1,408.7,111.6,409.3z"/>
	<path class="st2" d="M108.6,296.3l1.2,1.9C109,297.9,108.5,297.1,108.6,296.3z"/>
	<path class="st2" d="M107.6,294.2l1,2.1C107.9,295.9,107.5,295,107.6,294.2z"/>
	<path class="st2" d="M109.7,298.1l1,1.2L109.7,298.1z"/>
	<path class="st4" d="M264.8,247.5c-2.2,0.5-5,1.8-6-0.9c-1-3,2-4.6,4-6.3c3.3,0.1,5,1.8,5,5.1L264.8,247.5z"/>
	<path class="st2" d="M272.4,266.2c-3.5-1.9-8.5-2.1-8.2-7.9h3.9c2,5.8,4.8,0.6,7.2,0.6C275,261.5,270.9,262.7,272.4,266.2z"/>
	<path class="st4" d="M263,252.4l4-2.1c1.8-0.1,2.9-1.7,4.4-2.3l2.7,2.3C269.6,254.8,266.4,255.4,263,252.4z"/>
	<path class="st5" d="M267.8,245.4c-0.1-3.3-1.7-5-5-5.1l1.2-1.6v-0.1c1.8-0.6,3.7-0.5,5.5,0.1C271.7,241.7,270.9,243.8,267.8,245.4
		z"/>
	<path class="st4" d="M275.3,258.8c-2.4,0-5.3,5.3-7.2-0.6l2.6-1.1c0.8,0.1,1.6-0.3,2.1-0.9h-0.1
		C274.4,256.2,277.3,255.1,275.3,258.8L275.3,258.8z"/>
	<path class="st2" d="M275.3,258.8c2-3.7-0.9-2.5-2.6-2.6c1-1.6,1.8-3.7,4.3-3.2c1,0.2,1.5,1.1,1.5,2.2
		C278.6,257.5,277.2,258.4,275.3,258.8z"/>
	<path class="st5" d="M274.1,250.3l-2.7-2.3c1.1-0.9,1.8-3.7,3.7-2C276.4,247.1,276,249.2,274.1,250.3z"/>
	<path class="st2" d="M272.8,256.2c-0.5,0.7-1.3,1-2.1,0.9C271.1,256.4,271.9,256.1,272.8,256.2z"/>
	<path class="st2" d="M272.7,266.9c-0.3-0.2-0.4-0.4-0.4-0.7c0.2,0.1,0.4,0.3,0.6,0.4C272.9,266.6,272.8,266.8,272.7,266.9z"/>
	<path class="st2" d="M262.7,257.3l-1.2-1.1L262.7,257.3z"/>
	<path class="st3" d="M264.1,238.6L264.1,238.6c-0.3,0-0.6,0-0.8-0.1c-0.1,0-0.2-0.1-0.4-0.1c-0.6-0.2-1-0.4-1.4-0.7
		c-0.1-0.1-0.2-0.2-0.3-0.3c-0.1-0.1-0.1-0.2-0.1-0.2c0-0.1-0.1-0.2-0.1-0.3c-0.1-0.4-0.1-0.9,0.1-1.5c0-0.1,0.1-0.2,0.1-0.4
		c0.1-0.2,0.2-0.4,0.3-0.6c0-0.1,0.1-0.2,0.2-0.3c0.3,0.1,0.5,0.3,0.7,0.4c0,0,0,0,0,0c0.1,0.1,0.2,0.2,0.3,0.2
		c0.2,0.2,0.3,0.3,0.5,0.5c0.1,0.1,0.1,0.2,0.2,0.3c0,0.1,0.1,0.2,0.1,0.3c0,0,0,0,0,0c0,0.1,0.1,0.2,0.1,0.3
		c0.1,0.2,0.1,0.4,0.2,0.6c0.1,0.3,0.1,0.7,0.2,1C263.9,238,264,238.3,264.1,238.6z"/>
	<path class="st3" d="M220.6,244.3l0.8,2c-1.6,4.1-0.8,8,1.2,11.8c0,0.7-0.1,1.3-0.1,2c-2.6,4.3-5.7,8.4-4.6,13.9
		c-0.4,0.6-0.8,1.3-1.1,1.9c-5.7,0.4-7.4,4.1-7.8,9l-0.2-0.2l0.2,0.2c-3.9,0.4-7.8,0.7-7.6,6.1h-0.1l-1.3,0.8l0.1-0.1
		c-3.5-0.2-7.4-1.3-7.4,4.4l-0.3,0.1c-5.7-0.4-10.4,2.9-15.4,4.6c-8.3,2.8-16.5,4.1-25.3,3c-5-0.6-9.9-3.2-15.1-1.6l-0.4-0.2
		c2.6-7.3-2.9-1.4-4.1-2.5l0,0l-1.2-0.9l-1.7-1.3c-0.1-1.6-1.4-2.8-2.9-2.8v0c-0.4-2.9,2-5.9-0.5-8.7c-2.1-6.2-2.2-12.9-0.3-19.2
		c0.9-3,2.5-4.3,5.5-5.4c8.9-3,15.5-9,18.5-18.1c0.7-2.6,2.6-4.8,5.1-5.9c13.9-6.8,28.5-10.2,44-8.7c5.2,2.8,10.9,4.6,16.4,6.6H215
		l1,1.2l-0.1-0.1l1,1.2v-0.1c-0.1,1.8-0.1,3.5,2.3,3.7l0,0c-0.3,1-0.1,1.7,1,2h-0.1C220.1,243.4,220.4,243.8,220.6,244.3z"/>
	<path class="st2" d="M214.6,233.7l-0.9-1.1l-0.1-0.1l0.1,0.1c-9.8-9.4-21.8-12-34.8-10.6c-14.2,1.5-27.8,6.5-39.6,14.4
		c-6.5,4.1-12.1,9.6-16.3,16c-8.7,13.5-7.3,31.2,3.3,41.9c-0.4-2.9,2-6-0.5-8.7c-3.9-3.1-3.7-7.8-4.2-12c-1-8.4,1.9-16.9,7.9-22.9
		c17.2-17.9,38.1-26.4,63.1-24.1c2.1,0.1,4.2,0.7,6,1.8c5.2,2.8,10.9,4.6,16.4,6.6L214.6,233.7z M202.3,227.8
		c-0.2,0.1-0.6,0.4-0.7,0.4c-0.3-0.3-0.6-0.6-0.9-0.9c0.3-0.1,0.6-0.4,0.8-0.4C202,226.8,202.5,227.1,202.3,227.8L202.3,227.8z"/>
	<path class="st2" d="M136.6,302c5.2-1.6,10.1,1,15.1,1.6c8.8,1.1,17-0.2,25.3-3c5.1-1.7,9.7-5,15.4-4.6c-14.6,7.6-29.9,12-46.6,9.2
		C142.6,304.5,139.4,303.9,136.6,302z"/>
	<path class="st2" d="M132.1,299.3c1.2,1.1,6.7-4.8,4.1,2.5C134.7,301.4,133.2,300.5,132.1,299.3z"/>
	<path class="st2" d="M126.3,294.4c1.6,0,2.8,1.3,2.9,2.8C128,296.6,126.9,295.6,126.3,294.4z"/>
	<path class="st2" d="M130.9,298.4l1.2,0.9L130.9,298.4z"/>
	<path class="st2" d="M217.9,273.9c-1.1-5.5,2-9.6,4.6-13.9C222.4,265,220.8,269.8,217.9,273.9z"/>
	<path class="st2" d="M209,284.8c0.4-4.9,2.1-8.7,7.8-9C215,279.4,212.3,282.5,209,284.8z"/>
	<path class="st2" d="M222.6,258c-2-3.8-2.9-7.6-1.2-11.8C223,250,223.4,254.1,222.6,258z"/>
	<path class="st2" d="M201.4,290.9c-0.2-5.4,3.7-5.7,7.6-6.1C206.9,287.3,204.3,289.4,201.4,290.9z"/>
	<path class="st2" d="M192.7,296c0-5.6,3.9-4.6,7.4-4.4C198.1,293.7,195.3,294.8,192.7,296z"/>
	<path class="st2" d="M219.1,241c-2.4-0.2-2.4-1.9-2.3-3.7C217.8,238.3,218.6,239.6,219.1,241z"/>
	<path class="st2" d="M220.1,243c-1.2-0.2-1.3-1-1-2C219.4,241.7,219.7,242.3,220.1,243z"/>
	<path class="st2" d="M200,291.7l1.3-0.8L200,291.7z"/>
	<path class="st2" d="M216,236.2l-1-1.2L216,236.2z"/>
	<path class="st2" d="M216.8,237.3l-1-1.2L216.8,237.3z"/>
	<path class="st4" d="M214.6,233.7c-0.3-0.4-0.7-0.8-1-1.2L214.6,233.7z"/>
	<path class="st2" d="M220.6,244.3c-0.2-0.4-0.4-0.9-0.7-1.3C220.1,243.4,220.4,243.8,220.6,244.3z"/>
	<path class="st2" d="M214.6,363c2.9,2.4,2.6,5.6,1.5,8.5c-0.9,2.5-3.7,1.3-5.7,1.5c-2.9,0.3-3.5-1.8-3.7-4.1
		C205.7,362.3,210.7,363.3,214.6,363z"/>
	<path class="st2" d="M202.9,371c-2.6,4.2-6.1,3.2-9.7,1.9c-0.1-1-0.3-1.9-0.4-2.9c-0.1-2.6-1.1-5.6,3.3-6c4-0.3,6.8,0.2,6.4,5.1
		C202.6,369.7,202.7,370.4,202.9,371z"/>
	<path class="st2" d="M215.8,358.2c-0.3,0.1-0.4,0.4-0.2,0.7c0,0,0,0,0,0c-7.5,2.3-9.3,1.4-9.6-4.3c-0.2-3.6,1.6-4.4,4.7-4.5
		s5.6,0.1,5.2,4.2C215.7,355.6,215.8,356.9,215.8,358.2z"/>
	<path class="st2" d="M196.8,360.4c-4.4,0.8-4.5-1.8-4.8-4.9c-0.5-5,2.8-4.6,5.9-4.9c3.9-0.3,3.8,2.3,4.1,5.1
		C202.3,360.1,200,360.8,196.8,360.4z"/>
	<path class="st2" d="M123.8,401c0.3,0.7,0.6,1.4,0.9,2.1l-0.5,0.4l-1-2C123.4,401.3,123.6,401.2,123.8,401z"/>
	<path class="st3" d="M123.3,401.5l1,2l-0.9,4.9c-2.4-0.5-2.8-2.4-2.9-4.5S121.6,401.5,123.3,401.5z"/>
	<path class="st5" d="M125.8,285.6c-3.9-3.1-3.7-7.8-4.2-12c-1-8.5,2-16.9,8-22.9c17.2-17.9,38.1-26.4,63.1-24.1
		c2.1,0.1,4.2,0.7,6,1.8c-15.5-1.5-30.1,1.9-44,8.7c-2.5,1.1-4.4,3.3-5.1,5.9c-3,9-9.6,15-18.5,18.1c-3,1-4.6,2.4-5.5,5.4
		C123.6,272.6,123.7,279.4,125.8,285.6z"/>
	<path class="st3" d="M202.3,227.7c-0.2,0.1-0.6,0.4-0.7,0.4c-0.3-0.3-0.6-0.6-0.9-0.9c0.3-0.1,0.6-0.4,0.8-0.4
		C202,226.8,202.5,227.1,202.3,227.7z"/>
	<path class="st8" d="M211.4,43.5c0,0.8,0.6,1.2,1.1,1.8s1,1.1,0.1,1.8c-2.5-1.8-4.9-1.5-5.9,0.8c-0.3,0.9-0.5,1.8-0.6,2.7
		c-1.4-0.2-1.8-1.7-3-2.2c0-1.5,0.2-3,0.6-4.4c0.6-0.6,1.2-1.2,1.9-1.8c2-2,2-2-0.2-3.9c1-3.3,2.7-6.4,4.8-9.2
		c1.1,1.1,2.7,1.8,3.1,3.5c-4.2,2.2-5.5,7-2.6,10c-0.1,0.4,0.2,0.8,0.6,0.9C211.3,43.6,211.4,43.6,211.4,43.5L211.4,43.5z"/>
	<path class="st9" d="M203.1,48.3c1.2,0.5,1.6,2,3,2.2c0,0.4,0.1,0.9,0.1,1.3c0.1,3.7,1.6,4.9,5.2,4.1c0.5,1.3,2.4,2.1,1.8,3.9
		c-3.4-1-4.8-0.1-5.6,3.4c-1.5-0.6-2-2.8-4-2.6C202.5,56.5,202.4,52.4,203.1,48.3z"/>
	<path class="st10" d="M213.5,60.2c0.2-0.2,0.6-0.5,0.7-0.4c2.2,1.2,3.7,3.2,5.3,5c0.3,0.3-0.2,0.8-0.5,1.1
		c-0.6,0.6-1.2,1.2-1.8,1.8c-2.1,1.9-4.1,3.9-6,6c-0.5,0.6-1.2,1.1-2,1.3c-1.6-2.1-2.7-4.5-3.5-7c0.9-0.6,1.5-1.7,2.7-1.8
		c0.2,0.4,0.4,0.9,0.7,1.3c1,1.9,2.8,2.6,4.5,1.9c1.8-0.7,2.7-2.7,2-4.5c0,0,0,0,0,0C215,63.3,214.7,61.6,213.5,60.2z"/>
	<path class="st9" d="M218.1,80.6c-1,0.5-1.8,1.3-2.4,2.3c-2.2-1.9-4.1-4.1-5.6-6.6c1.2-1.2,2.3-2.5,3.5-3.7
		c0.4-0.4,0.8-0.9,1.3-0.1c-1.4,2-1,3.8,0.6,5.5L218.1,80.6z"/>
	<path class="st11" d="M208.4,66.2c-1.2,0.1-1.8,1.2-2.7,1.8c-1.2-2.3-1.9-4.8-2.1-7.4c2-0.1,2.4,2,4,2.6
		C207.8,64.2,208.1,65.2,208.4,66.2z"/>
	<path class="st9" d="M205.3,38.3c2.2,1.9,2.2,1.9,0.2,3.9c-0.6,0.6-1.2,1.2-1.9,1.8C204,42,204.5,40.1,205.3,38.3z"/>
	<path class="st12" d="M212.2,55.2c1.5-2.3,0.9-4.9,0.9-7.3c0.4-0.5,1.1-0.6,1.6-0.3c0.1,0,0.1,0.1,0.2,0.1c1.5,1.4,2.9,2.8,4.3,4.3
		c0.6,0.5,0.1,0.9-0.3,1.2l-2.9,3C214.1,58,213.4,57.8,212.2,55.2z"/>
	<path class="st9" d="M211.4,42.9c2,0.3,3.8-0.9,4.4-2.8c0.4-0.8,0.8-1.5,1.2-2.3c2.8,2.2,2.8,2.3,0.4,4.7c-0.4,0.4-0.7,0.7-1.1,1.1
		c-1.3,1.5-2.5,2.6-4,0.2c-0.1-0.2-0.7-0.1-1-0.2l0,0L211.4,42.9z"/>
	<path class="st11" d="M211.4,42.9v0.6c-0.4,0-0.8-0.3-0.9-0.7c0-0.1,0-0.1,0-0.2L211.4,42.9z"/>
	<path class="st11" d="M236.7,93.7l-1.4-0.2c-0.1-0.1-0.2-0.1-0.4-0.2l0,0c-0.4-2.4-1.1-2.8-3.3-1.9c-0.3,0.1-0.7,0.1-1,0.1
		c0-1.2,1.6-1.7,1.3-3c1.5-0.5,2.6-1.7,3-3.2c1.4,1.1,1.6-0.6,2.3-1c0.4-0.3,1.1-0.8,0.6-1.4c-1.4-1.7-2.9-3.2-4.6-4.6
		c-1.2-0.9-1.6,1.4-2.8,1.4h-0.2c0.1-0.3,0.1-0.8,0.4-1c1.8-1.3,1.1-2.4-0.2-3.5l-1-0.8l0.4-0.8l1.3,0.2c0,1.2,0.7,2.2,1.7,2.2
		c1.2-0.2,2.1-1.1,2.2-2.3h1.3c-0.2,0.8-0.7,1.5-1.4,1.9c-1.4,1.1-1.1,1.9,0.1,3.1c4,3.9,3.9,3.9,7.9,0c1.2-1.2,1.5-2,0.1-3.1
		c-0.7-0.4-1.2-1.1-1.4-1.9c0.6-0.2,1.2-0.1,1.7,0.1c0,1.2,0.7,2.2,1.7,2.2c1.2-0.2,2.1-1.1,2.3-2.3h1.3c0.1,1-0.5,1.6-1.2,2.2
		c-1.1,1-1.1,1.8,0,2.8c3.8,3.9,3.8,4,7.5,0.2c0.3-0.2,0.5-0.5,0.8-0.8c0.9-0.7,0.8-1.3,0-2.1c-0.8-0.8-1.9-1.3-1.8-2.6h0.1v0.1
		c0.3,0,0.6,0.1,0.8,0.2c1.2,0.4,1.6,2.5,3.1,1.8c1.1-0.5,1.9-1.7,2.9-2.6c0.2-0.2,0.4-0.4,0.6-0.6c1.3-1.1,1.3-2.1-0.4-3.1l0.9-1
		c0.7,1.2,1.4,2,2.9,0.7c4.1-3.8,4.3-4,2.8-5.6c-0.1-0.1-0.2-0.2-0.3-0.3c-0.5-0.7-1.5-1-1.2-2.1c0.9,0.1,1.3,0.9,1.8,1.4
		c1.2,1.4,2.1,1.6,3.5,0.1c4.3-4.7,4.5-2.8-0.4-8c-0.9-0.9-1.5-0.8-2.3,0s-1.5,2.2-3.1,2.2v-1.3c1.1-0.1,1.5-1,2.2-1.6
		s1.2-1.2,0.4-2s-1.3-1.9-2.6-2.1v-1.3c1.3,0.2,1.9,1.3,2.6,2.1c1,1,1.7,1.2,2.7,0.1c4.9-5.2,4.9-3.2,0-8.4
		c-0.4-0.7-1.4-0.9-2.1-0.5c-0.2,0.1-0.4,0.3-0.5,0.5c-0.6,0.6-1.1,1.6-2.3,1.6c0.2-1.8,3.1-2.2,2.2-4c-0.7-1.4-2.3-2.4-3.4-3.7
		c-1.5-1.8-2.3-0.1-3.4,0.4l-0.5-0.2c1.6-1.5,1.5-2.9-0.3-4.2c-0.8-0.7-1.6-1.5-2.3-2.3c-0.5-0.5-1.1-0.9-1.7-0.3
		c-0.9,0.8-2,1.4-2.2,2.8c-0.6,0-1.3-0.1-1.8-0.5c1-0.9,1.9-1.8,2.9-2.6c1-0.9,0.8-1.5,0-2.4c-4-4.5-4.8-4.5-8.7,0.1
		c-0.6,0.5-0.7,1.4-0.2,2c0.1,0.1,0.1,0.2,0.2,0.2c0.7,0.8,1.8,1.3,2,2.5h-1.3c-0.3-1.3-1.2-2.4-2.4-2.4s-2.1,1.1-2.4,2.4h-1.3
		c-0.1-1.1,0.6-1.8,1.4-2.3c1.4-1.1,1.2-2.1-0.1-3.1c-0.3-0.2-0.5-0.5-0.8-0.8c-3.1-3.1-3.1-3.1-6.3,0c-2.3,2.3-2.3,2.3-0.1,4.6
		c0.4,0.5,1,0.8,1.1,1.6h-1.3c-0.4-1.4-1.4-2.7-2.7-2.7c-1,0-2.1,1.2-2.1,2.6l-2.1,0.7c0-0.6,0.2-1.2,0.7-1.5c3-3.4,3-3.4-0.4-6.5
		c-0.2-0.2-0.5-0.3-0.7-0.5c-0.9-1.3-1.8-1.1-2.9-0.2l-0.3-0.4c0.8-1,1-1.9-0.2-2.8c-0.9-0.9-1.8-1.8-2.7-2.7l0.4-0.2
		c1.2,0.1,1.7,1.2,2.5,1.9s1.3,1.8,2.6,1.6c0.3,1.4,1.3,2.6,2.7,3.1c1.6,3.3,2.4,3.4,4.8,1c2-2,3.8-4.3,6.1-5.9l0.5,0.9
		c-0.7,0.7-2.5,1.1-1.2,2.5c1.4,1.6,2.8,4.2,4.7,4.1s3.1-2.7,4.7-4.2c0.6-0.6,0.4-1-0.4-1.1l1.2-0.9c0.9,0.1,1.7-0.3,2.3-1
		c0.6-0.6,1.1-1.5,2.2-1.6l0.1,0.1l-0.9,1.6c-2.6,2.7-2.1,2,0,4.2c0.5,0.6,1.1,1.1,1.7,1.7c1.8,1.8,1.8,1.8,3.5-0.3l2.1,0.2
		c-3.4,1.5-3.5,2.2-1,4.7c0.4,0.3,0.7,0.7,1.1,1.1c2.3,2.3,2.3,2.3,4.4-0.1c0.2-0.2,0.3-0.5,0.5-0.7l0.9,0.9c-3.2,2.4-3.2,2.4-0.6,5
		c3.1,3.1,3.1,3.1,6.2,0c0.9-0.9,2.4-1.7,1.2-3.4l0.5-0.7c0.8,1,1.6,0.9,2.5,0c0.6-0.6,1-1.5,2.3-1.6c-0.5,1.9-3.7,2.7-1.7,5.1
		c-1.6-0.2-3.2,0.5-4.1,1.8l-0.3,0.4l0,0c-1.3,0.4-2.9,1.1-2.2,2.6c0.5,1.4,1.7,2.4,3.1,2.6l0,0l0.3,0.5l0.1,0.5l0.3,0.4
		c0.5,0.7,1.2,1.2,2,1.5c0.6,1.4,1.6,2.6,3,3.2l-1.7,0.1c-2.3-1.9-2.3-1.9-4.4,0.2c-0.8,0.8-1.6,1.7-2.5,2.5
		c-0.4,0.4-0.8,0.8-0.3,1.3c1.5,1.3,2.4,3.3,4.5,3.9c0.7,1,1.5,1.9,2.6,2.5c0.4,2,2.1,3.1,3.5,4.1c1.1,0.8,1.7-1.2,2.7-1.6
		c0.3-0.1,0.5-0.1,0.8-0.2c-0.1,1.5-0.5,3-1.2,4.4c-1.3-0.2-2.6-0.4-3.7,0.4l-0.1-1.7c0.8-0.7,0.2-0.8-0.4-0.9l0,0l-0.4-0.5l0,0
		l-0.5-0.4l-0.5-0.3c-1-3.2-2.4-3.6-4.6-1.4l-1.6,1.8c-1.8,1.8-1.8,1.8,0.3,3.5l-0.5,0.9c-2.4-1.8-2.4-1.8-4.5,0.3l-0.3,0.3
		c-3.1,3.1-3.1,3.1,0.4,5.9l-0.8,0.5c-1.4-0.5-1.9-2.8-3.3-2.4s-2.2,1.9-3.3,3c-0.4,0.4-0.8,0.8-1.2,1.2s-0.7,0.9-0.2,1.3
		c1.7,1.4,2.7,3.5,5,4.3l0.8,0.7c-0.1,1.1,0.8,1.5,1.3,2.1s1.7,1.2,1.7,2.4l0,0c-0.8,0.1-1.6-0.3-2-1c-1.1-1.6-2.5-2-4.1-0.8v-0.9
		c0.2-0.1,0.4-0.2,0.5-0.4c0.7-0.9,0.1-1.5-0.5-2c-1.6-1.1-2.4-3.9-4.5-3.4c-1.8,0.5-3.1,2.1-3.3,3.9c-1.1,0.4-2,1.3-2.5,2.3
		c-1.5-0.2-1.8,1.7-3.2,1.7l-0.1-0.6c0.2-0.6,0.6-1.2,1.2-1.5c1.3-1,1.1-1.8-0.1-2.7c-0.3-0.3-0.6-0.6-0.9-0.9
		c-3.3-3.2-2.5-3.3-5.7,0c-0.7,0.7-2.2,1.3-1.9,2.4c0.2,0.9,1.7,0,2.5,0.6l0.2,0.1c-2.2,0-4.4-0.2-5.5,2.3c-1.1-0.1-1.6,0.9-2.3,1.4
		c-1.6,1.2-1.7,2.3-0.1,3.6C236.3,91.9,236.8,92.8,236.7,93.7z"/>
	<path class="st9" d="M255.1,17.7c-1.1,0.1-1.6,1-2.2,1.6c-0.5,0.7-1.4,1.1-2.3,1c0.9-1.5,1.3-3.1,0-4.6c-1.1-1.4-5.4-2.1-7.4-1.2
		s-2.4,2.6-2.1,4.5c-2.3,1.7-4.1,4-6.1,5.9c-2.4,2.4-3.2,2.2-4.8-1c2.9-0.4,5.9-0.6,7.6-3.6l0.2-0.5c0.1-2.2-1.6-4.1-3.8-4.2
		c0-1.8,2.3-2.2,2.5-4c5.8-1.4,11.8-1.2,17.5,0.4c0,0.5-0.1,1.1,0.4,1.4C256.5,14.7,256.3,16.1,255.1,17.7z"/>
	<path class="st11" d="M210.1,76.3l-0.9-1.3c0.8-0.3,1.5-0.7,2-1.3c1.9-2.1,3.9-4.1,6-6c0.6-0.6,1.2-1.2,1.8-1.8
		c0.3-0.3,0.8-0.7,0.5-1.1c-1.6-1.8-3.1-3.8-5.3-5c-0.1-0.1-0.4,0.3-0.7,0.4l-0.4-0.4c0.6-1.8-1.3-2.6-1.8-3.9l0.9-0.7
		c1.1,2.6,1.9,2.8,3.8,1l2.9-2.9c0.4-0.3,0.9-0.7,0.3-1.2c-1.4-1.4-2.9-2.9-4.3-4.3c-0.4-0.4-1.2-0.5-1.6,0c0,0-0.1,0.1-0.1,0.2
		l-0.5-0.8c0.9-0.6,0.4-1.2-0.1-1.8s-1.1-0.9-1.1-1.8c0.3,0.1,0.9,0,1,0.2c1.5,2.4,2.7,1.3,4-0.2c0.3-0.4,0.7-0.7,1.1-1.1
		c2.4-2.4,2.4-2.5-0.4-4.7l0.2-2.1c1.9,3.6,3.2,3.8,6,1l2-2c0.5-0.5,0.7-1,0.1-1.5c-1-0.9-1.6-2.3-3.2-2.5l0.9-0.9
		c1.7,0.8,2.3,3.2,4.6,3.1l-0.8,2.2c-2.6,0.5-3.6,3-5.4,4.5c-0.1,0.3-0.1,0.5,0.1,0.8c1.7,1.6,3,3.7,5.3,4.8c0.2,4.6,0.5,4-3,3.8
		c-0.1-0.5,0.1-1,0.4-1.4c1.3-1.1,0.8-1.9-0.2-2.9c-4.2-4.3-4.6-4.2-8.4,0.5c-0.6,0.8-0.7,1.4,0,2.1c1.4,1.3,2.6,2.9,4.3,4v2.5
		c-0.7,0.6-1.4,1.2-2.1,1.9c-3,3-3,3,0,6c2.5,2.5,2.5,2.5,4.9,0.1c2.6-2.6,2.6-2.6,1.1-5.6c3.1-0.2,3.1-0.2,3,2.7
		c0,0.2,0,0.4-0.1,0.7c-2.2,1.1-3.5,3.2-5.3,4.8c-0.2,0.2-0.2,0.5-0.1,0.8c1.8,1.5,2.8,4,5.4,4.5c0.1,0.7,0.1,1.4,0.2,2.1
		c-0.6,0-1.2,0.4-1.4,0.9c-0.7,0.4-1.3,1-1.7,1.8c-0.6,0.2-0.9,0.7-0.9,1.3l-0.9-1.3c4.2-3.2,4.2-3.2,0.6-6.8
		c-0.5-0.5-0.9-0.9-1.4-1.4s-1.1-0.7-1.7-0.1c-1.3,1.3-2.6,2.6-3.9,3.9c-0.6,0.6-0.7,1.1,0.4,1.3l-1.4,0.9c-0.5-0.8-1-0.3-1.3,0.1
		C212.4,73.8,211.2,75,210.1,76.3z"/>
	<path class="st9" d="M285.3,61.9c-0.3,0-0.6,0.1-0.8,0.2c-1,0.4-1.5,2.4-2.7,1.6c-1.5-1-3.1-2.1-3.5-4.1c2.7,0.1,4.4-0.8,4.6-3.1
		c0.4-3.9,0.8-6.3-2.9-7.3c-1.4-0.7-2.4-1.8-3-3.2c1.8,0.4,3.7-0.6,4.4-2.3c0.4-1.7,0.9-2.8,2.5-0.8c0.3,0.4,0.9,0.3,1.4,0.3
		C287,49.2,287,55.7,285.3,61.9z"/>
	<path class="st10" d="M213.1,32.6c-0.4-1.8-2-2.4-3.1-3.5c3-4.7,7.1-8.7,11.9-11.6c0.8,1,1.7,1.9,2.7,2.7c1.2,1,1,1.8,0.2,2.8
		c-3.1-1.5-7.8,0.8-8.6,4.3c-0.2,1,0.1,2.1,0.7,2.8c0.3,0.5,1,0.7,0.9,1.4c-0.1,1.3-1.4,1-2.1,1.5L213.1,32.6z"/>
	<path class="st9" d="M267.8,87.2c-0.1-1.2-1.1-1.7-1.7-2.4s-1.4-1.1-1.3-2.1c2.8,1,4.7,0.2,7.3-3c1.4-1.8,1-3.5-0.3-5.1
		c0.3-0.8,1.4-1.3,1.4-2.3c1.4,0.3,2.9,0.7,4.3,0c0.1,1.5,1.8,2,2.2,3.2C276.6,80.3,272.9,84.5,267.8,87.2z"/>
	<path class="st10" d="M277.8,35.6c-2-2.4,1.2-3.2,1.7-5.1c-1.3,0.1-1.7,1-2.3,1.6c-0.9,1-1.6,1-2.5,0c1.2-2.7-0.8-4.3-2.2-6
		c0.5-0.9,1.3-1.7,2.3-2.3c3.9,3.8,6.9,8.4,8.7,13.6c-0.4,2.5-1.8,1.3-3.1,0.9C279.9,37.1,278.9,36.2,277.8,35.6z"/>
	<path class="st8" d="M236.7,93.7c0.1-1-0.5-1.9-1.3-2.3c-1.6-1.3-1.5-2.4,0.1-3.6c0.7-0.6,1.2-1.6,2.3-1.4c-0.4,2,0.2,3.7,2.1,4.3
		c2.4,0.8,5,1.1,7.3-0.4c0.1,1.8,2.4,2.2,2.6,3.9C245.5,94.9,241,94.8,236.7,93.7z"/>
	<path class="st10" d="M221.8,87.7c-2.3-1.2-4.4-2.9-6.1-4.8c0.6-1,1.4-1.8,2.3-2.3c1.8,0.8,3.9,0.3,5-1.3c1.2-0.1,1.6,1.4,2.8,1.4
		c-0.9,0.9-1.3,2.1-1.4,3.4C224.3,85.8,222.5,86.3,221.8,87.7z"/>
	<path class="st9" d="M274.8,23.8c-0.9,0.5-1.7,1.3-2.3,2.3c-2.7-2.2-3.5-2.3-6.1-0.5c-0.6-0.9-1.3-1.6-2.2-2.2l0.4-2
		c1.4-0.9,2.1-2.8,4.1-2.8C271,20,273.1,21.7,274.8,23.8z"/>
	<path class="st13" d="M249.8,94.1c-0.2-1.7-2.5-2.1-2.6-3.9c0.7-1,1-2.2,1-3.4c1.4,0,1.7-1.9,3.2-1.7c-0.2,3.1,0.9,4.4,4,4.7
		c0.8,0.8-0.1,1.2-0.5,1.8s-1.2,1-1.1,2c-0.5,0.3-1.1,0.4-1.7,0.4c-0.5,0-1-0.1-1.4,0.3L249.8,94.1z"/>
	<path class="st9" d="M227.5,20.8c-1.3,0.2-1.8-0.9-2.6-1.6s-1.3-1.8-2.5-1.9c2.5-1.8,5.3-3.2,8.2-4l1.8,2.7
		C230.2,17.1,227.6,17.6,227.5,20.8z"/>
	<path class="st10" d="M261.6,85.4c1.6-1.1,3-0.8,4.1,0.8c0.4,0.7,1.2,1.1,2,1c-2.3,2-5,3.5-7.9,4.3c-0.6-0.9-1.2-1.8-1.9-2.7
		C259.6,88.2,261.1,87.3,261.6,85.4z"/>
	<path class="st8" d="M221.8,87.7c0.6-1.4,2.5-1.9,2.7-3.7c1.4,3.3,4.3,4,7.4,4.5c0.3,1.3-1.3,1.8-1.3,3l-0.4,0.3
		C227.2,91,224.4,89.6,221.8,87.7z"/>
	<path class="st8" d="M268.7,18.6c-2,0-2.7,1.9-4.1,2.8c-0.8-2.9-3.6-3.2-5.6-4.5c-0.8-1.2,0.4-2.2,0.5-3.3
		C262.8,14.7,266,16.4,268.7,18.6z"/>
	<path class="st8" d="M279.6,75.5c-0.5-1.2-2.1-1.7-2.2-3.2c1.6-1.6,2.2-3.7,3.1-5.6c1.2-0.8,2.5-0.6,3.7-0.4
		C283.2,69.6,281.7,72.7,279.6,75.5z"/>
	<path class="st11" d="M259.5,13.6c0,1.1-1.2,2.1-0.5,3.3c-1.4-0.2-2.7,0.2-3.8,1l-0.1-0.1c1.2-1.6,1.4-3-0.5-4.3
		c-0.5-0.3-0.4-0.9-0.4-1.4C256,12.2,257.8,12.7,259.5,13.6z"/>
	<path class="st11" d="M258,88.9c0.6,0.9,1.2,1.8,1.9,2.7c-1.9,1-3.9,1.6-6.1,1.9c-0.1-0.9,0.6-1.3,1.1-2s1.2-0.9,0.5-1.8
		C256.2,89.3,257.1,89,258,88.9z"/>
	<path class="st11" d="M232.4,16l-1.8-2.7c1.9-1,4-1.5,6.1-1.7c-0.2,1.7-2.5,2.1-2.5,4L232.4,16z"/>
	<path class="st11" d="M280.4,38.3c1.2,0.4,2.7,1.6,3.1-0.9c0.9,1.8,1.5,3.7,1.8,5.7c-0.5,0-1.1,0.1-1.4-0.3c-1.6-2-2.1-0.8-2.5,0.8
		C281.7,41.6,280.8,40,280.4,38.3z"/>
	<path class="st9" d="M230.2,91.9l0.4-0.3c0.3,0,0.7-0.1,1-0.1c2.2-0.9,2.9-0.5,3.3,1.9C233.3,93.2,231.7,92.7,230.2,91.9z"/>
	<path class="st13" d="M265.7,48.3c0.1-4.3-1.3-8.5-4.1-11.8c1.1-0.6,2-2.2,3.4-0.4c1,1.3,2.7,2.2,3.4,3.7c0.9,1.8-2,2.2-2.2,4
		c1.2,0,1.7-1,2.3-1.6c0.4-0.7,1.4-0.9,2.1-0.5c0.2,0.1,0.4,0.3,0.5,0.5c4.9,5.2,4.9,3.2,0,8.4c-1,1.1-1.8,0.9-2.7-0.1
		C267.5,49.6,266.9,48.5,265.7,48.3z"/>
	<path class="st13" d="M262,68.3c2.6-3.3,3.9-7.5,3.7-11.7c1.6,0.1,2.2-1.3,3.1-2.2s1.4-1,2.3,0c4.9,5.1,4.7,3.3,0.4,7.9
		c-1.4,1.5-2.3,1.3-3.5-0.1c-0.5-0.6-0.9-1.3-1.8-1.4c-0.2,1.2,0.8,1.5,1.2,2.1c0.1,0.1,0.2,0.2,0.3,0.3c1.5,1.6,1.3,1.9-2.8,5.6
		C263.4,70.2,262.7,69.5,262,68.3z"/>
	<path class="st14" d="M241.5,31.6h-4.8c0-0.7-0.6-1.1-1.1-1.6c-2.2-2.3-2.2-2.3,0.1-4.6c3.1-3.1,3.1-3.1,6.3,0
		c0.3,0.2,0.5,0.5,0.8,0.8c1.3,1,1.5,2,0.1,3.1C242.2,29.8,241.4,30.5,241.5,31.6z"/>
	<path class="st14" d="M252.8,31.8l-3.8-0.2c-0.2-1.2-1.2-1.7-2-2.5c-0.6-0.5-0.7-1.4-0.2-2c0.1-0.1,0.1-0.2,0.2-0.2
		c3.9-4.6,4.6-4.6,8.7-0.1c0.8,0.9,0.9,1.6,0,2.4C254.7,30,253.8,30.9,252.8,31.8z"/>
	<path class="st14" d="M236.3,73.8h5.2c0.2,0.8,0.7,1.5,1.4,1.9c1.5,1.1,1.1,1.9-0.1,3.1c-4,3.9-3.9,3.9-7.9,0
		c-1.2-1.2-1.5-2-0.1-3.1C235.6,75.3,236.2,74.6,236.3,73.8z"/>
	<path class="st14" d="M253.6,73.6c0-0.1,0.1-0.1,0.2-0.1c-0.1,1.3,1,1.8,1.8,2.6c0.8,0.7,0.9,1.4,0,2.1c-0.3,0.2-0.5,0.5-0.8,0.8
		c-3.8,3.8-3.7,3.8-7.5-0.2c-1.1-1.1-1.1-1.9,0-2.8c0.7-0.6,1.3-1.2,1.2-2.2l4.2-0.2L253.6,73.6z"/>
	<path class="st12" d="M223.1,29.9c0.7-1.1,2-1.6,2.5-2.9c0.4-1.2,0.2-2.5-0.4-3.5c1-0.9,2-1,2.9,0.2c0.1,0.2,0.4,0.4,0.7,0.5
		c3.4,3.1,3.4,3.1,0.4,6.5c-0.5,0.4-0.7,0.9-0.7,1.5l-0.8,0.8C225.4,33.1,224.8,30.7,223.1,29.9z"/>
	<path class="st14" d="M229.7,80.2c-1.2-0.6-2.7-0.4-3.8,0.4c-1.2,0.1-1.6-1.4-2.8-1.4c0.9-0.7,0.3-1.6,0.5-2.4l0.5-2.3
		c0.4-0.7,1-1.3,1.7-1.8h2.2l0,0c-0.1,1,0.1,1.7,1.3,1.8l1,0.8c1.4,1.1,2.1,2.2,0.2,3.5c-0.2,0.2-0.3,0.6-0.4,1v0.4H229.7z"/>
	<path class="st13" d="M261.6,25.3c1.1-0.3,2-1,2.6-1.9c0.9,0.5,1.6,1.3,2.2,2.2c-1,1.4-1,3.3,0.1,4.7c-0.1,0.3-0.3,0.5-0.5,0.7
		c-2.1,2.3-2.1,2.3-4.4,0.1c-0.4-0.4-0.7-0.7-1.1-1.1C258.1,27.5,258.2,26.8,261.6,25.3z"/>
	<path class="st14" d="M272,70.1l1,2.2c0,1.1-1,1.5-1.4,2.3c-1.1-0.8-2.6-1-3.9-0.5c-3.6-2.8-3.6-2.8-0.4-5.9l0.3-0.3
		c2.1-2.1,2.1-2.1,4.5-0.3L272,68C271.5,68.6,271.5,69.5,272,70.1z"/>
	<path class="st12" d="M267.4,31.2c0.5,0.5,1.1,1.1,1.6,1.6c1.7,1.6,3.5,1.2,5.2,0c1.1,1.7-0.3,2.5-1.2,3.4c-3.1,3.1-3.1,3.1-6.2,0
		C264.2,33.6,264.2,33.6,267.4,31.2z"/>
	<path class="st14" d="M248,86.1c-1.1-1.5-2.9-2.3-4.8-2.1l-0.1-0.1c-0.8-0.6-2.3,0.3-2.5-0.6c-0.3-1.1,1.1-1.7,1.9-2.4
		c3.2-3.2,2.4-3.2,5.7,0c0.3,0.3,0.6,0.7,0.9,0.9c1.1,0.9,1.4,1.8,0.1,2.7C248.6,84.9,248.2,85.5,248,86.1z"/>
	<path class="st12" d="M267,74.6c-0.6,0.7-1.2,1.3-1.9,1.9c-2,1.5-2.3,3.4-1.2,5.6c-2.3-0.7-3.3-2.9-5-4.3c-0.5-0.4-0.2-0.9,0.2-1.3
		s0.8-0.8,1.2-1.2c1.1-1,2-2.6,3.3-3S265.6,74.1,267,74.6z"/>
	<path class="st10" d="M241.6,19.9c2.3,2.1,5.1,1.3,7.7,1.3c0.8,0.1,1.1,0.5,0.4,1.1c-1.6,1.5-2.8,4.1-4.7,4.2s-3.3-2.6-4.7-4.1
		C239.1,21,240.9,20.6,241.6,19.9z"/>
	<path class="st13" d="M278.3,49.2c-3,1.9-2.8,4.9-2.6,7.8c-2.1-0.6-3.1-2.6-4.5-3.9c-0.5-0.5-0.1-0.9,0.3-1.3
		c0.8-0.8,1.6-1.7,2.5-2.5C275.9,47.3,275.9,47.3,278.3,49.2z"/>
	<path class="st12" d="M261.1,36.2c-1.9-1.7-4.1-3-6.5-4c0.2-1.4,1.4-2,2.2-2.8c0.6-0.6,1.2-0.2,1.7,0.3c0.7,0.8,1.5,1.6,2.3,2.3
		C262.6,33.3,262.8,34.6,261.1,36.2z"/>
	<path class="st12" d="M230.1,80.2v-0.4h0.2c1.2,0,1.6-2.2,2.8-1.4c1.7,1.4,3.2,2.9,4.6,4.6c0.5,0.6-0.2,1.1-0.6,1.4
		c-0.7,0.4-0.9,2.1-2.3,1c-0.1-3.1-2.6-3.6-4.7-4.7V80.2z"/>
	<path class="st12" d="M254,73.6c2.4-1.4,5.1-2.4,7.1-4.4c1.7,0.9,1.7,1.9,0.3,3.1c-0.2,0.2-0.4,0.4-0.6,0.6
		c-0.9,0.9-1.7,2.1-2.9,2.6c-1.5,0.7-1.9-1.4-3.1-1.8C254.5,73.7,254.3,73.6,254,73.6z"/>
	<path class="st8" d="M278.6,62.9c-3.6-1.2-4.8,1.4-6,3.8c-2.1-1.7-2.1-1.7-0.3-3.5l1.7-1.7C276.3,59.2,277.6,59.7,278.6,62.9z"/>
	<path class="st10" d="M261.6,84.6c-1.4-3.2-2.7-3.7-6-2.5c-0.6,0.2-1.2,0.4-1.9,0.6c0.2-1.9,1.6-3.4,3.3-3.9c2.2-0.5,3,2.3,4.5,3.4
		c0.6,0.5,1.2,1.1,0.5,2C262,84.4,261.8,84.5,261.6,84.6z"/>
	<path class="st9" d="M254.3,19.5c-0.2,1.9,0.9,3.7,2.7,4.3c0.8,0.4,1.6,0.9,2.4,1.3c-1.6,2.1-1.6,2.1-3.5,0.3
		c-0.6-0.6-1.1-1.1-1.7-1.7C252.2,21.5,251.8,22.2,254.3,19.5z"/>
	<path class="st14" d="M265.6,55.3v-5.7c1.3,0.2,1.8,1.3,2.6,2.1s0.2,1.5-0.4,2S266.7,55.2,265.6,55.3z"/>
	<path class="st8" d="M273.5,37.8c-0.5,1.9,0.7,3.4,0.9,5.2c-1.4-0.2-2.6-1.2-3.1-2.6C270.6,38.9,272.1,38.3,273.5,37.8z"/>
	<path class="st13" d="M235.4,31.6l-4.8-0.1c0.1-1.4,1.1-2.6,2.1-2.6C234,29,235,30.2,235.4,31.6z"/>
	<path class="st14" d="M247.6,31.6h-4.8c0.3-1.3,1.2-2.4,2.4-2.4S247.3,30.4,247.6,31.6z"/>
	<path class="st13" d="M231,73.8l3.9-0.1c-0.2,1.2-1.1,2.1-2.2,2.3C231.8,76.1,231,75,231,73.8z"/>
	<path class="st15" d="M243.3,73.8l3.9-0.1c-0.2,1.2-1.1,2.1-2.3,2.3C244,76.1,243.3,75,243.3,73.8z"/>
	<path class="st10" d="M229.3,74.5c-1.1-0.1-1.4-0.8-1.3-1.8l1.7,0.9L229.3,74.5z"/>
	<path class="st8" d="M280.4,64.9l-0.4-0.9C280.6,64.1,281.1,64.2,280.4,64.9z"/>
	<path class="st8" d="M274.7,43.9c0.1,0.1,0.2,0.2,0.3,0.4C274.9,44.2,274.8,44.1,274.7,43.9z"/>
	<path class="st8" d="M280,64.1l-0.4-0.5L280,64.1z"/>
	<path class="st8" d="M279.5,63.6l-0.5-0.4L279.5,63.6z"/>
	<path class="st8" d="M274.3,43l0.3,0.5L274.3,43z"/>
	<path class="st8" d="M273.7,37.4l-0.3,0.4L273.7,37.4z"/>
	<path class="st11" d="M237.8,20.3c0.1-0.2,0.1-0.4,0.2-0.5C237.9,20,237.8,20.1,237.8,20.3z"/>
	<path class="st16" d="M199.6,73.2c0-0.7-0.1-1.3-0.3-1.9c-5-12.1-4.9-25.7,0.2-37.7c0-0.1,0.1-0.3,0.1-0.4c0.4-0.5,0.7-1.1,0.9-1.8
		c2.6-4.9,5.9-9.5,9.7-13.5l0.4-0.4c4.3-3.9,9.2-7.1,14.4-9.7l6.1-2.2c0.5,0.1,1,0,1.3-0.3c7.3-1.7,14.8-1.9,22.2-0.5l6.2,1.7
		c4.3,1.7,8.4,3.8,12.2,6.3l0.5,0.3l5.6,4.8l0.9,0.9l5,6.2L285,25l4.1,7.2c0,0.4,0.1,0.7,0.4,0.9c0.3,1.2,0.7,2.4,1.4,3.5l1.7,6.2
		c1.4,7.8,1.1,15.8-0.9,23.5c-0.3,0.3-0.5,0.8-0.4,1.3c-0.6,1.6-1.2,3.2-1.8,4.8c-2.6,5.2-5.8,10.1-9.7,14.4l-0.4,0.4l-6.1,5.3
		l-0.4,0.2l-7,4.2c-0.7,0.1-1.3,0.4-1.8,0.8c-6.8,2.9-14.2,4.2-21.6,3.9c-2.7-0.2-5.3-0.6-8-0.8c-1.1-0.5-2.3-0.8-3.5-0.9l-6.1-2.2
		c-0.2-0.3-0.6-0.5-0.9-0.4l-7.2-4.1l-0.1-0.1l-6.2-5l-0.9-0.9l-4.8-5.6l-0.2-0.4C202.8,78.6,201.8,75.5,199.6,73.2L199.6,73.2z
		 M235,93.4l0.4,0.2l1.4,0.2c4.3,1.1,8.8,1.2,13.1,0.4h0.9c0.5,0.1,1,0,1.4-0.3c0.6,0.1,1.2-0.1,1.7-0.4c2.1-0.2,4.2-0.8,6.1-1.9
		c2.9-0.8,5.6-2.3,7.9-4.3l0,0c5.1-2.7,8.8-6.9,11.8-11.8c2.1-2.8,3.6-6,4.6-9.3c0.6-1.4,1-2.8,1.1-4.3c1.7-6.2,1.6-12.7-0.1-18.8
		c-0.2-2-0.8-3.9-1.8-5.7c-1.8-5.1-4.8-9.8-8.7-13.5c-1.7-2.1-3.8-3.9-6.1-5.2c-2.8-2.2-5.9-3.9-9.3-5c-1.6-0.8-3.4-1.4-5.2-1.5
		c-5.7-1.6-11.7-1.8-17.5-0.4c-2.1,0.1-4.2,0.7-6.1,1.7c-3,0.8-5.7,2.2-8.2,4l-0.4,0.2c-4.8,2.9-8.9,6.9-11.9,11.6
		c-2.1,2.7-3.7,5.8-4.8,9.2c-0.8,1.8-1.4,3.7-1.7,5.6c-0.4,1.4-0.6,2.9-0.6,4.4c-0.7,4.1-0.5,8.2,0.5,12.2c0.2,2.6,1,5.1,2.1,7.4
		c0.8,2.5,2,4.9,3.5,7l0.9,1.3c1.5,2.5,3.4,4.7,5.6,6.6c1.7,2,3.8,3.6,6.1,4.8c2.5,1.9,5.3,3.3,8.4,4.2
		C231.7,92.7,233.3,93.2,235,93.4L235,93.4z"/>
	<path class="st17" d="M227.2,71.8c-0.1-0.7-0.1-1.4-0.2-2.1c0-3.3,0-6.7,0-10c0-0.2,0.1-0.4,0.1-0.7c0.1-3,0.1-3-3-2.8
		c-1.6,0-3.1-0.9-3.8-2.3c0-0.8,0-1.7,0-2.5c0.7-1.4,2.2-2.3,3.8-2.3c3.4,0.2,3.2,0.7,3-3.8c0-3.3,0-6.7,0-10
		c0.2-0.7,0.4-1.4,0.6-2.2l0.8-0.8l2.1-0.7l4.8,0.1h1.3h4.8h1.3h4.8h1.3l3.8,0.2c0.5,0.3,1.2,0.5,1.8,0.5c2.4,0.9,4.5,2.2,6.5,3.9
		l0.4,0.4c2.8,3.3,4.2,7.5,4.1,11.8v1.3v5.6v1.3c0.2,4.2-1.1,8.3-3.7,11.7c-0.3,0.3-0.6,0.6-0.9,1c-2,2-4.8,2.9-7.1,4.4v-0.1h-0.1
		c-0.1,0-0.2,0-0.2,0.1c-0.3-0.3-0.5-0.2-0.8,0l-4.2,0.2h-1.3l-3.9,0.1c-0.6-0.2-1.2-0.2-1.7-0.1h-5.2H235l-3.9,0.1l-1.3-0.2
		l-1.7-0.9l0,0L227.2,71.8z M234.2,56.6v5.7v1.3v2.6c-0.1,0.3,0.1,0.4,0.3,0.3h16.2c0.5,0.1,1,0,1.4-0.3c1.5-0.2,2.9-0.9,3.9-2.2
		c0.4-0.2,0.7-0.5,0.8-0.9c0.8-0.8,1.3-1.9,1.4-3c0.3-0.4,0.4-0.9,0.3-1.4c0-1.8,0-3.5,0-5.2v-7c0.1-0.5,0-1-0.3-1.4
		c-0.1-1.1-0.6-2.2-1.4-3c-0.3-0.6-0.7-1.1-1.3-1.4c-0.9-0.9-2.1-1.5-3.4-1.6c-0.4-0.3-0.9-0.4-1.4-0.3h-16.2
		c-0.3,0-0.4,0.1-0.3,0.3v2.2v1.8v5.7c0,0.3,0.1,0.4,0.4,0.3h1.7l5.7,0.1c1.2,0.5,2.2,1.5,2.7,2.7v1.8c-0.5,1.4-1.7,2.4-3.1,2.7
		h-4.8h-2.2C234.3,56.2,234.1,56.3,234.2,56.6z"/>
	<path class="st18" d="M280,49.1c3.7,1,3.2,3.4,2.9,7.3c-0.2,2.3-1.9,3.3-4.6,3.1c-1-0.6-1.9-1.5-2.6-2.5c-0.2-3-0.4-5.9,2.6-7.8
		L280,49.1z"/>
	<path class="st19" d="M218,31.6c0.1-0.7-0.6-0.9-0.9-1.4c-0.7-0.8-0.9-1.8-0.7-2.8c0.7-3.5,5.4-5.8,8.6-4.3l0.3,0.4
		c0.6,1.1,0.8,2.4,0.4,3.5c-0.5,1.3-1.8,1.8-2.5,2.9l-0.9,0.9C221,31.7,219.4,32,218,31.6z"/>
	<path class="st19" d="M271.7,74.6c1.3,1.6,1.8,3.3,0.3,5.1c-2.5,3.2-4.4,4-7.3,3l-0.8-0.7c-1.1-2.2-0.8-4,1.2-5.6
		c0.7-0.6,1.3-1.2,1.8-1.8l0.8-0.5C269.1,73.6,270.5,73.8,271.7,74.6z"/>
	<path class="st19" d="M266.4,25.6c2.6-1.8,3.4-1.7,6.1,0.5c1.4,1.8,3.4,3.4,2.2,6.1l-0.5,0.7c-1.7,1.2-3.5,1.6-5.2,0
		c-0.6-0.5-1.1-1.1-1.6-1.6l-0.9-0.9C265.5,28.9,265.4,27,266.4,25.6z"/>
	<path class="st19" d="M258,88.9c-0.9,0.1-1.8,0.4-2.7,0.8c-3.2-0.3-4.3-1.6-4-4.7c0.5-1.1,1.4-1.9,2.5-2.3c0.6-0.2,1.2-0.4,1.9-0.6
		c3.3-1.2,4.6-0.7,6,2.5v0.9C261.1,87.3,259.6,88.2,258,88.9z"/>
	<path class="st19" d="M232.4,16l1.8-0.4c2.2,0.1,3.9,2,3.8,4.2c-0.1,0.2-0.1,0.4-0.2,0.5c-1.7,3-4.7,3.2-7.6,3.6
		c-1.3-0.5-2.4-1.7-2.7-3.1C227.6,17.6,230.2,17.1,232.4,16z"/>
	<path class="st18" d="M231.9,88.6c-3-0.5-6-1.2-7.4-4.5c0-1.3,0.5-2.5,1.4-3.4c1.1-0.9,2.5-1,3.8-0.4l0.5,0.3
		c2.1,1.1,4.6,1.7,4.7,4.7C234.5,86.8,233.4,88.1,231.9,88.6z"/>
	<path class="st18" d="M248.1,86.8c0.1,1.2-0.2,2.4-1,3.4c-2.4,1.6-4.9,1.2-7.3,0.4c-1.9-0.6-2.5-2.3-2.1-4.3
		c1.1-2.6,3.3-2.4,5.5-2.3c1.9-0.2,3.7,0.6,4.8,2.1L248.1,86.8z"/>
	<path class="st18" d="M255.2,17.9c1.1-0.8,2.4-1.2,3.8-1c2,1.3,4.8,1.6,5.6,4.5l-0.4,2c-0.6,0.9-1.6,1.6-2.6,1.9l-2.1-0.2
		c-0.8-0.4-1.6-0.9-2.4-1.3c-1.8-0.6-3-2.4-2.7-4.3L255.2,17.9z"/>
	<path class="st18" d="M280.5,66.7c-0.9,2-1.6,4-3.1,5.6c-1.4,0.7-2.9,0.3-4.3,0l-1-2.2V68l0.1-0.5l0.5-0.9c1.3-2.4,2.4-5,6-3.8
		l0.5,0.3l0.5,0.4l0,0l0.4,0.5l0,0l0.4,0.9L280.5,66.7z"/>
	<path class="st18" d="M280.4,38.3c0.4,1.7,1.3,3.4,1,5.2c-0.7,1.8-2.6,2.8-4.4,2.3c-0.8-0.3-1.5-0.9-2-1.5
		c-0.1-0.1-0.2-0.2-0.3-0.4l-0.1-0.5l-0.3-0.5l0,0c-0.2-1.7-1.4-3.3-0.9-5.2l0,0l0.3-0.4c0.9-1.3,2.5-2,4.1-1.8
		C278.9,36.2,279.9,37.1,280.4,38.3z"/>
	<path class="st18" d="M241.1,19c-0.2-1.9,0.1-3.7,2.1-4.5c2-0.9,6.3-0.1,7.4,1.2c1.3,1.6,0.9,3.1,0,4.6l-1.2,0.9
		c-2.6,0-5.4,0.8-7.7-1.3L241.1,19z"/>
	<path class="st19" d="M223.6,76.9c-0.2,0.8,0.4,1.8-0.5,2.4c-1.1,1.6-3.2,2.1-5,1.3l-2.5-2.7c-1.6-1.7-2-3.5-0.6-5.5l1.4-0.9
		c2.9-0.9,4.2,1.6,5.9,3.1l0.9,1.3L223.6,76.9z"/>
	<path class="st19" d="M208.4,66.2c-0.3-1-0.6-2-0.9-3c0.8-3.5,2.2-4.3,5.6-3.4l0.4,0.4c1.1,1.4,1.5,3.1,2.1,4.7
		c0.7,1.8-0.2,3.8-2,4.5c0,0,0,0,0,0c-1.7,0.7-3.5,0-4.5-1.9C208.9,67.1,208.7,66.6,208.4,66.2z"/>
	<path class="st18" d="M213.1,32.6l2.8,0.5c0.7,0.7,1.2,1.6,1.3,2.5l-0.2,2.1c-0.5,0.7-0.9,1.5-1.2,2.3c-0.6,1.9-2.4,3.1-4.4,2.8
		l-0.9-0.3C207.7,39.6,208.9,34.8,213.1,32.6z"/>
	<path class="st18" d="M211.3,55.9c-3.6,0.8-5.1-0.5-5.2-4.1c0-0.4,0-0.8-0.1-1.3c0.1-0.9,0.3-1.8,0.6-2.7c1.1-2.3,3.4-2.6,5.9-0.8
		c0.2,0.3,0.4,0.6,0.5,0.8c0,2.5,0.6,5-0.9,7.3L211.3,55.9z"/>
	<path class="st15" d="M224.1,49.1c-1.6,0-3.1,0.9-3.8,2.3c-1.7-1.1-2.8-2.7-4.3-4c-0.7-0.7-0.7-1.3,0-2.1c3.8-4.7,4.2-4.8,8.4-0.5
		c0.9,1,1.5,1.8,0.2,2.9C224.2,48.1,224,48.6,224.1,49.1z"/>
	<path class="st15" d="M220.2,53.9c0.7,1.4,2.2,2.3,3.8,2.3c1.6,2.9,1.6,2.9-1.1,5.6c-2.4,2.4-2.4,2.4-4.9-0.1c-3-3-3-3,0-6
		C218.8,55.2,219.5,54.6,220.2,53.9z"/>
	<path class="st14" d="M217.2,35.7c-0.2-0.9-0.6-1.8-1.3-2.5c0.7-0.5,1.9-0.3,2.1-1.5c1.5,0.4,3,0.1,4.2-0.8
		c1.5,0.2,2.1,1.6,3.2,2.5c0.6,0.5,0.3,1-0.1,1.5l-2,2C220.4,39.5,219.1,39.3,217.2,35.7z"/>
	<path class="st13" d="M222.2,74.6c-1.8-1.5-3-3.9-5.9-3.1c-1.1-0.2-1-0.7-0.4-1.3c1.3-1.3,2.6-2.6,3.9-3.9c0.6-0.6,1.1-0.5,1.7,0.1
		s0.9,0.9,1.4,1.4C226.4,71.4,226.4,71.4,222.2,74.6z"/>
	<path class="st14" d="M227,59.7c0,3.3,0,6.7,0,10c-2.6-0.5-3.6-3-5.4-4.5c-0.1-0.3-0.1-0.5,0.1-0.8C223.5,62.8,224.8,60.7,227,59.7
		z"/>
	<path class="st14" d="M227,35.2c0,3.3,0,6.7,0,10c-2.2-1-3.5-3.2-5.3-4.8c-0.2-0.2-0.2-0.5-0.1-0.8C223.4,38.2,224.5,35.7,227,35.2
		z"/>
	<path class="st10" d="M228,72.8h-2.2c0.2-0.6,0.8-0.9,1.4-0.9L228,72.8z"/>
	<path class="st10" d="M223.6,76.9l-0.4-1c0-0.6,0.3-1.1,0.9-1.3C223.9,75.3,223.7,76.1,223.6,76.9z"/>
	<path class="st11" d="M234.2,63.6c0-0.4,0-0.9,0-1.3c1.5-0.7,2.8-1.8,3.6-3.2c0.6-0.9-1.1-1.3-1-2.4c0-0.1,0-0.3,0-0.4h4.8
		c0.1,1.1-2,1.6-1.1,2.8c1.3,1.6,2.7,3,4.3,4.3c0.7,0.6,1.4-0.1,1.8-0.6c1.1-1.6,4.2-2.6,3.4-4.5c-0.9-2.3-2.9-4.1-5.3-4.7
		c0-0.6,0-1.2,0-1.8c2.3-1,3.7-3.1,5.4-4.9c0.9-1-0.4-1.8-1-2.2c-1.4-1-2.2-3.8-4.2-3c-1.7,0.7-3.1,2.6-4.3,4.2
		c-0.9,1.3,1.4,1.8,1.5,3c0,0.1,0,0.2,0,0.2l-5.7-0.1c0-0.8,0.7-1.2,1.2-1.7s0.8-1,0.3-1.5c-1.1-1.1-1.7-2.8-3.6-2.8v-1.8
		c0.5,0.1,1,0.3,1.3,0.7c3.9,3.5,3.8,3.5,7.6-0.2c0.9-0.7,1.2-2,0.7-3h3.1c-0.1,0.8-0.8,1.6,0.1,2.4c1.5,1.3,2.6,3.1,4.5,4
		c0.2,0,0.4,0,0.6-0.2c1.2-1.4,3-2.2,3.6-4.2c0.6,0.3,1,0.8,1.2,1.4c-1.9,0.5-2.7,2.3-4.1,3.5c-0.2,0.3-0.3,0.7-0.2,1
		c0.3,1.2,4.6,4.6,5.9,4.7v2.2c-0.5,0.1-1.2-0.1-1.5,0.2c-1.6,1.4-3.8,2.7-4.3,4.7c-0.4,1.6,2,2.4,3,3.7c0.4,0.4,0.7,0.7,1.2,1
		c-0.1,0.4-0.4,0.8-0.8,0.9c-1.1-1.4-2.3-2.6-3.5-3.8c-0.4-0.4-1-0.9-1.5-0.5c-1.5,1.3-3,2.8-4.3,4.2c-0.7,0.8,0.4,1.6,0.2,2.5h-3.5
		c1-1.3,0.7-2.4-0.6-3.4c-1-0.8-1.8-1.6-2.6-2.6c-0.8-0.9-1.4-0.9-2.3,0C236.6,61.6,235.8,63.1,234.2,63.6z M256.4,52.4
		c-0.4-0.8-1-1.5-1.7-2.1c-3.9-3.8-2.7-3.8-6.5,0c-2.2,2.2-2.2,2.2,0,4.4c3.9,3.8,2.7,3.8,6.7-0.1C255.5,54,256.1,53.3,256.4,52.4z"
		/>
	<path class="st15" d="M242,49.2c0-0.1,0-0.2,0-0.2c-0.1-1.2-2.4-1.7-1.5-3c1.1-1.6,2.5-3.5,4.3-4.2c2.1-0.8,2.8,1.9,4.2,3
		c0.7,0.5,1.9,1.3,1,2.2c-1.6,1.8-3,3.9-5.4,4.9C244.1,50.7,243.2,49.7,242,49.2z"/>
	<path class="st15" d="M244.6,53.6c2.4,0.6,4.4,2.3,5.3,4.6c0.8,1.9-2.2,2.9-3.4,4.5c-0.4,0.6-1.1,1.3-1.8,0.6
		c-1.6-1.3-3-2.7-4.3-4.3c-0.9-1.2,1.2-1.7,1.1-2.8C242.9,55.9,244.1,54.9,244.6,53.6z"/>
	<path class="st14" d="M234.2,63.6c1.6-0.5,2.4-2,3.6-3.1c0.9-0.8,1.5-0.9,2.3,0c0.8,1,1.7,1.9,2.6,2.6c1.3,1,1.6,2.1,0.6,3.4h-8.7
		l-0.3-0.3L234.2,63.6z"/>
	<path class="st14" d="M243.7,38.8c0.6,1,0.3,2.3-0.7,3c-3.7,3.7-3.7,3.8-7.6,0.2c-0.3-0.4-0.8-0.7-1.3-0.7v-2.2l0.3-0.3H243.7z"/>
	<path class="st13" d="M246.8,66.6c0.2-0.8-0.9-1.7-0.2-2.5c1.4-1.5,2.8-2.9,4.3-4.2c0.5-0.4,1.1,0,1.5,0.5c1.3,1.2,2.5,2.4,3.5,3.8
		c-0.9,1.2-2.3,2-3.9,2.2c-0.5,0-1-0.1-1.4,0.3L246.8,66.6z"/>
	<path class="st13" d="M255.5,40.8c-0.6,2-2.4,2.8-3.6,4.2c-0.2,0.2-0.4,0.2-0.6,0.2c-1.9-0.9-2.9-2.7-4.5-4
		c-0.9-0.8-0.2-1.6-0.1-2.4h4c0.4,0.4,0.9,0.3,1.4,0.3C253.5,39.2,254.7,39.9,255.5,40.8z"/>
	<path class="st13" d="M256.8,63.2c-0.4-0.3-0.8-0.6-1.2-1c-1-1.3-3.4-2.2-3-3.7c0.5-2,2.7-3.3,4.3-4.7c0.3-0.3,1-0.2,1.5-0.2
		c0,1.8,0,3.5,0,5.2c-0.4,0.4-0.3,0.9-0.3,1.4C258.1,61.3,257.6,62.4,256.8,63.2z"/>
	<path class="st13" d="M258.5,51.4c-1.3-0.1-5.6-3.5-5.9-4.7c-0.1-0.3,0-0.7,0.2-1c1.3-1.2,2.2-2.9,4.1-3.5c0.8,0.8,1.3,1.9,1.4,3
		c0,0.5-0.1,1,0.3,1.4L258.5,51.4z"/>
	<path class="st15" d="M234.2,43.1c1.9,0,2.6,1.7,3.6,2.8c0.5,0.5,0.1,1.1-0.3,1.5s-1.1,0.9-1.2,1.7h-1.7l-0.4-0.3L234.2,43.1z"/>
	<path class="st14" d="M236.7,56.3c0,0.1,0,0.3,0,0.4c-0.1,1,1.7,1.5,1,2.4c-0.8,1.4-2.1,2.6-3.6,3.2v-5.7l0.4-0.3L236.7,56.3z"/>
	<path class="st11" d="M250.7,66.6c0.4-0.4,0.9-0.3,1.4-0.3C251.7,66.6,251.2,66.7,250.7,66.6z"/>
	<path class="st11" d="M258.2,60.2c0-0.5-0.1-1,0.3-1.4C258.6,59.3,258.5,59.8,258.2,60.2z"/>
	<path class="st11" d="M258.5,46.5c-0.4-0.4-0.3-0.9-0.3-1.4C258.5,45.6,258.6,46.1,258.5,46.5z"/>
	<path class="st11" d="M252.1,39.1c-0.5,0-1,0.1-1.4-0.3C251.2,38.7,251.8,38.8,252.1,39.1z"/>
	<path class="st11" d="M234.2,48.8l0.4,0.3C234.3,49.2,234.1,49,234.2,48.8z"/>
	<path class="st11" d="M234.2,66.2l0.3,0.3C234.3,66.6,234.1,66.5,234.2,66.2z"/>
	<path class="st11" d="M234.5,56.3l-0.4,0.3C234.1,56.3,234.3,56.2,234.5,56.3z"/>
	<path class="st11" d="M234.5,38.8l-0.3,0.3C234.1,38.9,234.3,38.8,234.5,38.8z"/>
	<path class="st11" d="M253.6,73.6h-0.8C253,73.4,253.3,73.3,253.6,73.6z"/>
	<path class="st10" d="M230.1,80.2v0.4l-0.5-0.3L230.1,80.2z"/>
	<path class="st9" d="M272,70.1c-0.5-0.6-0.5-1.5,0-2.1V70.1z"/>
	<path class="st14" d="M256.4,52.4c-0.3,0.9-0.9,1.6-1.6,2.1c-4,3.9-2.8,3.9-6.7,0.1c-2.2-2.1-2.2-2.2,0-4.4c3.8-3.7,2.7-3.7,6.5,0
		C255.4,50.8,256,51.5,256.4,52.4z"/>
	<path class="st20" d="M297.1,157.3c-25,4.1-49.9-13.5-54.3-38.4c-4.7-26.2,11-50.2,36.8-56.2c5.8-1.4,11.7-1.6,17.6-0.6
		c-0.5,0.3-1.1,0.5-1.6,0.8c-3.4,1.2-6.6,3-9.5,5.2l-2.4,0.4c-16.2,3-27.5,12.2-32.8,27.8c-5.3,15.6-1.9,30,9.3,42.2
		c6.9,7.5,15.8,11.5,25.9,12.8c0.3,0.3,0.6,0.5,0.9,0.8C290,154.2,293.6,155.6,297.1,157.3z"/>
	<path class="st21" d="M336.9,120.3c0,1-0.3,2-0.7,2.9h-0.9c-1.4-0.7-1.6,0.8-2.3,1.3c-1,0.9-1.8,2-3.3,0.8c-0.2,0.9,1,1.4,0.3,2
		c-1.2,1.1-2,2.8-3.8,3.2c2.6-4.9,4.4-10.1,5.3-15.6h0.9C333.3,117.3,335.6,118.4,336.9,120.3z"/>
	<path class="st22" d="M332.4,115h-0.9l0.1-1.6c2.1-0.2,2.8-2.2,4.2-3.3c0.1-0.2,0.1-0.5,0-0.7c-1.4-1.1-2.1-3.1-4.2-3.3
		c-0.2-1.2-0.3-2.5-0.5-3.7c2-0.8,3-2.7,4.5-4c0.3-0.4,0.3-1.1-0.2-1.4c0,0,0,0,0,0c-0.6-0.4-1.2-1-1.6-1.5
		c-1.4-1.9-2.9-2.5-4.9-0.8c-0.3-0.2-0.4-0.5-0.4-0.8c0.6-0.7,2.2-1,1.2-2.2s-2.3-2.9-4.1-3.5l-2.5-3.7c2.5,2,3.8-0.2,5.2-1.6
		c0.3-0.3,0.5-0.6,0.7-0.9c0.4,0.3,0.7,0.7,0.9,1.2c-1.6,0.3-2.3,1.8-3.4,2.8c-0.3,0.2-0.4,0.6-0.2,0.8c0,0,0,0,0,0.1
		c1.4,1.5,2.8,2.9,4.3,4.3c1,0.8,1.4-1.1,2.4-0.9c0.1,0,0.3,0,0.4,0c0,0.6-0.3,1.1-0.7,1.4c-0.5,0.4-0.6,1-0.2,1.5
		c0.1,0.1,0.2,0.2,0.2,0.2c1.1,1,1.9,2.3,3.3,3c0.4,0.8,0.7,1.6,0.7,2.5l-3.8,4c-0.4,0.4-1.1,1-0.5,1.6c1.7,1.6,2.7,4.2,5.5,4.4v2
		c-0.7-0.1-1.5,0.1-2,0.6C334.9,112.4,333.6,113.7,332.4,115z"/>
	<path class="st23" d="M330.4,135.6c-1.5,3-3.6,5.7-6.1,7.8c-0.8,0-1.2-0.7-1.8-1.1c-1.2-0.8-1.5-2.4-2.9-3.1l4.7-5.7
		c0.8-0.1,1.6,0.2,2.2,0.8c0.6,0.7,1.3,1.4,2,2c0.2,0.2,0.6,0.5,0.8,0.1c0.1-0.2-0.1-0.6-0.2-0.9L330.4,135.6z"/>
	<path class="st23" d="M297.1,157.3c-3.5-1.6-7.1-3-10.2-5.2c-0.3-0.2-0.6-0.5-0.9-0.8c3.2,0.8,6.5-0.1,9.7-0.1l1.3-0.1l0.5-0.1
		c0.8,2.6,3,3.8,5,5.3C300.7,156.8,299,157.1,297.1,157.3z"/>
	<path class="st23" d="M285.9,68.1c2.9-2.2,6.1-4,9.5-5.2c0.5-0.2,1.1-0.5,1.6-0.8c1.9-0.1,3.5,0.8,5.3,1.2c0,0.1,0,0.2,0,0.4h-0.8
		c-1.4,0.2-2,1.6-2.9,2.3s-1.5,2.1-3,2.3L285.9,68.1z"/>
	<path class="st23" d="M329.1,81.7c-0.2,0.3-0.5,0.6-0.7,0.9c-1.4,1.4-2.7,3.6-5.2,1.6l-3.7-4.2c1.4-1.6,2.9-3,4.6-4.3
		C326.1,77.4,327.8,79.4,329.1,81.7z"/>
	<path class="st24" d="M319.6,139.2c1.4,0.6,1.7,2.2,2.9,3.1c0.6,0.4,1,1.1,1.8,1.1c-1.7,2-3.6,3.7-5.8,5.1c-1.1-1.8-3-3-4.3-4.7
		L319.6,139.2z"/>
	<path class="st25" d="M324.1,75.7c-1.7,1.3-3.2,2.7-4.6,4.3l-2-1.8c0-1.1-0.3-1.9-1.6-1.8c-0.1-0.8-1.8-1.1-0.9-2.1
		s1.8-2.5,3.5-2.9C320.9,72.2,322.1,74.5,324.1,75.7z"/>
	<path class="st24" d="M317.6,149.1c-2.1,1.6-4.4,3-6.8,4c-0.2-0.8-0.6-1.5-1.3-2c-0.5-0.4-0.6-1.2-0.2-1.7c0,0,0.1-0.1,0.1-0.1
		C312.8,144.7,314,144.7,317.6,149.1z"/>
	<path class="st24" d="M311.1,66.5c2.5,1,4.8,2.3,6.8,4c-1.3,0.6-2,1.8-3.1,2.7c-0.4,0.3-0.8,1-1.4,0.5c-1.6-1.3-3-2.8-4.3-4.4
		c-0.7-1,1.5-1.5,1.4-2.7L311.1,66.5z"/>
	<path class="st24" d="M332.4,115c1.2-1.3,2.5-2.6,3.7-3.9c0.5-0.5,1.3-0.7,2-0.6c0.1,3.3-0.3,6.7-1.2,9.9
		C335.6,118.4,333.3,117.3,332.4,115z"/>
	<path class="st22" d="M317.6,149.1c-3.5-4.4-4.8-4.4-8.2,0.2c-0.5,0.4-0.5,1.2-0.1,1.7c0,0,0.1,0.1,0.1,0.1c0.6,0.5,1.1,1.2,1.3,2
		l0,0c-0.6-0.4-1.2-0.8-1.8-1.3s-0.9-0.9-1.4-0.4c-1.4,1.4-3.3,2.4-3.9,4.4c-0.3,0.3-0.8,0.4-1.3,0.3c-2-1.4-4.2-2.7-5-5.3
		c0.1,0,0.1,0.1,0.2,0.1c0.4,0.3,0.8,0.6,1.1,0.9c1.3,1,2.1,3.2,3.6,3s2.3-2.2,3.6-3.2c0.8-0.5,1.1-1.5,0.7-2.4
		c-0.1-0.2-0.3-0.4-0.5-0.5c2.5,0.4,3.9-0.4,4.9-2.9l0,0c0.4,0,0.7-0.1,0.8-0.5l2.4-1.6c1.3,1.7,3.1,2.9,4.3,4.7L317.6,149.1z"/>
	<path class="st24" d="M338.1,108.5c-2.8-0.2-3.8-2.8-5.5-4.4c-0.5-0.5,0.1-1.1,0.5-1.6l3.8-4C337.8,101.8,338.2,105.1,338.1,108.5z
		"/>
	<path class="st24" d="M333.6,89.9c-0.1,0-0.3,0-0.4,0c-1-0.2-1.5,1.7-2.4,0.9c-1.5-1.3-3-2.8-4.3-4.3c-0.2-0.3-0.2-0.6,0.1-0.9
		c0,0,0,0,0.1,0c1.1-0.9,1.8-2.4,3.4-2.8c0.7,0.7,1.2,1.6,1.6,2.5c0,0.3,0.1,0.7,0.5,0.8l0,0c0,0.4,0,0.7,0.5,0.8l0,0
		c0,0.4,0,0.7,0.5,0.8l0,0c0.1,0.2,0.2,0.3,0.3,0.5c0.1,0.1,0.1,0.2,0.1,0.3c0,0.4,0,0.7,0.4,0.9l0,0L333.6,89.9z"/>
	<path class="st25" d="M330.4,135.6h-1.3c-3.3-2.6-3.3-2.6-0.5-5.5c0.4-0.4,0.9-0.8,1.3-1.3c1-1.2,1.8-1.1,2.5,0.2
		c0,0.6,0,1.2,0.8,1.2l0.1,0.5l-0.5,1.1l-0.3,0.5c0,0.1,0,0.2-0.1,0.3l-0.3,0.5l0,0c-0.3,0.1-0.5,0.5-0.5,0.8L330.4,135.6z"/>
	<path class="st22" d="M310.6,66.5c0.1,1.2-2,1.7-1.4,2.7c1.3,1.6,2.7,3.1,4.2,4.4c0.6,0.5,1-0.1,1.4-0.5c1-0.9,1.8-2.1,3.1-2.7
		c0.4,0.1,0.7,0.5,0.6,0.9c0,0,0,0,0,0c-1.7,0.3-2.5,1.8-3.5,2.9s0.7,1.3,0.9,2.1v0.5l-4.9-3.3c0.4-1.9-1.4-2.3-2.3-3.2
		s-1.8,0.5-2.7,0.8l-0.9-0.4c2.2-1.7,2.2-1.8,0.3-3.8c-1-1.1-2-2.2-3.1-3.2c0-0.1,0-0.2,0-0.4c0.4-0.2,0.9,0,1.3,0.3
		c1,1.6,2.4,3,4,4c1.1,0.7,1.6-1.3,2.8-1L310.6,66.5z"/>
	<path class="st24" d="M303.7,155.8c0.6-2.1,2.5-3.1,3.9-4.4c0.5-0.4,1,0.1,1.4,0.4s1.2,0.9,1.8,1.3
		C308.5,154.3,306.1,155.3,303.7,155.8z"/>
	<path class="st23" d="M333.2,130.2c-0.8,0-0.8-0.6-0.8-1.2c0.3,0.1,0.7,0.3,0.9,0.2c0.4-0.2,0.1-0.6-0.2-0.8
		c-1.8-1.3-0.7-2.2,0.3-3.2c0.6-0.6,1.2-1.3,1.8-2h0.9c-0.5,2.3-1.3,4.5-2.5,6.6L333.2,130.2z"/>
	<path class="st23" d="M310.6,66.5h-0.2c-1.2-0.3-1.8,1.8-2.8,1c-1.6-1-2.9-2.4-4-4c2.6,0.6,5.2,1.6,7.5,3L310.6,66.5z"/>
	<path class="st23" d="M333.6,89.9v-0.4c1.2,2,2,4.3,2.5,6.6c-1.4-0.7-2.2-2-3.3-3c-0.5-0.4-0.6-1-0.2-1.5c0.1-0.1,0.2-0.2,0.2-0.2
		C333.3,91,333.6,90.5,333.6,89.9z"/>
	<path class="st23" d="M332,86.2c-0.3-0.1-0.5-0.5-0.5-0.8L332,86.2z"/>
	<path class="st23" d="M332.9,87.8c-0.4-0.1-0.5-0.5-0.5-0.8C332.7,87.2,332.9,87.5,332.9,87.8z"/>
	<path class="st23" d="M332.5,87c-0.4-0.1-0.5-0.5-0.5-0.8C332.3,86.4,332.5,86.7,332.5,87z"/>
	<path class="st21" d="M333.2,130.2l0.5-0.4c0,0.4-0.1,0.7-0.4,0.9L333.2,130.2z"/>
	<path class="st21" d="M331.6,133.9c-0.1-0.3,0.1-0.7,0.5-0.8C332,133.4,331.9,133.8,331.6,133.9z"/>
	<path class="st23" d="M333.7,89.5c-0.4-0.2-0.4-0.5-0.4-0.9C333.5,88.8,333.7,89.1,333.7,89.5z"/>
	<path class="st21" d="M332,133.1l0.3-0.5L332,133.1z"/>
	<path class="st23" d="M333.1,88.3c-0.1-0.2-0.2-0.3-0.3-0.5C333,88,333.1,88.1,333.1,88.3z"/>
	<path class="st21" d="M332.4,132.4l0.3-0.5L332.4,132.4z"/>
	<path class="st22" d="M324.3,133.5l1.4-2.1c0.4-0.1,0.5-0.4,0.5-0.8l0,0c1.8-0.4,2.6-2.1,3.8-3.2c0.7-0.7-0.5-1.1-0.3-2
		c1.5,1.1,2.3,0,3.3-0.8c0.6-0.6,0.9-2,2.3-1.3c-0.6,0.7-1.1,1.4-1.8,2c-1,1-2.1,1.9-0.3,3.2c0.3,0.2,0.5,0.6,0.2,0.8
		c-0.2,0.1-0.6-0.1-0.9-0.2c-0.7-1.4-1.5-1.4-2.5-0.2c-0.4,0.5-0.9,0.9-1.3,1.3c-2.9,2.9-2.9,2.9,0.5,5.5c0.1,0.3,0.3,0.7,0.2,0.9
		c-0.2,0.4-0.6,0.1-0.8-0.1c-0.7-0.7-1.4-1.3-2-2C326,133.7,325.1,133.4,324.3,133.5z"/>
	<path class="st24" d="M331.2,102.3l-2.2-7.8c1.9-1.7,3.5-1.1,4.9,0.8c0.5,0.6,1,1.1,1.6,1.5c0.4,0.3,0.6,0.9,0.2,1.4c0,0,0,0,0,0
		C334.2,99.6,333.2,101.5,331.2,102.3z"/>
	<path class="st25" d="M331.6,113.3v-0.4c1-1.9,1-4.2,0-6.1V106c2.1,0.2,2.8,2.2,4.2,3.3c0.1,0.2,0.1,0.5,0,0.7
		C334.5,111.2,333.8,113.2,331.6,113.3z"/>
	<path class="st23" d="M328.7,93.6l-2.9-5.7c1.9,0.6,3,2.1,4.1,3.5S329.3,93,328.7,93.6z"/>
	<path class="st22" d="M295.6,151.1c0.4-0.3,0.8-0.5,1.3-0.1L295.6,151.1z"/>
	<path class="st24" d="M305.1,70.7l-7.3-2.1c0.4-0.8,0.9-1.5,1.5-2.2c0.8-0.9,2-1.4,2.2-2.8h0.8c1,1.1,2,2.2,3.1,3.2
		C307.4,68.9,307.4,69,305.1,70.7z"/>
	<path class="st22" d="M301.6,63.6c-0.2,1.4-1.4,1.9-2.2,2.8c-0.6,0.6-1.1,1.3-1.5,2.2c-0.8,0.1-1.5,0-2.2-0.4c1.4-0.2,2-1.5,3-2.3
		S300.1,63.8,301.6,63.6z"/>
	<path class="st23" d="M317.5,78.2l-1.6-1.3v-0.5C317.2,76.3,317.5,77.1,317.5,78.2z"/>
	<path class="st24" d="M297.6,150.9l8.5-2.7v0.4c0.8,0.6,0.9,1.7,0.3,2.4c-0.1,0.2-0.3,0.4-0.5,0.5c-1.3,1-2.3,3-3.6,3.2
		s-2.3-2-3.6-3C298.4,151.5,298,151.2,297.6,150.9z"/>
	<path class="st21" d="M306.1,148.7v-0.4l4.9-2.5C310,148.3,308.6,149.1,306.1,148.7z"/>
	<path class="st21" d="M311,145.8l0.8-0.5C311.7,145.7,311.4,145.8,311,145.8z"/>
	<path class="st24" d="M311,73.5l-4.9-2.4c0.9-0.3,1.7-1.8,2.7-0.8S311.4,71.6,311,73.5z"/>
	<path class="st26" d="M301.1,74.2l2,0.6c1.1,1.2,2.3,2.3,3.4,3.5c0.9,0.9,1.7,1.7,3.2,0.6c-0.7,0.7-0.7,1.9,0,2.7
		c0.1,0.1,0.3,0.2,0.4,0.3c0.5,0.4,1,0.9,1.5,1.4c1.2,1.4,2.4,2.8,4.1,0.6c0.1-0.2,0.6-0.1,1-0.2h0c0,0.2,0,0.5,0,0.8
		c-2.4,1.1-2.4,1.4-0.7,3.2c0.5,0.5,1,1,1.5,1.5c1.2,1.4,2.4,2.4,4,0.7l0.2,0.4c0.2,0.9-2,1.2-0.7,2.4s2.5,2.5,3.8,3.8l0.6,2
		c-0.6,0.7-1.2,1.3-1.8,2c-3.2,3.2-3.2,3.2,0,6.4c0.8,0.8,1.4,2,2.9,0.9v3.3c-0.7-0.6-1.7-0.5-2.3,0.2c0,0.1-0.1,0.1-0.1,0.2
		c-0.8,1-1.8,1.9-2.8,2.8c-1,0.8-0.9,1.4,0,2.3c1.4,1.4,3.1,2.7,4,4.6l-0.5,1.7c-1.8,0.8-3,2.3-4.1,3.8c-0.7,0.9,1.1,1.4,1,2.4l0,0
		c-1.8-1.4-3.1-0.9-4.4,0.8c-1.2,1.6-3.9,2.6-0.9,5c-1.5,0.4-1.8-1.8-3-1c-0.9,0.6-1.5,1.6-2.4,2.2c-1.6,1.2-2.4,2.6-0.9,4.4
		c-1.1,0.4-1.9-1.5-3-0.5c-1.4,1.4-3.2,2.5-4,4.4l-2,0.6c-0.5-2.4-3.9-5.4-6.2-5.4c1.7-2.7,3.6-5.3,5.6-7.9c2.5-0.1,3.7-2,5.2-3.5
		c1.5-1.5,1.6-1.8-0.5-3l0.9-1.2c1.7,2.1,1.8,2.1,3.7,0.2c0.5-0.6,1-1.1,1.6-1.6c1.6-1.2,1.5-2.4,0-3.5c-0.4-0.3-0.7-0.6-1.1-0.9
		l0.7-1c2.4,3.3,2.5,3.3,5.2,0.6l1.7-1.7c0.3-0.3,0.5-0.7,0.5-1.1c-0.1-0.8-3.1-3.4-4.1-3.7l-2-3.4c1.2,0.5,2.6,0.1,3.3-1.1
		c0.8-1.1,2.1-1.8,2.7-3c0.2-0.5-0.2-0.9-0.6-1.2c-5-4.8-3.1-4.8-8-0.2c-0.2,0.2-0.3,0.4-0.4,0.7l-0.6-0.9c0.7-0.7,1.4-1.3,2.1-2
		c2.3-2.3,2.3-2.3,0-4.7c-3-3-3-3-5.9,0.5l-0.8-1.2c3.2-1.5,3.4-2.5,1-4.9c-0.3-0.3-0.6-0.6-0.9-0.9c-1.1-1.5-2.3-2-3.9-0.8
		c-0.1-0.9,1.3-1.5,0.7-2.2c-1.6-1.8-2.9-4-5.4-4.8c-0.9-1.2-1.7-2.4-2.3-3.8c0.8-0.1,1.6,0.3,2.1,1c0.4,0.5,1,0.9,1.6,0.4
		C298.4,77.5,300.4,76.4,301.1,74.2z M312.9,132.8c-0.1-0.8-0.6-1.1-1.1-1.6c-3.8-3.8-3.7-3.8-7.5-0.1c-1.2,1.1-1.1,1.8,0,2.9
		c3.8,3.7,3.8,3.8,7.5-0.1C312.3,133.6,312.7,133.2,312.9,132.8L312.9,132.8z M319.2,127.4c-0.5-1-1.3-1.8-2.2-2.5
		c-3.1-3.2-3.2-3.2-6.3,0c-2.2,2.2-2.2,1.7-0.1,3.9c3.2,3.2,3.2,3.2,6.5,0C317.8,128.3,318.5,127.8,319.2,127.4L319.2,127.4z
		 M324.4,121.1c-0.1-0.7-0.7-1-1.1-1.4c-3.7-3.8-3.6-3.7-7.4-0.1c-1.2,1.2-1.2,1.9,0,3.1c3.7,3.6,3.7,3.7,7.4-0.1
		C323.8,122.2,324.3,121.8,324.4,121.1L324.4,121.1z M306.8,138.6c-0.2-1-1-1.4-1.6-2c-3.6-3.6-2.5-3.6-6.1,0
		c-2.1,2.1-2.1,2.1,0,4.1c3.6,3.5,2.6,3.5,6.1,0C305.9,140.1,306.7,139.6,306.8,138.6L306.8,138.6z M306.8,80.7
		c-0.5-1.3-1.6-2-2.5-2.9c-2.2-2.3-2.2-2.3-4.5,0c-2.6,2.7-2.6,2.7,0,5.3c2.5,2.5,2.5,2.5,5-0.1C305.7,82.4,306.4,81.6,306.8,80.7
		L306.8,80.7z M319.5,93.2c-0.2,0.1-0.5,0.2-0.7,0.3c-1.3,1.3-3.3,2.4-3.8,4.2c-0.3,1.2,1.7,2.1,2.6,3.1c0.2,0.3,0.5,0.5,0.7,0.7
		c0.8,1.1,1.7,1.3,2.6,0.1c0.3-0.4,0.6-0.7,1-1c3-3,3-2.3-0.1-5.4C321.2,94.4,320.4,93.7,319.5,93.2z M312.6,86.3
		c-0.3-0.8-1-1.3-1.7-2c-3.5-3.4-2.5-3.5-6-0.1c-2.2,2.2-2.2,1.7-0.1,3.8c3.3,3.3,3.3,3.3,6.6-0.1C312,87.5,312.6,87.2,312.6,86.3
		L312.6,86.3z M324.1,109.5c0-0.2-0.1-0.4-0.2-0.6c-1.3-1.3-2.6-2.7-3.9-3.9c-0.5-0.4-0.9,0-1.2,0.3c-1.2,1.2-2.3,2.3-3.5,3.5
		c-0.6,0.6-0.7,1.1,0,1.7c0.5,0.4,0.9,0.9,1.3,1.3c3.2,3.1,2.4,3.2,5.5,0C323,111.2,323.7,110.4,324.1,109.5z M313.5,87.5
		c-0.2,0.1-0.3,0.1-0.5,0.2c-1.3,1.3-3.3,2.4-3.8,4.2c-0.3,1.2,1.7,2.1,2.6,3.2c0.2,0.3,0.5,0.5,0.7,0.7c0.9,1.3,1.7,1,2.7,0
		c3.6-3.6,3.6-3.6-0.1-7.2C314.8,88.2,314.4,87.5,313.5,87.5L313.5,87.5z"/>
	<path class="st22" d="M253,107.6l0.1-0.8c1.4-0.2,1.7,2.3,3.3,1.3c1-0.8,2-1.7,2.8-2.7c0.3-0.3,0.7-0.7,1-1c0.4-0.4,0.4-1,0-1.4
		c0,0,0,0,0,0c-1.7-1.6-3-3.8-5.4-4.4c0-0.6,0.2-1.2,0.5-1.6c2.2-0.2,2.9-2.3,4.4-3.4c1-0.7,1.2-1.6,0.2-2.5
		c-0.4-0.3-0.7-0.8-0.2-1.2s0.9,0.2,1.1,0.5c0.9,1.1,1.5,0.7,2.3-0.1c0.4-0.5,0.9-0.8,1.3-1.3c0.8-0.8,2-1.4,2.2-2.6
		s-1.3-1.4-1.7-2.4c-0.1-0.2-0.1-0.4-0.1-0.6c0.6,0,1.2,0.4,1.5,0.9c1,1.4,1.8,1,2.9,0c0.9-0.9,1.6-2.2,3.1-2.5
		c-0.8,2-2.5,3.5-2.9,5.7l-0.4,0.4c-0.8-0.7-1.5-1-2.4,0.1s-2.1,2.1-3.1,3.2c-0.4,0.4-0.9,0.8-0.3,1.4c0.9,0.8,1.5,2.1,2.9,2.4v1.2
		h-0.4c-0.3-0.1-0.6-0.2-0.9-0.4c-1.1-0.7-1.7-2.6-3.1-2.4s-2.1,1.9-3.2,2.7c-1.7,1.3-1.5,2.3,0,3.7c3.2,3,3.1,3,6.4,0.4
		c0,0.1,0,0.3,0,0.4c-0.4,1.7-0.7,3.5-0.8,5.3l-0.1,0.4c-2.4-1.9-2.4-1.9-4.6,0.3c-3.1,3.2-3.1,2.4,0,5.5c2.2,2.2,2.2,2.2,4.6,0.3
		c0,1.9,0.3,3.9,0.8,5.8l0,0c-0.9,0-1.3-0.7-1.8-1.2c-0.7-0.7-1.2-0.8-2-0.1c-4.5,4-4.5,4-0.3,8.1c0.1,0.1,0.2,0.2,0.3,0.3
		c0.7,0.9,1.3,0.8,2,0s1.8-1.7,2.7-2.5c0,0.1,0,0.3,0,0.4c-0.1,0.3-0.1,0.5-0.2,0.8c-0.7,1.2-2.8,1.7-2.3,3.3
		c0.4,1.2,1.9,2.1,2.9,3.1c0.2,0.1,0.3,0.3,0.4,0.4c0.5,0.9,1.6,1.1,2.5,0.6c0.1,0,0.2,0,0.4,0c0.1,1.9,1.6,3.2,2.1,4.9
		c-1,0-1.5-0.7-2-1.3c-1.2-1.5-2.2-1.8-3.5-0.1c-0.3,0.4-0.6,1.1-1.5,0.7c0.2-1.4,2.6-1.8,2-3.2c-0.4-1.2-1.9-1.9-2.7-3
		c-1.2-1.4-2.3-2.1-3.6-0.2c-0.2,0.2-0.5,0.3-0.8,0.1c0,0-0.1-0.1-0.1-0.1c0.2-1,2.1-1.6,1.5-2.4c-1.5-1.8-2.8-4.2-5.5-4.7l0,0
		l-0.2-0.4l-0.5-1.7c1.5,0,5.5-2.9,6-4.3c0.1-0.2,0.1-0.6,0-0.8c-1.3-1.5-2.7-2.9-4.2-4.1c-1.1-0.8-1.6,1.2-2.7,1.4H253l-0.1-0.8
		C255.3,109.6,255.3,109.3,253,107.6z"/>
	<path class="st27" d="M295,139.7c2.3,0,5.8,3,6.2,5.4c-6.8,2.4-14.1,2.5-21,0.4c-0.2-1.4,0.7-2.1,1.5-2.9c1-1.1,2.7-1.8,2.6-3.7
		c0-0.1,0-0.2,0-0.4c1.2,1.7,2.5,3.4,3.7,5.1s2.8,1.6,4,0C293.1,142.3,294,141,295,139.7z"/>
	<path class="st27" d="M301.1,74.2c-0.8,2.1-2.7,3.2-4.2,4.8c-0.5,0.6-1.1,0.1-1.6-0.4c-0.5-0.7-1.2-1.1-2.1-1
		c-0.2-0.3-0.5-0.6-0.7-1c-1.8-2.8-3.3-2.8-5.1,0.1c-1,1.5-2,3-2.9,4.6c0.4-1.3-0.5-2-1.2-2.8c-1.2-1.5-3.3-2.3-3.6-4.5
		C286.7,71.7,294.2,71.8,301.1,74.2z"/>
	<path class="st23" d="M255.1,122c2.7,0.5,4,2.9,5.5,4.7c0.6,0.8-1.3,1.4-1.5,2.4c0.2,0.2,0.5,0.3,0.8,0.1c0,0,0.1-0.1,0.1-0.1
		c1.4-1.8,2.5-1.2,3.6,0.2c0.9,1.1,2.3,1.8,2.7,3c0.5,1.4-1.8,1.8-2,3.2c0.8,0.4,1.2-0.3,1.5-0.7c1.2-1.7,2.3-1.4,3.5,0.1
		c0.5,0.6,1,1.4,2,1.3l0,0c0.1,0.2-0.2,0.8,0.4,0.4l0.8,0.8l0.4,1.2c-1.4,0.1-1.8,1.6-2.9,2.1C263,136.6,257.7,129.9,255.1,122z"/>
	<path class="st27" d="M325.4,121.2c-0.9-1.9-2.5-3.2-4-4.6c-0.9-0.9-1-1.5,0-2.3c1-0.9,1.9-1.8,2.8-2.8c0.5-0.8,1.5-1,2.3-0.6
		c0.1,0,0.1,0.1,0.2,0.1v-3.3c-1.5,1.2-2.1-0.1-2.9-0.9c-3.2-3.2-3.2-3.2,0-6.4c0.6-0.6,1.2-1.3,1.8-2
		C328,105.9,328,113.9,325.4,121.2z"/>
	<path class="st26" d="M279.8,73.9c0.3,2.2,2.4,3,3.6,4.5c0.7,0.8,1.6,1.5,1.2,2.8l-4.2,6.7c-1.7-1.6-2.5,0.1-3.5,1
		c-2.7,2.7-2.7,2.7-0.7,5.7c0,0.3-0.2,0.6-0.5,0.7c-2.3-3-2.3-3-4.7-0.5c-3.2,3.2-3.2,3.2,0.9,6.6l-0.8,1.2
		c-1.1-1.4-2.1-2.9-3.7-3.6c-1.2-0.5-1.6,1.5-2.8,1.5c0-0.1,0-0.3,0-0.4c0.3-1.4,0.6-2.7,0.9-4.1h0.4c1.4,0.9,2.4,0.4,3.5-0.8
		c3.6-3.8,3.6-3.7-0.6-7v-0.4l0.4-0.4c1.6,1,2.5,3.4,4.1,3.4s2.8-2.4,4.2-3.6c0.1-0.1,0.3-0.3,0.4-0.4c0.3-0.3,0.4-0.7,0.1-0.9
		c-1.7-1.5-2.9-3.7-5.1-4.6c0.1-0.9,0.8-1.4,1.2-2.1c0.9-1.6,2.7-2.7,3.4-4.4C278.1,74.3,278.9,74,279.8,73.9z M279.1,75.6
		c-0.8,0.1-1.1,0.7-1.5,1.1c-3.9,3.8-3.8,3.7-0.1,7.5c1.1,1.2,1.8,1.1,2.9,0c3.7-3.8,3.8-3.7-0.1-7.5
		C279.9,76.3,279.5,76,279.1,75.6L279.1,75.6z"/>
	<path class="st26" d="M272.8,138.8l-0.4-1.2c0.5,0.1,1,0,1.3-0.3c1.4-1.5,3.8-2.7,4.1-4.6c0.2-1.4-2.2-2.5-3.4-3.9
		c-1-1.2-1.7-0.9-2.6,0.1c-0.9,1-1.9,1.8-2.8,2.6c-0.1,0-0.2,0-0.4,0l-0.4-0.8c1.7-0.6,3.1-1.9,3.8-3.5c0.5-1.2-1.5-2-2.3-3
		c-0.2-0.2-0.4-0.4-0.6-0.6c-1-1.4-2.1-1.8-3.4-0.3h-0.4c0-0.1,0-0.3,0-0.4c-0.5-1.5-0.7-3-0.9-4.5l0,0c0.6,0,1.1,0.3,1.4,0.8
		c1,1.4,2,1.3,3,0c0.1-0.2,0.4-0.3,0.6-0.2c0,0,0.1,0,0.1,0.1c0.2,0.2,0.1,0.6-0.2,0.7c0,0,0,0,0,0c-1.5,1.1-1.2,2.1,0.1,3
		s2.1,3.3,4.4,3.1c0.3,0,0.2,0.4,0.2,0.6c0.3,1.7,2.6,3.9,4.4,4.1l0,0c-0.1,0.5,0.2,1.1,0.7,1.2c0.1,0,0.2,0,0.2,0
		c1,1.2,1.9,2.4,2.7,3.8c-0.7,0.1-1.4-0.2-1.8-0.8c-1-1.4-1.9-1.2-3,0c-3.6,3.7-3.5,3.6,0,7.3c1.3,1.4,2,1.2,3.2-0.1s2-2.6,3.7-3.2
		c0.1,1.9-1.7,2.5-2.6,3.7c-0.8,0.9-1.7,1.6-1.5,2.9c-1-0.1-2-0.4-2.8-0.9C276,142.6,274.5,140.7,272.8,138.8z"/>
	<path class="st28" d="M310.2,140.5c-1.5-1.8-0.8-3.2,0.9-4.4c0.9-0.7,1.5-1.6,2.4-2.2c1.2-0.9,1.5,1.4,3,1c-3-2.4-0.4-3.4,0.9-5
		c1.3-1.7,2.6-2.2,4.4-0.8c-2.6,4.7-6.4,8.7-11,11.5L310.2,140.5z"/>
	<path class="st23" d="M264.6,83.3c0,0.2,0.1,0.4,0.1,0.6c0.4,0.9,1.9,1.3,1.7,2.4s-1.5,1.7-2.2,2.6c-0.4,0.5-0.9,0.8-1.3,1.3
		c-0.7,0.9-1.4,1.2-2.3,0.1c-0.3-0.3-0.6-0.9-1.1-0.5s-0.1,0.9,0.2,1.2c1.1,0.9,0.8,1.8-0.2,2.5c-1.5,1.1-2.2,3.2-4.4,3.4
		c1.8-5.3,4.9-10.1,9-13.9L264.6,83.3z"/>
	<path class="st24" d="M253,112.1h0.4c1.1-0.2,1.5-2.2,2.7-1.4c1.5,1.2,2.9,2.6,4.2,4.1c0.1,0.1,0.1,0.5,0,0.8
		c-0.5,1.4-4.4,4.3-6,4.3C253.4,117.5,253,114.8,253,112.1z"/>
	<path class="st24" d="M254.7,98.5c2.5,0.7,3.7,2.8,5.4,4.4c0.4,0.4,0.4,1,0,1.4c0,0,0,0,0,0c-0.3,0.3-0.7,0.7-1,1
		c-0.8,1-1.8,1.9-2.8,2.7c-1.5,1-1.9-1.5-3.3-1.3C253.1,103.9,253.6,101.2,254.7,98.5z"/>
	<path class="st27" d="M316.7,83.8c-0.3,0-0.8,0-1,0.2c-1.7,2.2-2.9,0.9-4.1-0.6c-0.4-0.5-0.9-1-1.5-1.4c-0.9-0.5-1.3-1.6-0.8-2.6
		c0.1-0.2,0.2-0.3,0.3-0.4c-1.5,1.1-2.3,0.3-3.2-0.6c-1.1-1.2-2.2-2.3-3.4-3.5C308.3,76.7,313,79.8,316.7,83.8z"/>
	<path class="st24" d="M264.6,83.3l-0.4-0.3c1.5-1.7,3.3-3.1,5.2-4.2c1.8-0.4,2.5,0.7,3,2.1c-0.3,0.2-0.5,0.5-0.4,0.8l0,0
		c-1.5,0.2-2.2,1.5-3.1,2.5c-1,1.1-1.9,1.4-2.9,0C265.8,83.7,265.2,83.4,264.6,83.3z"/>
	<path class="st28" d="M321.5,89.9c-1.7,1.7-2.9,0.8-4-0.7c-0.5-0.5-0.9-1-1.4-1.5c-1.7-1.8-1.7-2.1,0.7-3.2l1,0.4
		C319.3,86.4,320.6,88.1,321.5,89.9z"/>
	<path class="st21" d="M272.8,138.8c1.6,1.8,3.1,3.7,4.5,5.7c-2.7-0.8-5.2-2-7.4-3.7C271,140.4,271.5,138.9,272.8,138.8z"/>
	<path class="st21" d="M272.4,80.9c-0.5-1.4-1.2-2.5-3-2.1c2.4-1.8,5.1-3.2,7.9-4c-0.8,1.8-2.5,2.8-3.4,4.4
		c-0.4,0.7-1.1,1.2-1.2,2.1h-0.4L272.4,80.9z"/>
	<path class="st27" d="M310.2,140.5h0.5c-2.3,1.7-4.8,3.1-7.5,4c0.9-1.9,2.6-3,4-4.4C308.3,138.9,309.1,140.9,310.2,140.5z"/>
	<path class="st27" d="M321.7,129c0.2-1-1.7-1.5-1-2.4c1.2-1.4,2.3-3,4.1-3.8C324.1,125,323.1,127.1,321.7,129z"/>
	<path class="st27" d="M324.9,96.5c-1.3-1.2-2.5-2.5-3.8-3.8s0.9-1.5,0.7-2.4C323.1,92.2,324.1,94.3,324.9,96.5z"/>
	<path class="st24" d="M253,107.6c2.3,1.7,2.3,2,0,3.7C252.7,110.1,252.7,108.8,253,107.6z"/>
	<path class="st21" d="M331.7,106.8c1,1.9,1,4.2,0,6.1V106.8z"/>
	<path class="st27" d="M317.8,84.9l-1-0.4c0-0.2,0-0.5,0-0.8C317.2,84.1,317.6,84.5,317.8,84.9z"/>
	<path class="st21" d="M326.2,130.6c0,0.4-0.1,0.7-0.5,0.8L326.2,130.6z"/>
	<path class="st23" d="M254.8,121.6l0.2,0.4L254.8,121.6z"/>
	<path class="st29" d="M247.3,140.5c-4.1-5.9-7.1-12.6-8.6-19.7c-3.2-14.2-0.3-29,8-41c0.2-0.3,0.4-0.7,0.6-1l0.9-1.2l5-5.7
		l-0.1-0.1l0.1,0.1l6.5-5.4c6.3-4.3,13.3-7.2,20.8-8.6c13.8-2.6,28.1,0.5,39.6,8.5c0.3,0.2,0.6,0.3,0.9,0.5l6.5,5.5l0.3,0.3l5.1,6
		c4.2,6,7.1,12.7,8.7,19.9c3,14,0.2,28.6-7.9,40.4c-0.3,0.4-0.6,0.9-0.8,1.4c-3.3,4.2-7.1,8.1-11.3,11.4c-0.3,0-0.6,0.2-0.7,0.5
		c-6,4.2-12.7,7.1-19.9,8.7c-13.9,3-28.5,0.2-40.3-7.7c-0.5-0.3-1-0.6-1.6-0.9l-6-5.1l-0.3-0.3L247.3,140.5z M332,133.1l0.3-0.5
		c0.1-0.1,0.1-0.2,0.1-0.3l0.3-0.5l0.5-1.1c0.3-0.2,0.5-0.6,0.4-0.9c1.2-2,2-4.3,2.5-6.6c0.5-0.9,0.7-1.9,0.7-2.9
		c0.9-3.2,1.3-6.5,1.2-9.9v-2c0.1-3.3-0.3-6.7-1.3-9.9c0-0.9-0.3-1.7-0.7-2.5c-0.5-2.3-1.3-4.5-2.5-6.6l0,0c0-0.4-0.1-0.7-0.4-0.9
		c0-0.1,0-0.2-0.1-0.3l-0.3-0.5l0,0c0-0.3-0.2-0.7-0.5-0.8l0,0c0-0.3-0.2-0.7-0.5-0.8l0,0l-0.5-0.8c-0.4-0.9-0.9-1.8-1.6-2.5
		c-0.1-0.5-0.4-0.9-0.9-1.2c-1.4-2.2-3.1-4.2-5.1-5.9c-2-1.2-3.2-3.5-5.5-4.4c0.1-0.4-0.2-0.8-0.6-0.9c0,0,0,0,0,0
		c-2.1-1.7-4.4-3-6.8-4c-2.3-1.4-4.8-2.3-7.5-2.9c-0.3-0.3-0.8-0.4-1.3-0.3c-1.8-0.4-3.4-1.3-5.3-1.2c-5.8-1-11.8-0.8-17.5,0.6
		c-25.8,6-41.5,30-36.8,56.2c4.5,25,29.3,42.6,54.3,38.4c1.8-0.1,3.6-0.5,5.3-1.1c0.4,0.1,0.9,0,1.3-0.3c2.5-0.5,4.9-1.5,7.1-2.7
		l0,0c2.5-1,4.7-2.4,6.8-4l0.9-0.6c2.2-1.4,4.1-3.1,5.8-5.1c2.5-2.2,4.6-4.8,6.1-7.8l1.2-1.6c0.3-0.2,0.5-0.5,0.5-0.8L332,133.1z"/>
	<path class="st29" d="M311,73.5l4.9,3.3l1.6,1.4l2,1.8l3.7,4.2l2.5,3.7l2.9,5.7c0,0.3,0.1,0.7,0.4,0.8l2.2,7.8
		c0.1,1.2,0.3,2.5,0.5,3.7v0.8v6.1v0.4l-0.1,1.6c-0.9,5.5-2.7,10.7-5.3,15.6l0,0l-0.5,0.8l-1.4,2.1l-4.7,5.7l-5.3,4.5l-2.4,1.6
		l-0.8,0.5l0,0l-4.9,2.5l-8.5,2.7c-0.1,0-0.1,0-0.2-0.1l-0.5,0.1c-0.5-0.4-0.9-0.2-1.3,0.1c-3.2,0-6.5,1-9.7,0.1
		c-10.1-1.3-19-5.2-25.9-12.8c-11.2-12.2-14.6-26.5-9.3-42.2c5.3-15.7,16.6-24.8,32.8-27.8l2.4-0.4l9.7,0.1c0.7,0.3,1.5,0.5,2.2,0.4
		l7.3,2.1l0.9,0.4L311,73.5z M317.8,84.9c-0.2-0.5-0.6-0.9-1-1.1h0c-3.7-4-8.3-7.1-13.5-8.9l-2.1-0.7c-6.9-2.4-14.4-2.5-21.4-0.3
		c-0.9,0.1-1.7,0.4-2.4,0.8c-2.9,0.8-5.6,2.2-7.9,4c-2,1.1-3.7,2.5-5.2,4.2c-4.1,3.8-7.2,8.6-9,13.9c-0.4,0.5-0.5,1-0.5,1.6
		c-1,2.6-1.6,5.4-1.6,8.2l-0.1,0.8c-0.3,1.2-0.3,2.5,0,3.7l0.1,0.8c0,2.7,0.4,5.3,1.3,7.8l0.5,1.7l0.2,0.4l0,0
		c2.6,7.9,7.8,14.5,14.9,18.8c2.2,1.7,4.7,2.9,7.4,3.7c0.9,0.5,1.8,0.8,2.8,0.9c6.9,2.1,14.2,2,21-0.4l2-0.6c2.7-0.9,5.2-2.3,7.5-4
		c4.6-2.8,8.4-6.8,11-11.5l0,0c1.4-1.9,2.4-4,3.1-6.2l0.5-1.7c2.6-7.3,2.6-15.3,0.1-22.6l-0.6-2c-0.7-2.2-1.8-4.3-3.1-6.2l-0.2-0.4
		C320.6,88,319.3,86.4,317.8,84.9L317.8,84.9z"/>
	<path class="st29" d="M282.2,135.6c-0.7-1.3-1.6-2.6-2.7-3.8c-0.2-0.5-0.5-1-0.9-1.3l0,0c-1.1-1.9-2.4-3.6-3.8-5.3l-0.4-0.5
		c-2.2-3.1-4.2-6.3-6.5-9.3c-1.7-2.2-2.7-4.2-0.6-6.6c0.2-0.2,0.1-0.5,0.2-0.8c1.7-1.5,2.5-3.5,3.6-5.4l0.8-1.2
		c1.4-1.9,2.7-4,3.8-6.1c0.3-0.1,0.5-0.4,0.5-0.7c1.5-2.1,3-4.4,4.2-6.7l4.2-6.7c1-1.5,2-3,2.9-4.6c1.8-2.9,3.3-2.9,5.1-0.1
		c0.2,0.3,0.5,0.6,0.7,1c0.6,1.3,1.4,2.6,2.3,3.8c1.4,2.6,3,5,4.7,7.4c1.1,2.1,2.4,4.2,3.8,6.1l0.8,1.2l3.8,6.2l0.6,0.9
		c0.8,1.7,1.8,3.3,3,4.8l2,3.4c-0.2,2.5-2.4,3.8-3.3,5.9l-0.7,1l-4.1,5.7l-0.9,1.2c-1.6,2.2-3.1,4.3-4.7,6.5c-2,2.5-3.9,5.1-5.6,7.9
		c-1,1.3-1.9,2.6-2.9,3.9c-1.2,1.6-2.8,1.6-4,0s-2.5-3.4-3.7-5.1C283.8,137.4,283.1,136.4,282.2,135.6z M291.3,119.6
		c0.3,0,0.6-0.1,0.8-0.4c0.6-0.1,1.2-0.4,1.7-0.8c0.1,0,0.3-0.1,0.3-0.2l1.3-0.7l0,0l10.7-5.2l-4.7-2.5l-0.2-0.1l-0.5-0.3
		c-2.1-1.4-4.3-2.6-6.6-3.6l-0.5-0.3c-2.1-1.6-4.2-2.9-6.6-0.4c-0.5,0.1-1,0.4-1.3,0.8c-2.1,1-4.1,2.1-6.1,3.4l-0.5,0.2l-5.4,2.8
		l12.4,6l0,0c0.2,0.3,0.5,0.4,0.9,0.4l0,0c0.7,0.6,1.6,1,2.5,1.2C290.4,120.6,290.8,119.9,291.3,119.6L291.3,119.6z M283,92.3
		c-0.3,0.3-0.8,0.7-0.1,1.2l0,0c0-0.2-0.2-0.3-0.3-0.2c-0.1,0-0.1,0-0.2,0.1l-1.1,1.8l-7.1,11.3l-0.4,0.6c0.2,0.2,0.5,0.1,0.7-0.1
		c0,0,0-0.1,0.1-0.1c3.5-1.9,6.9-3.9,10.4-5.6c2.4-1.1,3.2-2.5,3-5.2c-0.3-3.7-0.1-7.3-0.1-11l-0.4-0.1l-3.6,6.1l0,0
		C283.4,91.4,283.1,91.9,283,92.3L283,92.3z M292.7,85.2l-0.4,0.1c0,2.6,0.3,5.3-0.1,7.9c-0.8,4.9,1,7.9,5.7,9.6
		c2.8,1.1,5.4,2.9,8.1,4.4l0.3-0.3C301.7,99.6,297.2,92.4,292.7,85.2z M304.5,118.6l-0.3-0.3c-3.6,1.8-7.3,3.6-10.9,5.5
		c-0.4,0.2-1,0.4-1,1c0,3.5,0,6.9,0,11C296.6,129.6,300.5,124.1,304.5,118.6L304.5,118.6z M275.9,118.3l-0.3,0.3
		c3.9,5.5,7.9,11,11.8,16.5c0.3-3.3,0.5-6.7,0.4-10.1c0-0.6-0.3-1.1-0.9-1.3C283.3,121.9,279.6,120.1,275.9,118.3L275.9,118.3z"/>
	<path class="st30" d="M313,132.9c-0.3,0.4-0.7,0.8-1,1.2c-3.8,3.9-3.7,3.8-7.5,0.1c-1.1-1.1-1.2-1.8,0-2.9c3.8-3.7,3.8-3.8,7.5,0.1
		C312.3,131.7,312.9,132.1,313,132.9z"/>
	<path class="st30" d="M319.2,127.5c-0.7,0.4-1.4,0.8-2.1,1.4c-3.3,3.2-3.3,3.2-6.5,0c-2.1-2.2-2.1-1.6,0.1-3.9
		c3.1-3.2,3.2-3.2,6.3,0C317.9,125.7,318.7,126.5,319.2,127.5z"/>
	<path class="st30" d="M324.5,121.2c-0.1,0.7-0.7,1-1.1,1.4c-3.7,3.8-3.6,3.7-7.4,0.1c-1.2-1.2-1.3-1.9,0-3.1
		c3.7-3.6,3.7-3.7,7.4,0.1C323.8,120.2,324.3,120.5,324.5,121.2z"/>
	<path class="st30" d="M306.9,138.6c-0.2,1-1,1.4-1.6,2.1c-3.6,3.5-2.5,3.5-6.1,0c-2.1-2-2.1-2.1,0-4.1c3.6-3.5,2.5-3.5,6.1,0
		C305.9,137.2,306.7,137.7,306.9,138.6z"/>
	<path class="st28" d="M312.3,108c-1.2-1.5-2.2-3.1-3-4.8c0.1-0.2,0.3-0.5,0.4-0.7c4.9-4.7,3-4.7,8,0.2c0.4,0.3,0.8,0.7,0.6,1.2
		c-0.6,1.3-1.9,2-2.7,3C315,108,313.5,108.5,312.3,108z"/>
	<path class="st30" d="M306.9,80.7c-0.5,0.9-1.2,1.7-2,2.3c-2.5,2.6-2.5,2.6-5,0.1c-2.7-2.7-2.7-2.7,0-5.3c2.3-2.3,2.3-2.3,4.5,0
		C305.3,78.7,306.5,79.4,306.9,80.7z"/>
	<path class="st30" d="M319.5,93.2c0.9,0.5,1.7,1.2,2.4,2c3.1,3.1,3.1,2.3,0.1,5.4c-0.4,0.3-0.7,0.6-1,1c-0.9,1.2-1.7,1-2.6-0.1
		c-0.2-0.3-0.5-0.5-0.7-0.7c-0.9-1.1-2.9-2-2.6-3.1c0.5-1.8,2.4-2.8,3.8-4.2C319,93.4,319.2,93.3,319.5,93.2z"/>
	<path class="st30" d="M312.6,86.3c0,0.9-0.6,1.2-1.1,1.7c-3.3,3.4-3.4,3.4-6.6,0.1c-2.1-2.2-2.1-1.7,0.1-3.8c3.4-3.4,2.5-3.4,6,0.1
		C311.6,84.9,312.4,85.4,312.6,86.3z"/>
	<path class="st30" d="M324.1,109.5c-0.5,0.9-1.2,1.7-2,2.3c-3.1,3.1-2.4,3.1-5.5,0c-0.4-0.4-0.9-0.9-1.3-1.3
		c-0.7-0.6-0.6-1.1,0-1.7c1.2-1.1,2.3-2.3,3.5-3.5c0.4-0.3,0.8-0.8,1.2-0.3c1.3,1.3,2.6,2.6,3.9,3.9
		C324,109.1,324.1,109.3,324.1,109.5z"/>
	<path class="st30" d="M313.5,87.5c0.9,0,1.2,0.6,1.7,1.1c3.7,3.6,3.6,3.5,0.1,7.2c-1,1.1-1.8,1.3-2.7,0c-0.2-0.3-0.5-0.5-0.7-0.7
		c-0.9-1.1-2.9-2-2.6-3.2c0.5-1.7,2.5-2.8,3.8-4.2C313.2,87.6,313.4,87.6,313.5,87.5z"/>
	<path class="st28" d="M308.7,102.2l-3.8-6.2c2.8-3.5,2.8-3.5,5.9-0.5c2.4,2.3,2.4,2.3,0,4.7C310.1,100.9,309.4,101.6,308.7,102.2z"
		/>
	<path class="st28" d="M310.9,117.3c0.9-2.1,3.1-3.4,3.3-5.9c1,0.2,4,2.9,4.1,3.7c0,0.4-0.1,0.8-0.5,1.1l-1.8,1.7
		C313.4,120.6,313.3,120.6,310.9,117.3z"/>
	<path class="st28" d="M304.1,94.9c-1.4-1.9-2.7-4-3.8-6.1v-0.5c1.6-1.2,2.8-0.7,3.9,0.8c0.3,0.3,0.6,0.6,0.9,0.9
		C307.5,92.4,307.3,93.3,304.1,94.9z"/>
	<path class="st28" d="M306.1,124.1l4.1-5.8c0.4,0.3,0.7,0.6,1.1,0.9c1.5,1.2,1.7,2.3,0,3.5c-0.6,0.5-1.1,1-1.6,1.6
		C307.8,126.2,307.8,126.2,306.1,124.1z"/>
	<path class="st27" d="M300.5,131.8c1.6-2.2,3.1-4.4,4.7-6.5c2.1,1.2,2.2,1.4,0.5,3C304.1,129.9,303,131.7,300.5,131.8z"/>
	<path class="st27" d="M300.3,88.3v0.5c-1.7-2.4-3.3-4.8-4.7-7.4c2.5,0.8,3.7,3,5.4,4.8C301.6,86.8,300.2,87.4,300.3,88.3z"/>
	<path class="st27" d="M274.9,125.3c1.4,1.6,2.7,3.4,3.8,5.3c-1.7-0.2-4.1-2.4-4.4-4.1c0-0.3,0.1-0.6-0.2-0.6
		c-2.3,0.2-2.9-2.1-4.4-3.1s-1.6-1.9-0.1-3c0.2-0.1,0.3-0.5,0.2-0.7c0,0,0,0,0,0c-0.2-0.2-0.4-0.2-0.6,0c0,0-0.1,0.1-0.1,0.1
		c-1,1.3-2,1.4-3,0c-0.3-0.5-0.8-0.8-1.4-0.8c-0.6-1.9-0.8-3.8-0.8-5.8c0-2,0-4.1,0-6.2c0-0.1,0-0.3,0.1-0.4c1.6,0,2.2,1.9,3.7,2.1
		c-0.1,0.3-0.1,0.6-0.2,0.8c-2.1,2.4-1.1,4.4,0.6,6.6c2.3,3,4.4,6.2,6.5,9.3L274.9,125.3z"/>
	<path class="st30" d="M269,131.5c1-0.9,2-1.7,2.8-2.6c0.8-1,1.6-1.3,2.6-0.1c1.1,1.4,3.5,2.4,3.4,3.9c-0.3,1.9-2.7,3.1-4.1,4.6
		c-0.4,0.3-0.9,0.4-1.3,0.3l-0.8-0.8l-0.4-0.4l0,0C270.6,134.7,269.1,133.4,269,131.5z"/>
	<path class="st30" d="M272.4,81.3h0.4c2.2,0.9,3.4,3,5.1,4.6c0.3,0.2,0.2,0.6-0.1,0.9c-0.1,0.2-0.3,0.3-0.4,0.4
		c-1.4,1.2-2.5,3.6-4.2,3.6s-2.5-2.4-4.1-3.4c0.4-2.2,2.1-3.7,2.9-5.7l0,0L272.4,81.3z"/>
	<path class="st25" d="M265.4,96.1c-0.3,1.4-0.6,2.7-0.9,4.1c-3.3,2.6-3.2,2.6-6.4-0.4c-1.5-1.4-1.7-2.4,0-3.7
		c1.1-0.8,1.8-2.5,3.2-2.7s2,1.6,3.1,2.4C264.8,95.9,265.1,96,265.4,96.1z"/>
	<path class="st25" d="M264.5,118.3c0.1,1.5,0.4,3.1,0.9,4.5c-0.9,0.8-1.8,1.6-2.7,2.5s-1.3,0.9-2,0c-0.1-0.1-0.2-0.2-0.3-0.3
		c-4.2-4.1-4.2-4.1,0.3-8.1c0.8-0.8,1.3-0.6,2,0.1C263.2,117.6,263.7,118.3,264.5,118.3z"/>
	<path class="st25" d="M263.7,106.4c0,2.1,0,4.1,0,6.2c-2.4,1.9-2.4,1.9-4.6-0.3c-3.1-3.2-3.1-2.4,0-5.5
		C261.3,104.4,261.4,104.5,263.7,106.4z"/>
	<path class="st28" d="M267.5,108c-1.5-0.2-2.1-2.1-3.7-2.1c0.1-1.8,0.3-3.6,0.8-5.3c1.3,0,1.7-2,2.8-1.5c1.6,0.7,2.6,2.2,3.7,3.6
		C270,104.5,269.2,106.6,267.5,108z"/>
	<path class="st30" d="M268.7,88.3c4.3,3.3,4.2,3.3,0.6,7c-1.1,1.2-2.1,1.7-3.5,0.8c0-0.4,0-0.8,0-1.2
		C266.8,92.7,267.1,90.2,268.7,88.3z"/>
	<path class="st25" d="M268.7,88.3c-1.5,2-1.9,4.4-2.9,6.6c-1.4-0.3-2-1.5-2.9-2.4c-0.6-0.5-0.1-1,0.3-1.4c1-1.1,2.2-2,3.1-3.2
		s1.5-0.8,2.4-0.1L268.7,88.3z"/>
	<path class="st25" d="M265.4,123.2h0.4c0.2,2.7,1.5,5,2.5,7.4l0.4,0.8c-0.9,0.5-2,0.2-2.5-0.6c-0.1-0.2-0.3-0.3-0.4-0.4
		c-1-1-2.5-1.9-2.9-3.1c-0.5-1.5,1.6-2.1,2.3-3.3C265.3,123.7,265.4,123.5,265.4,123.2z"/>
	<path class="st28" d="M282.2,135.6c0.8,0.9,1.5,1.8,2.1,2.9c0,0.1,0,0.2,0,0.4c-1.7,0.5-2.6,2-3.7,3.2s-1.9,1.5-3.2,0.1
		c-3.5-3.7-3.5-3.6,0-7.3c1.1-1.2,2-1.5,3,0C280.8,135.4,281.5,135.7,282.2,135.6z"/>
	<path class="st22" d="M271.1,136.4l0.4,0.4C270.9,137.1,271.3,136.5,271.1,136.4z"/>
	<path class="st30" d="M279.1,75.6c0.4,0.3,0.8,0.7,1.2,1c3.9,3.8,3.8,3.7,0.1,7.5c-1.1,1.1-1.8,1.2-2.9,0c-3.7-3.8-3.8-3.8,0.1-7.5
		C278,76.3,278.3,75.7,279.1,75.6z"/>
	<path class="st28" d="M275.7,95.3c-1.1,2.1-2.4,4.2-3.8,6.1c-4.1-3.4-4.1-3.4-0.9-6.6C273.4,92.4,273.4,92.4,275.7,95.3z"/>
	<path class="st28" d="M280.4,87.9c-1.3,2.3-2.7,4.6-4.2,6.7c-2-3-2-3,0.7-5.7C277.8,88,278.6,86.3,280.4,87.9z"/>
	<path class="st30" d="M268.3,130.6c-1-2.4-2.3-4.7-2.5-7.4c1.3-1.5,2.4-1.1,3.4,0.3c0.2,0.2,0.4,0.4,0.6,0.6c0.8,1.1,2.8,1.8,2.3,3
		C271.4,128.7,270,130,268.3,130.6z"/>
	<path class="st27" d="M278.6,130.5c0.4,0.3,0.8,0.8,0.9,1.3c-0.6,0-1-0.5-1-1C278.6,130.7,278.6,130.6,278.6,130.5z"/>
	<path class="st22" d="M272.4,81.3l-0.4,0.4c-0.1-0.3,0.1-0.7,0.4-0.8V81.3z"/>
	<path class="st21" d="M292.7,85.2c4.5,7.2,9,14.4,13.5,21.6l-0.3,0.3c-2.7-1.5-5.2-3.3-8.1-4.4c-4.7-1.8-6.5-4.7-5.7-9.6
		c0.4-2.6,0.1-5.3,0.1-7.9L292.7,85.2z"/>
	<path class="st21" d="M274.1,106.5l7.1-11.3c1.7-0.4,1.8-0.7,1.1-1.8c0.1-0.1,0.3-0.1,0.4,0c0,0,0.1,0.1,0.1,0.2
		c1.5-0.1,3-0.4,4.3,1.1c-1.2-1.6-1.6-3-0.1-4.6c-0.6,0.2-1.2,0.4-1.7,0.8c-0.5,0.3-1,0.4-1.6,0.3l3.6-6.1l0.4,0.1
		c0,3.7-0.2,7.4,0.1,11c0.2,2.6-0.7,4-3,5.2c-3.6,1.7-7,3.7-10.4,5.6L274.1,106.5z"/>
	<path class="st31" d="M304.5,118.5c-3.9,5.5-7.9,11.1-12.2,17.1c0-4.1,0-7.5,0-11c0-0.6,0.5-0.8,1-1c3.6-1.8,7.3-3.6,10.9-5.5
		L304.5,118.5z"/>
	<path class="st31" d="M275.9,118.2c3.7,1.8,7.4,3.7,11.1,5.5c0.5,0.2,0.9,0.7,0.9,1.3c0.1,3.4-0.1,6.7-0.4,10.1
		c-3.9-5.5-7.9-11-11.8-16.5L275.9,118.2z"/>
	<path class="st22" d="M285.8,105.9c0.4-0.4,0.8-0.7,1.3-0.8c3.2,4.1,3.6,4.1,6.6,0.4l0.5,0.3c0,0.3-0.1,0.5-0.2,0.8
		c-0.5,1.2-2.6,1.6-2.1,3.2c0.5,1.2,1.8,2,2.7,3c0.2,0.2,0.5,0.5,0.7,0.7c0.8,0.9,1.5,0.8,2.2,0c1-1.2,2.1-2.3,3.2-3.4l0.5-0.3
		l0.2,0.1c-0.4,0.6-0.3,1.5-1,1.9c-2,1.3-2.6,3.9-4.8,5c-0.1,0.1-0.1,0.5-0.2,0.8l0,0h-1.3l0,0c1.2-1.7,1.3-3-0.5-4.5
		c-3.6-3.2-2.5-3.3-6,0.2c-2.1,2-2.1,2-0.1,4.1c0.4,0.4,0.9,0.8,0.9,1.5h-1.3l0,0c-0.2-0.4-0.5-0.4-0.9-0.4l0,0
		c-0.2-1.2-0.7-2.1-2.1-1.9c-0.3,0-0.6,0-0.6-0.3c0.4-2-1.5-2.3-2.3-3.5s-2.1-1.6-2-3.2l0.5-0.2l4.1,4.3c0.5,0.5,1,0.9,1.6,0.4
		c1.5-1.4,3.8-2.5,3.9-4.5C289.6,107.9,287.5,106.7,285.8,105.9z"/>
	<path class="st24" d="M285.8,105.9c1.6,0.8,3.7,2,3.6,3.6c-0.2,1.9-2.5,3.1-3.9,4.5c-0.6,0.6-1.1,0.1-1.6-0.4l-4.1-4.3
		C281.7,108,283.7,106.9,285.8,105.9z"/>
	<path class="st24" d="M300.8,110.1c-1.1,1.1-2.1,2.2-3.2,3.4c-0.7,0.8-1.5,0.9-2.2,0c-0.2-0.3-0.5-0.5-0.7-0.7
		c-0.9-1-2.2-1.8-2.7-3c-0.6-1.5,1.5-2,2.1-3.2c0.1-0.2,0.2-0.5,0.2-0.8c2.3,1.1,4.5,2.3,6.6,3.6L300.8,110.1z"/>
	<path class="st21" d="M279.3,109.5c-0.1,1.6,1.3,2.1,2,3.2s2.7,1.5,2.3,3.5c-0.1,0.4,0.3,0.4,0.6,0.3c1.4-0.2,1.9,0.7,2.1,1.9
		l-12.4-6L279.3,109.5z"/>
	<path class="st21" d="M295.4,117.5c0.1-0.3,0-0.7,0.2-0.8c2.3-1.1,2.8-3.7,4.8-5c0.7-0.4,0.6-1.3,1-1.9l4.7,2.5L295.4,117.5z"/>
	<path class="st23" d="M293.7,105.6c-3,3.7-3.3,3.6-6.6-0.4C289.5,102.7,291.7,104,293.7,105.6z"/>
	<path class="st22" d="M283.8,91.1c0.5,0.1,1.1,0,1.6-0.3c0.5-0.3,1.1-0.6,1.7-0.8c-1.5,1.6-1.1,3,0.1,4.6c-1.3-1.6-2.8-1.2-4.3-1.1
		l0,0c0-0.4,0.1-0.8,0.1-1.2l0,0C283.9,92.4,283.9,91.7,283.8,91.1L283.8,91.1z"/>
	<path class="st22" d="M282.4,93.4c0.7,1.2,0.5,1.4-1.1,1.8L282.4,93.4z"/>
	<path class="st21" d="M287.1,118.7h1.3c0.3,0.5,1.2,0.3,1.3,1.1l-0.1,0.1C288.7,119.7,287.9,119.3,287.1,118.7z"/>
	<path class="st21" d="M293.8,118.3c-0.5,0.5-1,0.8-1.7,0.9l-0.1-0.1c0-0.5,0.4-0.8,0.9-0.8L293.8,118.3z"/>
	<path class="st21" d="M283.9,91.1c0,0.6,0.1,1.3-0.8,1.3C283.2,91.9,283.4,91.4,283.9,91.1z"/>
	<path class="st22" d="M293.8,118.3h-0.9c0.2-0.5,0.7-0.9,1.2-0.8l0,0v0.7C294.1,118.3,293.9,118.3,293.8,118.3z"/>
	<path class="st21" d="M291.3,119.6c-0.5,0.3-1,1.1-1.7,0.4l0.1-0.1L291.3,119.6L291.3,119.6z"/>
	<path class="st21" d="M294.1,118.2v-0.7h1.3L294.1,118.2z"/>
	<path class="st21" d="M283,92.4c0,0.4-0.1,0.8-0.1,1.2C282.2,93,282.7,92.7,283,92.4z"/>
	<path class="st21" d="M286.3,118.3c0.4,0,0.7,0,0.9,0.4C286.8,118.8,286.5,118.6,286.3,118.3z"/>
	<path class="st21" d="M292.1,119.2c-0.2,0.3-0.5,0.4-0.8,0.4l-0.1-0.1L292.1,119.2L292.1,119.2z"/>
	<path class="st21" d="M274.5,106.9c-0.1,0.3-0.4,0.4-0.6,0.3c0,0-0.1,0-0.1-0.1l0.4-0.6L274.5,106.9z"/>
	<path class="st21" d="M300.8,110.1l0-0.6l0.5,0.3L300.8,110.1z"/>
	<path class="st26" d="M274.9,125.3l-0.4-0.5L274.9,125.3z"/>
	<path class="st25" d="M292.1,119.1l-0.8,0.4l-1.6,0.4c-0.1-0.8-1-0.6-1.3-1.1c0-0.7-0.5-1.1-0.9-1.5c-1.9-2-1.9-2,0.1-4.1
		c3.5-3.4,2.4-3.3,6-0.2c1.8,1.6,1.7,2.9,0.5,4.5c-0.5,0-1,0.3-1.2,0.8C292.5,118.3,292.1,118.6,292.1,119.1z"/>
	<path class="st32" d="M228.2,171.5c-9.1,1.9-18,0.6-26.5-2.7c-23.4-9.1-36.6-34-31-58.4c0.1-0.4,0.3-0.8,0.5-1.2
		c15.6-9.3,31.1-18.7,46.7-27.9c4.9-2.9,9.6-6.2,14.8-8.6c11.6,2.6,21.8,9.5,28.6,19.2c7.9,11,11.1,23.3,9,36.8
		c-1.1-0.1-1.6-1-2.3-1.7c-3.1-3.2-6.2-6.4-9.3-9.6c-7.6-8-15.5-15.7-23.3-23.5c-0.6-0.6-1.2-1.3-2.2-1.2c-1.4-0.3-2.7-0.7-4-1.2
		c-1.5-0.6-1.5,0.4-1.9,1.3c-1.8,0.1-2.2-2.1-3.8-2.2c-0.7-1.3-2.1-1-3.2-1.4c-1.4-0.6-2.4-0.3-2.7,1.5s-1,3.6-1.3,5.3
		c-0.3,1.5-1,1.6-2.2,1.3c-2.5-0.7-5.1-1.3-7.6-1.9c-0.6-0.1-1.5-0.8-1.9,0.1c-0.7,1.5-1,3.2-1,4.8c0.1,1.3,2,1,3.1,1.3
		c2.8,0.9,3.4,1.8,2.8,4.6c-1.8,7.2-3.5,14.4-5.3,21.7c-0.9,3.6-1.1,3.7-4.6,2.8c-0.7-0.2-2.1-0.5-2.2-0.3c-1,2-2.8,3.7-2.2,6.2
		c2.3,3.7,5.8,6.3,8.8,9.3c0,1.1-1.3,2.5,0.8,3.1c-0.8,1.3,0.6,1.6,1.1,2.1c6,6.1,12.1,12.1,18.1,18.2
		C224.8,170.9,226.5,171.6,228.2,171.5z"/>
	<path class="st33" d="M267.7,138.9c-4,11.9-12.5,21.7-23.7,27.3c-3.3-2.6-6-5.8-9-8.7c-3.8-3.7-7.4-7.4-11.1-11.1
		c-0.6-0.6-1.9-1.4,0.1-1.9c1.8,0,3.7,0.1,5.5,0c5.9-0.3,9.4-3.3,11.2-9.3c1.4-4.6,0.7-9.3-4.6-12c-0.1-0.1-0.1-0.3-0.2-0.4
		c4.6-2.2,5.2-3,6.8-9.3c0.3,0.2,0.6,0.4,0.9,0.6l22.9,22.9C267.2,137.4,267.6,138.1,267.7,138.9z"/>
	<path class="st34" d="M232.5,72.6c-5.2,2.4-9.9,5.7-14.8,8.6c-15.6,9.3-31.1,18.6-46.7,28c4.8-18,16.3-29.9,33.8-35.8
		C213.8,70.3,223.5,70,232.5,72.6z"/>
	<path class="st35" d="M267.7,138.9c-0.1-0.8-0.5-1.5-1.1-2L243.7,114c-0.3-0.2-0.6-0.4-0.9-0.6c-0.1-3.3-1.7-6.4-4.5-8.2
		c-1.6-1.2-3.5-2.1-5.4-2.7c-1.7-0.5-2-1.2-1.5-2.8c0.7-2.3,1.1-4.6,1.7-6.9c1-0.1,1.6,0.6,2.2,1.2c7.8,7.8,15.7,15.5,23.3,23.5
		c3.1,3.2,6.2,6.4,9.3,9.6c0.7,0.7,1.2,1.5,2.3,1.7C269.9,132.2,269.1,135.7,267.7,138.9z"/>
	<path class="st36" d="M224,144.4c-2,0.5-0.7,1.3-0.1,1.9c3.7,3.7,7.4,7.5,11.1,11.1c3,2.9,5.7,6.1,9,8.7c-3.2,2.1-6.8,3.5-10.6,4.2
		c-1.3,0.1-2.1-0.7-2.9-1.5c-4.6-4.6-9.2-9.2-13.8-13.8c-1-1-2.4-1.8-2.9-3.4c4.6,0.9,4.6,0.9,5.8-3.8c0.2-0.4,0.3-0.8,0.4-1.2
		C220.1,143.9,221.5,143.1,224,144.4z"/>
	<path class="st35" d="M213.9,151.7c0.5,1.5,1.9,2.3,2.9,3.4c4.6,4.6,9.2,9.2,13.8,13.8c0.8,0.8,1.6,1.7,2.9,1.5
		c-1.6,0.7-3.4,1.1-5.2,1.1c-1.7,0.1-3.4-0.6-4.5-2c-6-6.1-12.1-12.1-18.1-18.2c-0.5-0.5-1.9-0.8-1.1-2.1c0.4,0,0.9,0,1.3,0.2
		c2.4,1.2,3.1,0.1,3.6-2.2c0.4-1.9,0.4-4.1,1.9-5.7l3.2,3.8c-0.2,1.3-0.5,2.5-0.8,3.8C213.4,149.9,212.7,150.9,213.9,151.7z"/>
	<path class="st37" d="M211.2,141.4c-1.4,1.6-1.4,3.8-1.9,5.7c-0.5,2.2-1.2,3.4-3.6,2.2c-0.4-0.1-0.9-0.2-1.3-0.2
		c-2.1-0.6-0.8-2-0.8-3.1c0.3-1.6,0.8-3.2,1.3-4.8c0.5-1.4,0.3-2-1.3-2.3c-3-0.6-5.9-1.5-8.8-2.2c-0.6-2.5,1.2-4.3,2.2-6.2
		c0.1-0.2,1.4,0.1,2.2,0.3c3.5,0.9,3.8,0.8,4.6-2.8c1.8-7.2,3.6-14.4,5.3-21.7c0.7-2.8,0-3.7-2.8-4.6c-1.1-0.3-3,0-3.1-1.3
		c0-1.7,0.3-3.3,1-4.8c0.3-0.9,1.3-0.3,1.9-0.1c2.6,0.6,5.1,1.2,7.6,1.9c1.2,0.3,1.9,0.2,2.2-1.3c0.3-1.8,1-3.5,1.3-5.3
		s1.3-2.1,2.7-1.5c1.1,0.5,2.5,0.1,3.2,1.4c-0.6,2.4-1.2,4.8-1.9,7.1c-0.3,0.9-0.1,1.2,0.7,1.5c3.1,1.2,3.6,1,4.3-2.3
		c0.3-1.4,0.5-2.8,0.8-4.1c0.3-0.8,0.4-1.9,1.9-1.3c1.3,0.5,2.6,0.9,4,1.2c-0.6,2.3-1,4.6-1.7,6.9c-0.5,1.6-0.1,2.4,1.5,2.8
		c1.9,0.6,3.7,1.5,5.4,2.7c2.7,1.8,4.4,4.9,4.5,8.2c-1.6,6.3-2.2,7.1-6.8,9.3c0.1,0.1,0.1,0.4,0.2,0.4c5.3,2.7,5.9,7.4,4.6,12
		c-1.8,6-5.4,9-11.2,9.3c-1.8,0.1-3.7,0-5.5,0c-2.5-1.3-3.8-0.6-4,2.2c-0.1,0.4-0.2,0.8-0.4,1.2c-1.1,4.6-1.1,4.6-5.8,3.8
		c-1.2-0.9-0.4-1.8-0.2-2.8c0.3-1.2,0.5-2.5,0.8-3.8c1.3-2,1-3.4-1.7-3.6C212.2,141.5,211.7,141.5,211.2,141.4z M231.4,114.5
		c1-2.2,0-3.9-1.6-5.2c-2.6-2.1-5.8-2.7-8.9-3.5c-0.6-0.2-1.1,0-1.2,0.6c-0.6,3.4-2.1,6.6-2.1,10.1c3.1,1.6,6.7,2.1,10.1,1.5
		C229.6,117.9,231.2,116.4,231.4,114.5z M213.7,134.5c3.6,1.4,7.4,1.9,11.2,1.6c2.3-0.2,4.2-1.2,4.7-3.7c1.2-2.5-0.1-4.3-1.9-5.7
		c-3.2-2.6-7.3-3.2-11.2-4.2c-1-0.3-1.1,0.5-1.2,1.2c-0.8,3.2-1.6,6.5-2.4,9.7C212.8,134.1,212.7,134.6,213.7,134.5L213.7,134.5z"/>
	<path class="st35" d="M194.9,136.8c2.9,0.8,5.9,1.6,8.8,2.2c1.6,0.3,1.8,0.9,1.3,2.3c-0.5,1.6-0.9,3.2-1.3,4.8
		C200.6,143.1,197.1,140.5,194.9,136.8z"/>
	<path class="st35" d="M227.3,92.9c-0.2,1.4-0.4,2.8-0.8,4.1c-0.7,3.3-1.1,3.5-4.3,2.3c-0.9-0.3-1-0.6-0.7-1.5
		c0.7-2.3,1.3-4.7,1.9-7.1C225.1,90.8,225.5,93,227.3,92.9z"/>
	<path class="st36" d="M211.2,141.4c0.5,0.1,1,0.1,1.5,0.1c2.6,0.2,2.9,1.6,1.7,3.6L211.2,141.4z"/>
	<path class="st36" d="M213.7,134.5c-1,0-0.9-0.5-0.7-1.2c0.8-3.2,1.6-6.4,2.4-9.7c0.2-0.7,0.3-1.5,1.2-1.2c3.9,1,8,1.6,11.2,4.2
		c1.8,1.4,3.1,3.2,1.9,5.7L213.7,134.5z"/>
	<path class="st36" d="M217.5,116.5c0.1-3.5,1.5-6.7,2.1-10.1c0.1-0.6,0.5-0.8,1.2-0.6c3.1,0.7,6.3,1.4,8.9,3.5
		c1.6,1.3,2.6,3,1.6,5.2L217.5,116.5z"/>
	<path class="st35" d="M213.7,134.5l16-2.2c-0.5,2.6-2.4,3.5-4.7,3.7C221.1,136.5,217.3,135.9,213.7,134.5z"/>
	<path class="st35" d="M217.5,116.5l13.8-2c-0.2,1.9-1.8,3.4-3.7,3.6C224.2,118.7,220.7,118.1,217.5,116.5z"/>
	<path class="st38" d="M220.5,71.2c-27.8,0-50.4,22.5-50.4,50.4s22.5,50.4,50.4,50.4s50.4-22.5,50.4-50.4c0,0,0,0,0,0
		C270.9,93.8,248.3,71.2,220.5,71.2z M220.5,167.7c-25.5,0-46.2-20.7-46.2-46.1c0-25.5,20.7-46.2,46.1-46.2s46.2,20.7,46.2,46.1
		c0,0,0,0,0,0C266.6,147.1,246,167.7,220.5,167.7L220.5,167.7z"/>
	<path class="st3" d="M276.6,272.5c-1.1-0.2-1.6,1.4-2.1,3.2c-1.7-0.4-1.9-1.4-1.4-2.9c0.6-1.7,0.9-3.4-0.3-5l-0.1-1c0,0,0,0,0-0.1
		L276.6,272.5z"/>
	<path class="st3" d="M272.7,256.2C272.7,256.2,272.7,256.2,272.7,256.2L272.7,256.2L272.7,256.2z"/>
	<path class="st2" d="M276.7,272.5c0,0-0.1,0-0.1,0"/>
	<path class="st2" d="M272.9,266.5c0,0.1-0.1,0.2-0.2,0.2l-0.4-0.7C272.5,266.2,272.7,266.4,272.9,266.5z"/>
	<path class="st1" d="M278.3,262c-0.6,3.5-1.1,7-1.7,10.5L278.3,262L278.3,262z"/>
	<path class="st2" d="M278.2,261.2c0-0.1,0.2-0.2,0.3-0.3c3.9-2.8,4.1-6,2.9-10.6c-1.8-6.8-6.9-10.8-10.7-15.9
		c-2.2,1-1.5,2.7-1.1,4.3c2.2,2.9,1.4,5.1-1.7,6.6l-3.1,2.1c0.2,1.3,1,2.3,2.3,2.8c1.8-0.1,2.9-1.7,4.4-2.3c1.1-0.9,1.8-3.7,3.7-2
		c1.3,1.1,0.9,3.2-1,4.3c-4.5,4.5-7.7,5.1-11.1,2.1c-0.3-0.9-0.5-2-1.7-1.9c-1.5,0.1-1,1.3-0.7,2.1c0.5,1.2,1.2,2.3,0.8,3.6l1.1,1.1
		l1.5,1h3.9l2.6-1.1c0.4-0.7,1.2-1,2-0.9c1-1.6,1.8-3.7,4.3-3.2c1,0.2,1.5,1.1,1.6,2.2c0.1,2.3-1.2,3.2-3.2,3.6
		c-0.3,2.7-4.4,3.9-2.9,7.3c2-1.4,4-2.8,6-4.2C278.3,261.7,278.2,261.4,278.2,261.2z"/>
	<path class="st0" d="M296.7,269.2c-0.2,2.2-2.6,2.2-4.3,2.2s-3.1-0.9-4.7-1.3c-1.2-0.3-2.9-0.9-3.6,0.4c-0.9,1.7,1,2.5,2,3.5
		c0.7,0.7,1.7,1,2.4,1.7c1.2,1,2.3,2.1,1.2,3.7c-1.1,1.6-2.6,1.3-3.9,0.4c-2.4-1.7-5-3.2-6.9-5.4c-1-1.1-1.7-1.7-2.3-1.8
		c0,0-0.1,0-0.1,0c-1.4-2-2.7-4-4.1-5.9c-0.1-0.1-0.1-0.3-0.2-0.4c0,0,0,0,0.1,0c0,0,0,0,0,0l6-4.2c0,0,0,0,0-0.1
		c4.6,2.4,9.6,4.1,14.8,5C294.8,267.1,297,267.1,296.7,269.2z"/>
	<path class="st2" d="M278.3,262C278.4,261.9,278.4,261.9,278.3,262c-2,1.3-4,2.7-6,4.1c0,0,0,0,0,0L278.3,262z"/>
</g>
</svg>
