<?xml version="1.0" encoding="utf-8"?>
<!-- Generator: Adobe Illustrator 25.4.1, SVG Export Plug-In . SVG Version: 6.00 Build 0)  -->
<svg version="1.1" id="Layer_1" xmlns="http://www.w3.org/2000/svg" xmlns:xlink="http://www.w3.org/1999/xlink" x="0px" y="0px"
	 viewBox="0 0 437.9 487.7" style="enable-background:new 0 0 437.9 487.7;" xml:space="preserve">
<style type="text/css">
	.st0{fill:#252367;}
	.st1{fill:#F7F9FB;}
	.st2{fill:#AEAED3;}
	.st3{fill:#262264;}
	.st4{fill:#4C2E90;}
	.st5{fill:#E9C49F;}
	.st6{fill:#C6D2DB;}
	.st7{fill:none;}
</style>
<g>
	<path class="st0" d="M268.9,350.2l-3.5,0.7l-0.1-0.3c0.8-2.2-0.4-4.1-1.2-6c-0.4-1.2-1.4-2.3,0.1-3.5
		C266.9,343.4,268.6,346.7,268.9,350.2z"/>
	<path class="st0" d="M264.1,338.8c0.3-2.7-0.3-6,3.9-6.3C266.9,334.6,267.8,338.2,264.1,338.8z"/>
	<path class="st1" d="M168.6,364c-1.7-7.1-0.4-14.6,3.7-20.7c1.7-2.7,3.6-5.1,7.3-2.6c1.1,0.7,2.4,0.9,3.6,0.4
		c-2.6-2.8-6.1-4.9-6.9-9.7c8.8,1.7,17.8,2,26.6,1c1.6,0.3,3,0.6,3.2,2.9c0.9,10.9-0.9,20.9-10,28.1
		C187.2,370.4,177.9,368.7,168.6,364z"/>
	<path class="st1" d="M234.7,332.4c9.4,2.3,19.2,2.6,28.8,1.1c-1.8,5.4-1.8,5.4-13,11.8c5.7,0.5,13-3.8,14.8,5.4l0.1,0.3
		c1.5,4.7,3.4,9.3,4.1,14.3c0.4,3,0.8,6.1-1.3,8.8c-20.2-1.9-34.8-16.8-35.4-36.2C232.7,335.8,231.7,333.3,234.7,332.4z"/>
	<path class="st2" d="M168.6,364c9.3,4.6,18.6,6.4,27.5-0.7c9.1-7.2,10.9-17.2,10-28.1c-0.2-2.2-1.5-2.6-3.2-2.9l7.7-1.6
		c2.5,17.5-1.1,32.3-15.9,43.1C185.6,380.5,170.2,375.7,168.6,364z"/>
	<path class="st2" d="M234.7,332.4c-2.9,1-1.9,3.5-1.9,5.4c0.6,19.4,15.2,34.3,35.4,36.2c-1.7,3.4-5,3.5-8.1,3.3
		c-12.4-0.9-22.4-6.3-29.2-16.9c-2.8-4.3-4-9.4-3.4-14.5c0.3-3.2,0.8-6.5,1-9.7C228.9,330,228.8,330,234.7,332.4z"/>
	<path class="st0" d="M218.8,52.5L218.8,52.5l-0.3-0.2L218.8,52.5z"/>
	<g>
		<path class="st3" d="M275.5,135.9c0.2-0.3,0.5-0.7,0.8-1C275.9,135.2,275.7,135.5,275.5,135.9z"/>
		<path class="st0" d="M123.6,184.1l4,0.8l0,0c-0.2,2.5-0.4,5,2.6,6.1c0.2,0.2,0.3,0.5,0.3,0.8c-0.1,0.8,0.3,1.7,1,2.1l0,0
			c-0.1,0.8,0.4,1.6,1.2,1.9l-0.1-0.1l1,1.2l0,0c0.9,4.2,4,5.7,7.8,6c2.7,0.2,3.5,1,3.2,4c-0.5,4.1,1.4,8.3,0,12.5
			c5.3,2.1,1.3,6.1,1.8,9.1l0,0c-1.3,0.4-2.3,1.3-2.8,2.6c-4.7,11.5-8.8,23-9.3,35.6c-0.2,4.6,0.7,9.4-1.3,13.7
			c-3.2,7-2.7,14.3-2.3,21.6c0.1,1.4,1,2.5,2.3,2.9l0.1,0.1c-0.8,2.9,0,4.7,3.3,4.8l1,0.1c1,1.7,1.1,4.7,3.7,4.3
			c2.6-0.4,4.6-2.8,6.3-4.8c1.5-1.7-0.5-2.5-1.2-3.5c2.2-0.5,5.1,0.2,5.7-3.2l0,0c2,0.2,3.1-0.9,3.3-2.7c0.6-4,4.4-7.3,2.3-11.8
			c-0.2-0.9-0.5-1.9-0.8-2.8c1.2-0.6,1.6-1.9,2.2-3c0.3-0.1,0.6-0.2,0.9-0.2c0.8,0,1.6-0.4,2-1.2c0.5-0.9,1.1-1.9,2.2-1.1
			c0.9,0.5,1.1,1.6,0.6,2.5c-0.1,0.2-0.3,0.4-0.5,0.5c-2.8,2.6-2.3,4.2,0.9,6.1c1.8,1,0.2,3.7,1.1,5.5s0.1,4,1.6,5.5l0.2,1.9
			c-1.7,1.9,0,3.4,0.7,5c0.1,0.3,0.2,0.5,0.2,0.8c-0.5,3,0.9,6.2-1,9c-2.7-6.1-2.7-12.7-3.8-19.1c-0.3-2.5-1-4.9-2.1-7.1
			c-2.5,5.6-4.9,11.1-7.7,16.5c-2.6,5.1-7.2,7.5-12,9.3c-3.4,1.3-6-0.9-8.5-3.3c-6.9-6.8-7.8-15.7-5.5-23.6
			c3.5-11.9,2.8-24.2,5.2-36.1c1.6-7.3,3.9-14.5,7-21.4c2.6-6.1,1.9-12.2,1.6-18.3c-0.2-4.8-0.7-9.2-6.8-11
			c-5.6-1.6-7.4-7.2-9.5-12.1C124.8,188.5,124.3,186.3,123.6,184.1z"/>
		<path class="st3" d="M283.8,134.5c-0.1-0.4-0.1-0.9,0.1-1.5C283.7,133.5,283.7,134.1,283.8,134.5z"/>
		<path class="st0" d="M268,331.9c-0.6-3.2,1.1-6.1,1.5-9.1c1.2-8.5,3-17,1.5-25.7c-0.3-1.9-1.4-4.7,1.8-5.9
			c1.8,13.5,2.5,27-3.6,39.8C269.1,331.4,268.4,331.6,268,331.9z"/>
		<path class="st0" d="M166.7,97.7c-4,4.6-9.8,6.1-14.9,8.8C155.6,101.5,160.9,99.1,166.7,97.7z"/>
		<path class="st0" d="M272.7,288.3c-2.7-1.7-2.7-3.3,0.1-4.9C272.8,285,272.7,286.6,272.7,288.3z"/>
		<path class="st0" d="M150,107.5c-0.1,1.1-0.9,1.9-2,1.9C148.1,108.4,149,107.6,150,107.5z"/>
		<path class="st0" d="M295.5,178.5c-0.2-1,0.5-2,1.5-2.2c0.1,0,0.1,0,0.2,0C297.3,177.5,296.5,178.1,295.5,178.5z"/>
		<path class="st1" d="M151.4,220c2.3-2.4,4.6-4.7,7.6-7.7c1.4,10.6,10,9.2,16.5,11.1c0.6,0.8,1.3,0.9,2,0.1l5.8,0.1
			c1.5,3.1,4.3,1.6,6.5,1.5c16.8-0.9,32.7-5.4,48.2-11.8c7.6-3.1,13.4-0.7,16.5,7c3.7,9.2,5.8,18.7,3.6,28.6l-2.8,0.8
			c-3.7,1-5.4,0.2-5.5-4.3c-0.2-7.9-2.3-9.4-10.4-9c-17.5,0.9-34.9,1.8-52.3,2.6c-6,0.3-7.9,2.4-7.8,8.6c0.2,6.9,0.2,6.9-6.9,6.9
			c-7.8,0-7.8,0-7.8-8c0-4.5,0-9,0-13.9c-2.4,0.8-1.8,2.6-2.6,3.7c-2.5,1.6-2.6,4.4-3.2,6.8c-3,11.9-3.9,24.1-5,36.3
			c-4.6-1.2-9.2-3-13.9-2.6c-5.1,0.4-5-2-4.8-5.6c0.9-14.9,4.6-29.5,11-42.9l0,0c2.1-2.5,3.8-5.3,5.1-8.3L151.4,220z"/>
		<path class="st1" d="M152.9,202.9c-14-10.5-20-25.5-22.3-42c-3.4-24.6,13.4-50.8,38.2-60.1c18.4-6.9,36.3-6.2,53.6,3.9
			c2.1,1.2,4.3,2.3,5.4,4.7c1,1.8,2.2,3.6,3.1,5.5c2.3,5,6,9.4,5.6,15.4c-9.8-9.4-21.8-12-34.8-10.6c-14.2,1.5-27.8,6.5-39.6,14.4
			c-6.5,4.1-12.1,9.6-16.3,16c-8.7,13.5-7.3,31.2,3.3,41.9l0,0c0.6,1.3,1.6,2.2,2.9,2.8l1.7,1.2l1.2,0.9l0,0
			c1.1,1.2,2.5,2.1,4.1,2.5l0.4,0.2c2.8,1.9,6,2.5,9.2,3.3C163.4,205.5,158.1,202.9,152.9,202.9z"/>
		<path class="st1" d="M249.2,279.4c3-2.8,1.8-6.4,2.1-9.7c4-1.5,8.3-0.8,12.4-1.9c2.4-0.6,3.4,0.7,3.5,3.2
			c0.1,3.8-0.8,7.7,0.6,11.5c2.7,13.2,2.8,26.9,0.1,40.2c-0.9,4.6-2.3,7.3-7.9,7.5c-9,0.3-17.9,0.8-26.4-2.6
			c-0.2-7.8,0.3-15.6-0.9-23.4c-0.6-3.6,1.2-6.6,4.6-8.4c4-2,7.5-4.6,10.6-7.8C250.3,285.1,251.3,282.6,249.2,279.4z"/>
		<path class="st2" d="M258.1,249c2.2-10,0.1-19.4-3.6-28.6c-3.1-7.7-8.9-10.1-16.5-7c-15.5,6.3-31.4,10.8-48.2,11.8
			c-2.1,0.1-4.9,1.6-6.5-1.5c13.8-1.5,27.3-5.3,39.8-11.4c12.5-6.2,23.1-14.6,31.1-26.2c3.1,2.8,4.1,7,6.7,10.2
			c5.8,7.3,14.3,6.5,18.6-1.8c3.3-6.6,5.9-13.5,7.6-20.7c6.3,0.4,6.3,0.4,4.6,6.4c-4.3,14.6-10.8,28.5-19.4,41c-2,2.9-2,2.8-4.8,0.5
			c-1.5,6.1-0.5,12.1-0.2,18C267.5,249,267.6,249,258.1,249z"/>
		<path class="st1" d="M168.7,307.8c0-0.3-0.1-0.6-0.2-0.8c0.5-1.8,1-3.5-0.7-5l-0.2-1.9c0.6-7.1-1.5-14.1-1.3-21.2
			c-0.3-4.5,2-5.9,6.2-5.4c2.6,0.2,5.2,0.2,7.8,0.2c0.1,3.5,0.4,7,3.2,9.6c-0.3,2.5,0.9,4.3,2.5,6.1c3.3,3.8,7.4,7,11.9,9.2
			c3.7,1.7,6.2,4.4,6.1,8.6c-0.1,6.9,0.6,13.6,0.9,20.5c-9.6,2.4-19,1.6-28.5-0.5c-2.1-0.5-2.6-1.8-3.3-3.6
			C171.3,318.4,171.6,312.6,168.7,307.8z"/>
		<path class="st2" d="M236.4,130.2c0.3-5.9-3.3-10.4-5.6-15.4c-0.9-1.9-2-3.7-3.1-5.5c1.1,0.1,2.2,0.6,3,1.4
			c12.6,10.4,25.3,38.2,18.6,58.4c-3,9.3-8.9,17.3-16.9,22.9c-18.2,12.9-38,21.2-60.9,18.7c-6.9-0.6-13.4-3.4-18.6-7.8
			c5.2,0.1,10.5,2.6,15.7,0.1c16.7,2.8,32-1.7,46.6-9.2l0.3-0.1c2.6-1.2,5.3-2.2,7.4-4.4l-0.1,0.1l1.3-0.8h0.1
			c2.9-1.5,5.5-3.6,7.6-6.1l-0.2-0.2l0.2,0.2c3.3-2.4,6-5.5,7.8-9l1.1-1.9c2.9-4,4.5-8.9,4.6-13.9c0-0.7,0.1-1.3,0.1-2
			c0.8-4,0.3-8.1-1.2-11.8l-0.8-2l-0.7-1.3h0.1l-1-2l0,0c-0.4-1.4-1.2-2.7-2.3-3.7v0.1l-1-1.2l0.1,0.1l-1-1.2h0.1l-0.4-1.4
			L236.4,130.2L236.4,130.2z"/>
		<path class="st2" d="M205,327.5c-0.4-6.8-1.1-13.6-0.9-20.5c0.1-4.2-2.5-6.9-6.1-8.6c-4.5-2.2-8.6-5.3-11.9-9.2
			c-1.6-1.7-2.8-3.6-2.5-6.1c4.3,1,8.6-0.2,12.9,0.3c9.6,1.6,19.2,0.9,28.8,0.5c6.8-0.3,13.7-0.6,20.2-2.8l3.8-2
			c2.1,3.2,1.1,5.8-1.3,8.4c-3,3.2-6.6,5.8-10.6,7.8c-3.4,1.9-5.2,4.9-4.6,8.4c1.2,7.8,0.7,15.6,0.9,23.4c-3.6-0.7-5-2.7-4.9-6.5
			c0.2-7.8-0.5-15.7-2.2-23.3c-1-4.4,2.8-5.4,6-6.2s6.5-1.8,9.1-4.5c-14.7,4.1-29.7,4.6-44.8,3.3c3.1,2.3,6.6,2.8,10.1,3
			c2.6,0.2,3.2,1.3,3.1,3.7c-0.1,8.5-0.2,17,0.1,25.5C210.2,326.5,208.6,327.8,205,327.5z"/>
		<path class="st1" d="M240.6,240.4c-10.6,0.6-21.1,1.2-31.7,1.6c-12.4,0.5-12.4,0.4-11.4,12.8c0.2,2.8,0.5,4.7,4.1,4.1
			c2.5-0.5,2.9,1.4,3.1,3.4c0.2,3.4,0.5,6.8,0.7,10.2c3.4-1.6,7.4,0.4,10.7-2c-0.1-1-0.3-1.9-0.4-2.9c-0.1-2.6-1.1-5.6,3.3-6
			c4-0.3,6.8,0.2,6.4,5.1c0,0.6,0.2,1.3,0.4,1.9l3.8-2c-0.9-6.7,4-5.7,7.9-6c0.1-1.4,1.4-2.6,1-4.1c-7.5,2.3-9.3,1.4-9.6-4.3
			c-0.2-3.6,1.6-4.4,4.7-4.5s5.6,0.1,5.2,4.2c-0.1,1.3-0.1,2.6-0.1,3.9c3.5-1.5,3.7-5,4.7-8c0.5-1.4-0.5-3.5,2.1-3.8
			C245.6,240.5,243.4,240.2,240.6,240.4z M219.6,258c-4.4,0.8-4.5-1.8-4.9-4.9c-0.5-5,2.8-4.6,5.9-4.9c3.9-0.3,3.8,2.3,4.1,5.1
			C225.1,257.7,222.8,258.4,219.6,258L219.6,258z"/>
		<path class="st1" d="M287.1,173.8c-1.7,7.2-4.3,14.1-7.6,20.7c-4.3,8.3-12.7,9-18.6,1.8c-2.6-3.2-3.7-7.3-6.7-10.2
			c2.3-6.6,6.8-12.1,9.6-18.5c0.9-1.9,1.9-1.2,3.1-0.5C273.1,170.8,280.1,172.2,287.1,173.8z"/>
		<path class="st2" d="M238.6,255.8c3.5-1.5,3.7-5,4.7-8c0.5-1.4-0.5-3.5,2.1-3.8c1.6,10,1.4,20.1,1.9,30.1c0.1,2.4-1.7,2.9-3.6,3
			c-11.9,0.5-23.8,1.2-35.7,1.5c-5,0.1-2-4-2.6-6.2c3.4-1.6,7.4,0.4,10.7-2c3.6,1.4,7.2,2.4,9.7-1.9l3.8-2c0.2,2.3,0.7,4.4,3.7,4.1
			c2-0.2,4.8,0.9,5.7-1.5c1.1-2.9,1.4-6.1-1.5-8.5c0.1-1.4,1.4-2.5,1-4.1C238.3,256.2,238.4,255.9,238.6,255.8z"/>
		<path class="st2" d="M249.6,178.7c2.9,2.5,1.4,4.6,0,6.7c-8.1,12.2-19.8,19.8-32.8,25.5c-14.3,6.2-29,10.2-44.8,7.7
			c-0.7,0-1.3-0.1-1.9-0.3c-2.2-1-5.6-0.1-6.1-3.8c-0.1-0.9,0.1-0.9,6,0c19.6,2.8,37.1-3.4,54-12.2
			C234.4,196.8,243.2,189.4,249.6,178.7z"/>
		<path class="st1" d="M277.3,220.9c1.8,5,1.3,9.6,1.6,14.1c0.7,10.6,1.2,21.2,1.9,31.8c0.2,2.7,0,5.3-1.6,7.5s-3.6,4.7-6.2,4
			c-2.4-0.6-0.9-3.7-0.9-5.6c0-4.8-1-9.8,1.9-14.3c0.9-1.6,0.8-3.6-0.1-5.2c-3.8-7-2.4-14.6-2.7-22
			C270.9,227.2,275.4,225,277.3,220.9z"/>
		<path class="st1" d="M184.5,270.6c-0.4-7.7-0.7-15.4-1.3-23c-0.4-4.7,2.6-4.3,5.6-4.6c3.3-0.4,4.7,0.5,4.5,4.1
			c-0.1,3.3,0.1,6.5,0.4,9.8c0.2,3.1-0.5,7,4.9,6c1-0.2,1.5,0.5,1.4,1.5c-0.3,2.8,1.8,5.3,0.9,8.1
			C195.4,272.2,189.9,271.6,184.5,270.6z"/>
		<path class="st2" d="M153.9,279.5c1.1-12.2,2-24.4,5-36.3c0.6-2.4,0.7-5.3,3.2-6.8c-1.5,8.2-0.1,16.8-2.9,24.9
			c-0.3,1.3-0.1,2.6,0.5,3.7c2.9,5.4,2.9,11.8,0,17.2c-0.3,0-0.6,0.1-0.9,0.2C156.5,282.6,155.5,280.6,153.9,279.5z"/>
		<path class="st1" d="M127.6,184.9c-1.5-4.1-3.1-8.2-4.6-12.3c-1.7-4.7-1.2-8.8,3-12.9c1.6,10.1,4.8,19.9,9.4,29.1
			c-1.3,2.1-3.3,0.7-5,1.1L127.6,184.9L127.6,184.9z"/>
		<path class="st1" d="M253.3,141.8c-2.6-9.7-7-18.9-13-27c4.9-0.8,8.4,0.8,10.3,5.5c2.6,6.1,4.8,12.4,7.2,18.6
			C255.5,138.7,256.3,143.2,253.3,141.8z"/>
		<path class="st1" d="M266.4,252.3c1.4,0.2,3.3,0.6,3.5,2.9c0.2,2.3-0.6,4-3,4.4c-4.5,0.8-9.1,1.2-13.6,1.9
			c-2.9,0.5-2.8-1.7-2.9-3.3s-1.2-3.9,1.9-4.1c0.7,0,1.3-0.1,2-0.2L266.4,252.3z"/>
		<path class="st2" d="M184.5,270.6c5.4,1,10.9,1.7,16.4,1.9c0.7,6.7,0.7,6.7-5.8,7c-0.5,0-1,0-1.5,0.1
			C184.4,279.9,184.4,279.9,184.5,270.6z"/>
		<path class="st4" d="M262.7,154.4c1,6.9-2.7,12-5.4,17.4c-0.8,1.4-2.6,1.9-4,1.2c-0.1-0.1-0.2-0.1-0.3-0.2c-1.4-1-0.9-3-0.3-4.5
			C254.9,162.8,258.3,158.1,262.7,154.4z"/>
		<path class="st1" d="M245.4,281.3c-6.6,2.2-13.5,2.5-20.2,2.8c-9.6,0.4-19.2,1-28.8-0.5C212.7,282.5,229,281.4,245.4,281.3z"/>
		<path class="st1" d="M149.7,217l-2.6,2.2c-1.1-4.2-0.7-8.2-1-12.2c-0.2-2.1,1-2.8,2.6-2c2.1,1.2,4.2,2.5,6.1,4
			c1.2,0.9,0.2,1.6-0.4,2.3c-1.6,1.8-3.7,3.1-4.5,5.6L149.7,217z"/>
		<path class="st1" d="M179.7,259.8c0,1.2,0.1,2.5,0.1,3.7l-16,0.2c-2-3.6,0.3-4.9,3.2-5c4.1-0.1,8.3-0.7,12.5,0.3
			C179.3,259.3,179.4,259.6,179.7,259.8L179.7,259.8z"/>
		<path class="st2" d="M267.8,282.4c-1.5-3.8-0.5-7.7-0.6-11.5c-0.1-2.5-1.1-3.8-3.5-3.2c-4.1,1-8.4,0.4-12.4,1.9
			c-0.6-2.4-0.4-4.1,2.8-4.1c2.6-0.1,5.2-0.4,7.8-0.9c6.1-0.8,6.1-0.8,6.1,5.6C267.9,274.3,267.9,278.3,267.8,282.4z"/>
		<path class="st2" d="M253.3,141.8c3,1.4,2.2-3.1,4.5-2.9c3.4,6.6,2.9,11.3-2.1,17L253.3,141.8z"/>
		<path class="st2" d="M130.5,190c1.7-0.4,3.7,1,5-1.1c1.3,2,2.6,4,4,6c1.4,2,2.9,3.7,4.6,5.9c-4.6,0.6-7.4-2-10.5-3.9l0,0l-1-1.2
			l0.1,0.1l-1.2-1.9l0,0l-1-2.1c0.1-0.3,0-0.6-0.3-0.8L130.5,190z"/>
		<path class="st2" d="M180.3,273.6c-2.6,0.1-5.2,0-7.8-0.2c-4.2-0.5-6.4,0.9-6.2,5.4c-1.6-8.8-1.6-9,7.2-8.7
			C175.9,270.2,180.9,267.2,180.3,273.6z"/>
		<path class="st2" d="M163.8,263.7l16-0.2c0.2,0.8,0.5,2-0.3,2.1c-5.1,0.5-10.2,1.5-15.1-0.6C164,264.9,163.9,264.2,163.8,263.7z"
			/>
		<path class="st0" d="M149.8,217l1.6,3.1l-0.1,0.1L149.8,217L149.8,217z"/>
		<path class="st2" d="M177.6,223.5c-0.7,0.8-1.4,0.7-2-0.1L177.6,223.5z"/>
		<path class="st2" d="M179.7,259.8c-0.3-0.1-0.4-0.5-0.3-0.8c0,0,0,0,0-0.1c0.2,0.2,0.3,0.3,0.5,0.5
			C179.9,259.5,179.7,259.7,179.7,259.8z"/>
		<path class="st5" d="M210,83.5h-0.1l0,0H210L210,83.5L210,83.5z"/>
		<path class="st3" d="M276.9,134.2c-0.4,1.2-1.1,2.2-2.1,2.8C274.8,135.5,275,134.2,276.9,134.2z"/>
		<path class="st3" d="M277.9,133.1l-1,1.1L277.9,133.1z"/>
		<path class="st3" d="M278.8,132.1l-1,1.1L278.8,132.1z"/>
		<path class="st1" d="M133,305.1l-0.1-0.1c-2.5-6.8-2.4-14.2,0.2-20.9c0.5-1.4,0.8-2.9,2.7-3c5.6-0.1,11.3-0.4,16.2,3.2
			c-0.6,4-2.8,6.9-6.7,8.1c-3.2,1-4.4,3-5.6,6c-1.2,3.1-1.8,7-5.5,8.7L133,305.1z"/>
		<path class="st3" d="M152.1,284.2c-4.9-3.6-10.6-3.3-16.2-3.2c-1.9,0-2.2,1.6-2.7,3c-2.6,6.7-2.7,14.2-0.2,20.9
			c-1.3-0.4-2.2-1.6-2.3-2.9c-0.5-7.3-0.9-14.6,2.3-21.6c1.9-4.3,1.1-9.2,1.3-13.7c0.5-12.6,4.6-24.2,9.3-35.6
			c0.5-1.2,1.5-2.2,2.8-2.6c-6.4,13.5-10.1,28-11,42.9c-0.2,3.7-0.3,6.1,4.8,5.6c4.7-0.4,9.3,1.3,13.9,2.6c1.6,1.1,2.6,3.1,4.9,2.9
			c-0.6,1.1-1,2.4-2.2,3L152.1,284.2z"/>
		<path class="st2" d="M152.1,284.2l4.5,1.2c0.2,1,0.5,1.9,0.8,2.8c-1.4,5-3.3,9.9-5.6,14.5l0,0c-2.1,0.8-3.1-0.8-4.2-2
			c-0.3-0.7-0.6-1.4-0.9-2.1c-2.5-3.4-4-2-4.5,1.2c-0.6,3.9-1.7,7.5-4.9,10.1l-1-0.1l-1.9-3c3.7-1.7,4.3-5.5,5.5-8.7
			c1.1-2.9,2.4-5,5.6-6C149.3,291.1,151.5,288.2,152.1,284.2z"/>
		<path class="st3" d="M137.3,310c3.2-2.6,4.2-6.2,4.9-10.1c0.5-3.2,2-4.6,4.5-1.2c-0.2,0.2-0.4,0.3-0.6,0.5
			c-1.7-0.1-2.9,0.4-2.9,2.4s0.5,3.9,2.9,4.5l0,0c0.7,1.1,2.7,1.9,1.2,3.5c-1.8,2-3.6,4.4-6.3,4.8
			C138.3,314.8,138.2,311.7,137.3,310z"/>
		<path class="st3" d="M151.7,302.8c2.4-4.6,4.3-9.5,5.6-14.5c2,4.5-1.7,7.9-2.3,11.8C154.7,301.9,153.7,303,151.7,302.8z"/>
		<path class="st3" d="M147.5,300.7c1.1,1.2,2.1,2.8,4.2,2c-0.5,3.4-3.4,2.8-5.7,3.2l0,0l0.9-4.9L147.5,300.7z"/>
		<path class="st3" d="M130.5,190c-0.1,0.4-0.2,0.7-0.3,1c-3-1.1-2.8-3.6-2.6-6.1L130.5,190z"/>
		<path class="st3" d="M167.8,302c1.8,1.4,1.2,3.2,0.7,5C167.9,305.4,166.1,303.9,167.8,302z"/>
		<path class="st3" d="M134.4,306.9l1.9,3c-3.2-0.1-4.1-1.9-3.3-4.8C133.5,305.7,133.9,306.3,134.4,306.9z"/>
		<path class="st3" d="M131.4,193.9l1.2,1.9C131.8,195.5,131.3,194.7,131.4,193.9z"/>
		<path class="st3" d="M130.4,191.8l1,2.1C130.7,193.5,130.3,192.6,130.4,191.8z"/>
		<path class="st3" d="M132.5,195.7l1,1.2L132.5,195.7z"/>
		<path class="st0" d="M286.9,136.2L286.9,136.2c-0.3,0-0.6,0-0.8-0.1c-0.1,0-0.2-0.1-0.4-0.1c-0.6-0.2-1-0.4-1.4-0.7
			c-0.1-0.1-0.2-0.2-0.3-0.3c-0.1-0.1-0.1-0.2-0.1-0.2c0-0.1-0.1-0.2-0.1-0.3c-0.1-0.4-0.1-0.9,0.1-1.5c0-0.1,0.1-0.2,0.1-0.4
			c0.1-0.2,0.2-0.4,0.3-0.6c0-0.1,0.1-0.2,0.2-0.3c0.3,0.1,0.5,0.3,0.7,0.4l0,0c0.1,0.1,0.2,0.2,0.3,0.2c0.2,0.2,0.3,0.3,0.5,0.5
			c0.1,0.1,0.1,0.2,0.2,0.3c0,0.1,0.1,0.2,0.1,0.3l0,0c0,0.1,0.1,0.2,0.1,0.3c0.1,0.2,0.1,0.4,0.2,0.6c0.1,0.3,0.1,0.7,0.2,1
			C286.7,135.6,286.8,135.9,286.9,136.2z"/>
		<path class="st0" d="M243.4,141.9l0.8,2c-1.6,4.1-0.8,8,1.2,11.8c0,0.7-0.1,1.3-0.1,2c-2.6,4.3-5.7,8.4-4.6,13.9
			c-0.4,0.6-0.8,1.3-1.1,1.9c-5.7,0.4-7.4,4.1-7.8,9l-0.2-0.2l0.2,0.2c-3.9,0.4-7.8,0.7-7.6,6.1h-0.1l-1.3,0.8l0.1-0.1
			c-3.5-0.2-7.4-1.3-7.4,4.4l-0.3,0.1c-5.7-0.4-10.4,2.9-15.4,4.6c-8.3,2.8-16.5,4.1-25.3,3c-5-0.6-9.9-3.2-15.1-1.6l-0.4-0.2
			c2.6-7.3-2.9-1.4-4.1-2.5l0,0l-1.2-0.9l-1.7-1.3c-0.1-1.6-1.4-2.8-2.9-2.8l0,0c-0.4-2.9,2-5.9-0.5-8.7c-2.1-6.2-2.2-12.9-0.3-19.2
			c0.9-3,2.5-4.3,5.5-5.4c8.9-3,15.5-9,18.5-18.1c0.7-2.6,2.6-4.8,5.1-5.9c13.9-6.8,28.5-10.2,44-8.7c5.2,2.8,10.9,4.6,16.4,6.6h0
			l1,1.2l-0.1-0.1l1,1.2v-0.1c-0.1,1.8-0.1,3.5,2.3,3.7l0,0c-0.3,1-0.1,1.7,1,2h-0.1C242.9,141,243.2,141.4,243.4,141.9z"/>
		<path class="st3" d="M237.4,131.3l-0.9-1.1l-0.1-0.1l0.1,0.1c-9.8-9.4-21.8-12-34.8-10.6c-14.2,1.5-27.8,6.5-39.6,14.4
			c-6.5,4.1-12.1,9.6-16.3,16c-8.7,13.5-7.3,31.2,3.3,41.9c-0.4-2.9,2-6-0.5-8.7c-3.9-3.1-3.7-7.8-4.2-12c-1-8.4,1.9-16.9,7.9-22.9
			c17.2-17.9,38.1-26.4,63.1-24.1c2.1,0.1,4.2,0.7,6,1.8c5.2,2.8,10.9,4.6,16.4,6.6L237.4,131.3z M225.1,125.4
			c-0.2,0.1-0.6,0.4-0.7,0.4c-0.3-0.3-0.6-0.6-0.9-0.9c0.3-0.1,0.6-0.4,0.8-0.4C224.8,124.4,225.3,124.7,225.1,125.4L225.1,125.4z"
			/>
		<path class="st3" d="M159.4,199.6c5.2-1.6,10.1,1,15.1,1.6c8.8,1.1,17-0.2,25.3-3c5.1-1.7,9.7-5,15.4-4.6
			c-14.6,7.6-29.9,12-46.6,9.2C165.4,202.1,162.2,201.5,159.4,199.6z"/>
		<path class="st3" d="M154.9,196.9c1.2,1.1,6.7-4.8,4.1,2.5C157.5,199,156,198.1,154.9,196.9z"/>
		<path class="st3" d="M149.1,192c1.6,0,2.8,1.3,2.9,2.8C150.8,194.2,149.7,193.2,149.1,192z"/>
		<path class="st3" d="M153.7,196l1.2,0.9L153.7,196z"/>
		<path class="st3" d="M240.7,171.5c-1.1-5.5,2-9.6,4.6-13.9C245.2,162.6,243.6,167.4,240.7,171.5z"/>
		<path class="st3" d="M231.8,182.4c0.4-4.9,2.1-8.7,7.8-9C237.8,177,235.1,180.1,231.8,182.4z"/>
		<path class="st3" d="M245.4,155.6c-2-3.8-2.9-7.6-1.2-11.8C245.8,147.6,246.2,151.7,245.4,155.6z"/>
		<path class="st3" d="M224.2,188.5c-0.2-5.4,3.7-5.7,7.6-6.1C229.7,184.9,227.1,187,224.2,188.5z"/>
		<path class="st3" d="M215.5,193.6c0-5.6,3.9-4.6,7.4-4.4C220.9,191.3,218.1,192.4,215.5,193.6z"/>
		<path class="st3" d="M241.9,138.6c-2.4-0.2-2.4-1.9-2.3-3.7C240.6,135.9,241.4,137.2,241.9,138.6z"/>
		<path class="st3" d="M242.9,140.6c-1.2-0.2-1.3-1-1-2C242.2,139.3,242.5,139.9,242.9,140.6z"/>
		<path class="st3" d="M222.8,189.3l1.3-0.8L222.8,189.3z"/>
		<path class="st3" d="M238.8,133.8l-1-1.2L238.8,133.8z"/>
		<path class="st3" d="M239.6,134.9l-1-1.2L239.6,134.9z"/>
		<path class="st1" d="M237.4,131.3c-0.3-0.4-0.7-0.8-1-1.2L237.4,131.3z"/>
		<path class="st3" d="M243.4,141.9c-0.2-0.4-0.4-0.9-0.7-1.3C242.9,141,243.2,141.4,243.4,141.9z"/>
		<path class="st3" d="M237.4,260.6c2.9,2.4,2.6,5.6,1.5,8.5c-0.9,2.5-3.7,1.3-5.7,1.5c-2.9,0.3-3.5-1.8-3.7-4.1
			C228.5,259.9,233.5,260.9,237.4,260.6z"/>
		<path class="st3" d="M225.7,268.6c-2.6,4.2-6.1,3.2-9.7,1.9c-0.1-1-0.3-1.9-0.4-2.9c-0.1-2.6-1.1-5.6,3.3-6c4-0.3,6.8,0.2,6.4,5.1
			C225.4,267.3,225.5,268,225.7,268.6z"/>
		<path class="st3" d="M238.6,255.8c-0.3,0.1-0.4,0.4-0.2,0.7l0,0c-7.5,2.3-9.3,1.4-9.6-4.3c-0.2-3.6,1.6-4.4,4.7-4.5
			s5.6,0.1,5.2,4.2C238.5,253.2,238.6,254.5,238.6,255.8z"/>
		<path class="st3" d="M219.6,258c-4.4,0.8-4.5-1.8-4.8-4.9c-0.5-5,2.8-4.6,5.9-4.9c3.9-0.3,3.8,2.3,4.1,5.1
			C225.1,257.7,222.8,258.4,219.6,258z"/>
		<path class="st3" d="M146.6,298.6c0.3,0.7,0.6,1.4,0.9,2.1l-0.5,0.4l-1-2C146.2,298.9,146.4,298.8,146.6,298.6z"/>
		<path class="st0" d="M146.1,299.1l1,2l-0.9,4.9c-2.4-0.5-2.8-2.4-2.9-4.5C143.2,299.4,144.4,299.1,146.1,299.1z"/>
		<path class="st2" d="M148.6,183.2c-3.9-3.1-3.7-7.8-4.2-12c-1-8.5,2-16.9,8-22.9c17.2-17.9,38.1-26.4,63.1-24.1
			c2.1,0.1,4.2,0.7,6,1.8c-15.5-1.5-30.1,1.9-44,8.7c-2.5,1.1-4.4,3.3-5.1,5.9c-3,9-9.6,15-18.5,18.1c-3,1-4.6,2.4-5.5,5.4
			C146.4,170.2,146.5,177,148.6,183.2z"/>
		<path class="st0" d="M225.1,125.3c-0.2,0.1-0.6,0.4-0.7,0.4c-0.3-0.3-0.6-0.6-0.9-0.9c0.3-0.1,0.6-0.4,0.8-0.4
			C224.8,124.4,225.3,124.7,225.1,125.3z"/>
		<path class="st3" d="M299.5,170.1h-0.1"/>
		<path class="st6" d="M286.9,129L286.9,129c1.7,0,3-1.4,3-3V3c0-1.7-1.4-3-3-3l0,0c-1.7,0-3,1.4-3,3v122.9
			C283.9,127.6,285.3,129,286.9,129z"/>
		<path class="st3" d="M295.9,170.5c0.6-1.7,0.9-3.4-0.3-5c0,0,0,0,0,0.1c-0.1,0.4-0.1,0.8-0.2,1.2c-0.1,0.5-0.3,1-0.5,1.4
			s-0.5,0.8-0.7,1s-0.4,0.3-0.6,0.5c-1.5,1-3.6,0.6-5.9-0.3l0,0l0,0c-6.7-0.5-12.9-2.8-18.8-5.8c-2.3-1.2-2.6-2.7-2.2-5.2
			c1.1-6.5,3.6-12.5,6.5-18.3c0,0,0-0.1,0.1-0.1c0.2-0.4,0.5-0.9,0.7-1.3c0.3-0.6,0.7-1.1,1-1.7l0,0c0.2-0.3,0.4-0.6,0.7-1
			c0.1-0.4,0.4-0.8,0.8-1l0,0c0.2-0.2,0.4-0.5,0.6-0.7l0,0c0.2-0.2,0.4-0.4,0.6-0.6c0.5-0.5,1-1,1.6-1.5c0.1-0.1,0.3-0.3,0.5-0.4
			l2.6-1.6l0,0c1,3.2,0.3,5.4-2,7.5c-3.1,2.9-4.1,6.5-1.5,10.5c0.1,0,0.2,0,0.3,0c0.1,0,0.2,0,0.3,0.1c3,0.6,2.8,4.4,5.1,5.8
			c0,0,0,0,0-0.1v-0.3c0.1-1.2-0.5-2.2-0.9-3.2c-0.2-0.4-0.4-0.9-0.3-1.3v-0.1c0.1-0.3,0.3-0.6,1-0.7c1.2-0.1,1.4,1,1.7,1.9l0,0h0.1
			l3.9-2.1c-0.9-0.3-1.7-1-2-1.9c-0.1-0.1-0.1-0.2-0.1-0.4c0-0.1-0.1-0.3-0.1-0.5l0,0c-0.9,0.2-1.9,0.5-2.8,0.7
			c-0.5,0.1-1,0.1-1.4,0c-0.8-0.1-1.4-0.6-1.8-1.6c-0.4-1.1-0.2-2,0.2-2.8c0.2-0.4,0.5-0.7,0.8-1c0.1-0.1,0.2-0.2,0.3-0.3
			c0.5-0.5,1.1-1,1.7-1.5c0.4-0.3,0.7-0.5,1.1-0.8l1.2-1.6c-0.3,0-0.5-0.1-0.8-0.2c-0.1,0-0.2-0.1-0.4-0.1c-0.6-0.2-1-0.4-1.4-0.7
			c-0.1-0.1-0.2-0.2-0.3-0.3c-0.1-0.1-0.1-0.2-0.1-0.2c0-0.1-0.1-0.2-0.1-0.3c-0.1-0.4-0.1-0.9,0.1-1.5c0-0.1,0.1-0.2,0.1-0.4
			c0.1-0.2,0.2-0.4,0.3-0.6c0-0.1,0.1-0.2,0.2-0.3c0.3,0.1,0.5,0.3,0.7,0.4l0,0c0.1,0.1,0.2,0.2,0.3,0.2c0.2,0.2,0.3,0.3,0.5,0.5
			c0.1,0.1,0.1,0.2,0.2,0.3c0,0.1,0.1,0.2,0.1,0.3l0,0c0,0.1,0.1,0.2,0.1,0.3c0.1,0.2,0.1,0.4,0.2,0.6c0.1,0.3,0.1,0.7,0.2,1
			s0.1,0.6,0.2,0.9c1.8-0.6,3.7-0.5,5.4,0.1l0,0c-0.2-0.8-0.5-1.6-0.4-2.3c0-0.1,0-0.2,0-0.2c0-0.1,0-0.2,0-0.3
			c0.2-0.6,0.6-1.1,1.5-1.5c0,0,0,0,0-0.1c0.3-1.5,0-3.1-0.8-4.5c0-0.3-0.1-0.6-0.2-0.8l0,0c0-0.1-0.1-0.2-0.1-0.3c0,0,0,0,0-0.1
			l0,0c-0.7-0.1-1.5-0.3-2.2-0.4c-1.5-0.1-3.5-0.2-5.9,0.2c-0.4,0.1-0.8,0.1-1.1,0.2c-1.8,0.4-3.4,0.9-4.6,1.5l0,0l0,0
			c-0.7,0.5-1.7,1.2-2.8,2.2c-3.6,3.1-6.8,5.9-6.6,9.1c-1.9,2.3-2,6-4.5,8.3c-2-10.9-6.5-20.3-10.8-29.7c-2-4.2-4.9-7.3-10.5-7.5
			c-3-0.1-6.3-0.1-9.2-2.4C217,94,197.7,88.1,175.6,94.5c-2.9,0.8-6.3,0.5-8.4,3.3c-4,4.7-9.8,6.1-14.9,8.8l-1.8,1.1
			c-0.1,1.1-0.9,1.9-2,1.9c-1.4,2.8-4.8,3.3-6.6,5.6c-5.9,7.6-11,15.7-13.2,25.3c-1.7,7.4-1.2,15.7-8.7,20.8c-0.6,0.4-0.8,1.7-1,2.7
			c-2.4,7.8,2.4,13.7,5.1,20.2l4,0.8c-1.5-4.1-3-8.2-4.6-12.3c-1.7-4.7-1.2-8.8,3-12.9c1.6,10.1,4.8,19.9,9.4,29.1
			c1.3,2,2.5,4,3.9,6c1.4,2,2.9,3.7,4.6,5.9c-4.6,0.6-7.4-2-10.5-3.9c0.4,2.1,1.4,3.5,2.8,4.5c1.4,0.9,3.1,1.3,5,1.5
			c2.7,0.2,3.5,1,3.2,4c-0.5,4.1,1.4,8.3,0,12.5c0.2,0.1,0.4,0.2,0.6,0.3l0.2,0.1c0.2,0.1,0.4,0.2,0.6,0.4l0.3,0.3
			c0.1,0.1,0.2,0.2,0.3,0.3l0.1,0.1c0.2,0.2,0.3,0.5,0.4,0.7c0,0.1,0.1,0.3,0.1,0.5v0.3c0,0.1,0,0.3,0,0.4v0.4c0,0.2,0,0.4-0.1,0.6
			c0,0.2-0.1,0.4-0.1,0.6c-0.1,0.6-0.3,1.2-0.5,1.9c0,0.1-0.1,0.3-0.1,0.5s-0.1,0.3-0.1,0.4s0,0.3,0,0.4c0,0.2,0,0.3,0,0.5
			s0,0.4,0,0.6c0.4-0.6,0.9-1.1,1.3-1.7l0.5-0.7l0.5-0.8l0.5-0.8l0.5-0.9c0.3-0.6,0.7-1.2,1-1.8c0.1-0.3,0.2-0.5,0.4-0.8
			c0.1-0.3,0.2-0.6,0.4-0.9l-1.6-3.1l-2.6,2.2c-1.2-4.2-0.7-8.2-1-12.2c-0.2-2.1,1-2.8,2.6-2c2.1,1.2,4.2,2.5,6.1,4
			c1.2,0.9,0.2,1.6-0.5,2.3c-1.6,1.8-3.7,3.1-4.5,5.6c0.5,1,1.1,2,1.6,3.1l7.6-7.7c1.5,10.6,10,9.2,16.5,11.1l2,0.1l5.8,0.1
			c13.8-1.5,27.2-5.3,39.8-11.4c12.5-6.2,23.1-14.6,31.1-26.2c2.3-6.6,6.8-12.1,9.6-18.5c0.9-1.9,1.9-1.2,3.1-0.5
			c6.3,3.7,13.3,5.1,20.2,6.7c6.3,0.4,6.3,0.4,4.6,6.4c-4.2,14.6-10.8,28.5-19.4,41c-2,2.9-2,2.8-4.8,0.5c-1.5,6.1-0.5,12.1-0.2,18
			c0.4,9.2,0.5,9.2-9,9.3l-2.8,0.8c-3.7,1-5.4,0.1-5.5-4.3c-0.2-7.9-2.3-9.4-10.4-9c-17.4,0.9-34.9,1.8-52.3,2.6
			c-6,0.3-7.9,2.4-7.8,8.6c0.2,6.9,0.2,6.9-6.9,6.9c-7.8,0-7.8,0-7.8-8v-13.8c-2.4,0.8-1.8,2.6-2.5,3.7c-1.5,8.2-0.1,16.8-3,24.9
			c-0.3,1.3-0.1,2.6,0.5,3.7c2.9,5.4,2.9,11.9,0,17.2c0.8,0,1.6-0.4,2-1.2c0.5-0.9,1.1-1.8,2.2-1.1c0.8,0.5,1.1,1.6,0.6,2.5
			c-0.1,0.2-0.3,0.4-0.5,0.5c-2.8,2.6-2.3,4.2,1,6.1c1.8,1,0.2,3.7,1.1,5.5c0.8,1.8,0.1,4,1.6,5.5c0.7-7.2-1.5-14.1-1.3-21.2
			c-1.6-8.8-1.6-9,7.2-8.7c2.4,0.1,7.3-2.9,6.8,3.5c0.1,3.5,0.4,7,3.2,9.6c4.3,1,8.6-0.2,12.8,0.3c16.3-1.1,32.7-2.1,49-2.3l3.8-2
			c3-2.8,1.8-6.4,2-9.7c-0.6-2.4-0.4-4.1,2.8-4.1c2.6-0.1,5.2-0.4,7.8-0.9c6.1-0.8,6.1-0.8,6.2,5.6c0,4.1-0.1,8.2-0.2,12.2
			c2.7,13.3,2.7,26.9,0,40.2c-0.9,4.6-2.3,7.3-7.9,7.5c-9,0.3-17.9,0.8-26.4-2.6c-3.6-0.7-5-2.7-4.9-6.5c0.2-7.8-0.5-15.7-2.2-23.3
			c-1-4.4,2.8-5.4,6-6.2s6.5-1.8,9.1-4.5c-14.7,4.1-29.7,4.6-44.8,3.3c3.1,2.3,6.6,2.8,10.1,3c2.6,0.2,3.2,1.3,3.1,3.7
			c-0.1,8.5-0.2,17,0.1,25.5c0.1,4-1.5,5.3-5.1,5.1c-9.5,2.4-19,1.6-28.5-0.5c-2.1-0.5-2.6-1.8-3.3-3.6c-1.9-5.1-1.6-10.9-4.5-15.7
			c-0.5,3,0.9,6.2-1,9c-0.3,3.6,0.6,7.3,2.6,10.3c3.1,4.7,2,8.4-0.7,12.6c-4.2,6.5-6.3,14.1-5.9,21.9c0.4,7.1,7.4,18.4,16.8,19.2
			c9.7,0.9,17.9-2.3,24-10.1c8.5-10.7,12.7-22.5,10.5-36.4c-1.8-11.7-2.3-23.5-1.4-35.3c0.4-4.5,3.2-4.4,6-4.7
			c3.7-0.5,3,2.5,3.1,4.7c0.2,1.8,0.4,3.6,0.6,5.3c1.5,12.2,2.3,24.3,0.1,36.6c-1,5.1-0.8,10.4,0.8,15.4c5.5,17,23.3,25.5,38.8,25.1
			c4.9-0.1,10.2-4.5,10.5-8.8c0.6-7.9,0.1-15.7-4.7-22.6l-3.5,0.7c1.5,4.7,3.4,9.3,4.1,14.3c0.4,3,0.7,6.1-1.3,8.8
			c-1.7,3.4-5,3.5-8.1,3.3c-12.4-0.9-22.4-6.2-29.2-16.9c-2.8-4.3-4-9.4-3.5-14.5c0.3-3.2,0.8-6.5,1-9.7c0.4-6.1,0.4-6.1,6.2-3.7
			c9.4,2.3,19.2,2.7,28.8,1.1c-1.8,5.4-1.8,5.4-13,11.8c5.7,0.5,13-3.8,14.8,5.4c0.8-2.2-0.4-4.1-1.2-6c-0.5-1.2-1.3-2.3,0.1-3.5
			l-0.1-2.4c0.3-2.7-0.3-6,3.9-6.3c0.1-0.2,0.1-0.4,0-0.6c-0.6-3.2,1.1-6.1,1.5-9.1c1.2-8.5,3-17,1.5-25.7c-0.3-1.9-1.4-4.7,1.8-5.9
			c0-1-0.1-2-0.1-3c-2.7-1.7-2.7-3.3,0.1-4.9c9.7-3.1,12.8-7.2,12.7-17.1c0-4.2-0.3-8.5-0.9-12.7c-1.6-10.4-0.2-20.9-1.8-31.3
			c-1-6.5,0.7-12.3,4-18.1c4.5-7.9,7.8-16.5,8.7-25.7c-0.2-1,0.5-2,1.5-2.2c0.1,0,0.1,0,0.2,0c0-0.5,0-1,0-1.5s0-1,0-1.5
			C295.6,173,295.4,171.9,295.9,170.5z M250.6,120.3c2.6,6.1,4.8,12.4,7.2,18.6c3.4,6.6,2.9,11.3-2.1,17c-0.8-4.9-1.6-9.5-2.4-14.1
			c-2.6-9.7-7-18.9-13-27C245.1,114,248.6,115.6,250.6,120.3z M152.9,202.9c-14-10.6-20-25.5-22.3-42c-3.4-24.6,13.4-50.7,38.2-60
			c18.4-6.9,36.3-6.2,53.6,3.8c2.1,1.2,4.3,2.3,5.4,4.7c1.1,0.1,2.2,0.6,3,1.4c12.6,10.4,25.3,38.2,18.6,58.4
			c-3,9.3-8.9,17.3-16.9,22.9c-18.2,12.9-38,21.2-60.9,18.7C164.7,210.1,158.2,207.3,152.9,202.9z M249.6,185.4
			c-8.1,12.2-19.8,19.8-32.8,25.5c-14.3,6.2-29,10.2-44.8,7.7c-0.7,0-1.3-0.1-1.9-0.3c-2.2-1-5.6-0.1-6.1-3.8c-0.1-0.9,0.1-0.9,6,0
			c19.6,2.8,37.1-3.4,54-12.2c10.5-5.5,19.2-12.9,25.6-23.6C252.5,181.2,251,183.3,249.6,185.4L249.6,185.4z M257.3,171.8
			c-0.8,1.4-2.6,1.9-4.1,1c-0.1,0-0.1-0.1-0.2-0.1c-1.4-1-0.9-3-0.3-4.5c2.1-5.4,5.6-10.1,10-13.8
			C263.7,161.3,260,166.4,257.3,171.8z M179.5,265.6c-5.1,0.5-10.2,1.5-15.1-0.6c-0.3-0.1-0.4-0.8-0.6-1.3c-2-3.6,0.3-4.9,3.2-5
			c4.1-0.1,8.3-0.7,12.5,0.3c0.2,0.2,0.3,0.3,0.5,0.5c0,0-0.1,0.2-0.2,0.3c0,1.2,0.1,2.5,0.1,3.7C180,264.3,180.3,265.5,179.5,265.6
			z M195.2,279.5l-1.5,0.1c-9.3,0.4-9.3,0.4-9.2-9c-0.4-7.7-0.7-15.4-1.3-23c-0.4-4.7,2.6-4.2,5.6-4.6c3.3-0.3,4.7,0.5,4.5,4.1
			c-0.1,3.3,0,6.5,0.4,9.8c0.2,3.1-0.5,7,4.9,6c1-0.2,1.5,0.5,1.4,1.5c-0.3,2.8,1.8,5.3,0.9,8.1
			C201.7,279.2,201.7,279.2,195.2,279.5z M243.6,277.2c-11.9,0.5-23.8,1.2-35.7,1.5c-5,0.1-2-4-2.6-6.2c-0.2-3.4-0.4-6.8-0.7-10.2
			c-0.1-1.9-0.6-3.8-3.1-3.4c-3.6,0.7-3.9-1.3-4.1-4.1c-0.9-12.3-1-12.2,11.5-12.8c10.6-0.4,21.2-1,31.7-1.6c2.8-0.2,5,0.1,4.7,3.7
			c1.6,10,1.4,20.1,1.9,30.1C247.4,276.6,245.6,277.1,243.6,277.2z M266.9,259.5c-4.5,0.8-9.1,1.2-13.6,1.9
			c-2.9,0.5-2.8-1.7-2.9-3.3c-0.1-1.6-1.2-3.8,1.9-4.1c0.6-0.1,1.3-0.1,2-0.2l12.1-1.6c1.4,0.2,3.3,0.6,3.5,2.9
			C270.2,257.4,269.3,259.2,266.9,259.5z M194.7,373.8L194.7,373.8c-9.1,6.7-24.5,1.9-26.1-9.8c-1.8-7.1-0.4-14.6,3.7-20.7
			c1.7-2.7,3.6-5.1,7.3-2.6c1,0.7,2.4,0.9,3.6,0.4c-2.6-2.8-6.1-4.9-6.9-9.7c8.8,1.7,17.8,2,26.6,1l7.7-1.6
			C213.1,348.2,209.5,363,194.7,373.8z M279.2,274.3L279.2,274.3c-1.6,2.2-3.6,4.7-6.3,4c-2.4-0.7-0.9-3.7-0.9-5.6
			c0-4.8-1-9.8,1.9-14.3c0.9-1.6,0.8-3.6-0.1-5.2c-3.8-7-2.3-14.7-2.7-22c-0.2-4,4.3-6.2,6.2-10.3c1.8,5,1.3,9.6,1.6,14.1
			c0.7,10.6,1.2,21.2,1.9,31.8C280.9,269.5,280.8,272.1,279.2,274.3z"/>
		<path class="st3" d="M301.1,159.6c-0.1-0.2-0.1-0.5-0.2-0.7c0-0.1,0.2-0.2,0.3-0.3C301.2,158.9,301.2,159.2,301.1,159.6z"/>
		<path class="st1" d="M278.8,132.1l3.4-2.1c1,3.2,0.3,5.4-2,7.5c-3.1,2.9-4.1,6.5-1.5,10.5c0,6.1,3.7,10.6,7.5,14.6
			c2.2,2.3,2.8,4.1,1.4,6.8c-6.8-0.5-12.9-2.8-18.9-5.8c-2.4-1.2-2.6-2.7-2.2-5.1c1.2-7.3,4.2-13.9,7.6-20.4l0.8-1.1
			c1-0.7,1.8-1.7,2.1-2.8l-0.1,0.1l1-1.1l-0.1,0.1L278.8,132.1L278.8,132.1z"/>
		<path class="st2" d="M287.6,169.4c1.3-2.6,0.8-4.4-1.4-6.8c-3.8-4-7.5-8.5-7.5-14.6c3.7,0.2,3.2,4.4,5.7,5.8h0.1l1.2,1.1l1.5,1
			c-0.2,5.7,4.7,6,8.2,7.9l0,0c0,0.3,0.1,0.6,0.4,0.7l0.1,1C294.8,170.8,291.6,170.9,287.6,169.4z"/>
		<path class="st1" d="M287.6,145.1c-2.2,0.5-5,1.8-6-0.9c-1-3,2-4.6,4-6.3c3.3,0.1,5,1.8,5,5.1L287.6,145.1z"/>
		<path class="st3" d="M295.2,163.8c-3.5-1.9-8.5-2.1-8.2-7.9h3.9c2,5.8,4.8,0.6,7.2,0.6C297.8,159.1,293.7,160.3,295.2,163.8z"/>
		<path class="st1" d="M285.8,150l4-2.1c1.8-0.1,2.9-1.7,4.4-2.3l2.7,2.3C292.4,152.4,289.2,153,285.8,150z"/>
		<path class="st2" d="M290.6,143c-0.1-3.3-1.7-5-5-5.1l1.2-1.6v-0.1c1.8-0.6,3.7-0.5,5.5,0.1C294.5,139.3,293.7,141.4,290.6,143z"
			/>
		<path class="st1" d="M298.1,156.4c-2.4,0-5.3,5.3-7.2-0.6l2.6-1.1c0.8,0.1,1.6-0.3,2.1-0.9h-0.1
			C297.2,153.8,300.1,152.7,298.1,156.4L298.1,156.4z"/>
		<path class="st3" d="M298.1,156.4c2-3.7-0.9-2.5-2.6-2.6c1-1.6,1.8-3.7,4.3-3.2c1,0.2,1.5,1.1,1.5,2.2
			C301.4,155.1,300,156,298.1,156.4z"/>
		<path class="st2" d="M296.9,147.9l-2.7-2.3c1.1-0.9,1.8-3.7,3.7-2C299.2,144.7,298.8,146.8,296.9,147.9z"/>
		<path class="st3" d="M295.6,153.8c-0.5,0.7-1.3,1-2.1,0.9C293.9,154,294.7,153.7,295.6,153.8z"/>
		<path class="st3" d="M295.5,164.5c-0.3-0.2-0.4-0.4-0.4-0.7c0.2,0.1,0.4,0.3,0.6,0.4C295.7,164.2,295.6,164.4,295.5,164.5z"/>
		<path class="st3" d="M285.5,154.9l-1.2-1.1L285.5,154.9z"/>
		<path class="st0" d="M299.4,170.1c-1.1-0.2-1.6,1.4-2.1,3.2c-1.7-0.4-1.9-1.4-1.4-2.9c0.6-1.7,0.9-3.4-0.3-5l-0.1-1c0,0,0,0,0-0.1
			L299.4,170.1z"/>
		<path class="st0" d="M295.5,153.8L295.5,153.8L295.5,153.8L295.5,153.8z"/>
		<path class="st3" d="M295.7,164.1c0,0.1-0.1,0.2-0.2,0.2l-0.4-0.7C295.3,163.8,295.5,164,295.7,164.1z"/>
		<path class="st7" d="M301.1,159.6c-0.6,3.5-1.1,7-1.7,10.5L301.1,159.6L301.1,159.6z"/>
		<path class="st3" d="M301,158.8c0-0.1,0.2-0.2,0.3-0.3c3.9-2.8,4.1-6,2.9-10.6c-1.8-6.8-6.9-10.8-10.7-15.9
			c-2.2,1-1.5,2.7-1.1,4.3c2.2,2.9,1.4,5.1-1.7,6.6l-3.1,2.1c0.2,1.3,1,2.3,2.3,2.8c1.8-0.1,2.9-1.7,4.4-2.3c1.1-0.9,1.8-3.7,3.7-2
			c1.3,1.1,0.9,3.2-1,4.3c-4.5,4.5-7.7,5.1-11.1,2.1c-0.3-0.9-0.5-2-1.7-1.9c-1.5,0.1-1,1.3-0.7,2.1c0.5,1.2,1.2,2.3,0.8,3.6
			l1.1,1.1l1.5,1h3.9l2.6-1.1c0.4-0.7,1.2-1,2-0.9c1-1.6,1.8-3.7,4.3-3.2c1,0.2,1.5,1.1,1.6,2.2c0.1,2.3-1.2,3.2-3.2,3.6
			c-0.3,2.7-4.4,3.9-2.9,7.3c2-1.4,4-2.8,6-4.2C301.1,159.3,301,159,301,158.8z"/>
		<path class="st6" d="M319.5,166.8c-0.2,2.2-2.6,2.2-4.3,2.2s-3.1-0.9-4.7-1.3c-1.2-0.3-2.9-0.9-3.6,0.4c-0.9,1.7,1,2.5,2,3.5
			c0.7,0.7,1.7,1,2.4,1.7c1.2,1,2.3,2.1,1.2,3.7c-1.1,1.6-2.6,1.3-3.9,0.4c-2.4-1.7-5-3.2-6.9-5.4c-1-1.1-1.7-1.7-2.3-1.8h-0.1
			c-1.4-2-2.7-4-4.1-5.9c-0.1-0.1-0.1-0.3-0.2-0.4c0,0,0,0,0.1,0l0,0l6-4.2c0,0,0,0,0-0.1c4.6,2.4,9.6,4.1,14.8,5
			C317.6,164.7,319.8,164.7,319.5,166.8z"/>
		<path class="st3" d="M301.1,159.6C301.2,159.5,301.2,159.5,301.1,159.6c-2,1.3-4,2.7-6,4.1l0,0L301.1,159.6z"/>
	</g>
</g>
</svg>
