<?xml version="1.0" encoding="utf-8"?>
<!-- Generator: Adobe Illustrator 26.2.1, SVG Export Plug-In . SVG Version: 6.00 Build 0)  -->
<svg version="1.1" id="Layer_1" xmlns="http://www.w3.org/2000/svg" xmlns:xlink="http://www.w3.org/1999/xlink" x="0px" y="0px"
	 viewBox="0 0 2499.6 2500" style="enable-background:new 0 0 2499.6 2500;" xml:space="preserve">
<style type="text/css">
	.st0{fill:#F3BA2F;}
</style>
<g id="Layer_2_00000142172185478949805630000017674001386374501271_">
	<g id="Layer_1-2">
		<path class="st0" d="M764.3,1050.5l485.5-485.4l485.6,485.6l282.5-282.4L1249.8,0.2L481.9,768L764.3,1050.5 M0,1250l282.5-282.5
			L564.9,1250l-282.5,282.3L0,1250z M764.3,1449.4l485.5,485.4l485.6-485.6l282.6,282.3l0,0l-768.2,768.3l-767.9-767.9l-0.4-0.4
			L764.3,1449.4 M1934.6,1250L2217,967.6l282.6,282.4l-282.4,282.4L1934.6,1250z"/>
		<path class="st0" d="M1536.2,1250L1536.2,1250l-286.4-286.8L1037.9,1175l0,0l-24.4,24.4l-50.1,50.1l-0.4,0.4l0.4,0.4l286.4,286.4
			l286.6-286.6l0,0L1536.2,1250"/>
	</g>
</g>
</svg>
