<?xml version="1.0" encoding="utf-8"?>
<!-- Generator: Adobe Illustrator 26.2.1, SVG Export Plug-In . SVG Version: 6.00 Build 0)  -->
<svg version="1.1" id="Layer_1" xmlns="http://www.w3.org/2000/svg" xmlns:xlink="http://www.w3.org/1999/xlink" x="0px" y="0px"
	 viewBox="0 0 122.9 121.9" style="enable-background:new 0 0 122.9 121.9;" xml:space="preserve">
<style type="text/css">
	.st0{fill-rule:evenodd;clip-rule:evenodd;fill:#DE4C3C;}
	.st1{fill-rule:evenodd;clip-rule:evenodd;fill:#C84436;}
	.st2{fill:#D8453E;}
</style>
<g>
	<g>
		<path class="st0" d="M113.6,44.3c-0.2-0.3-0.4-0.6-0.6-0.9C113.2,43.7,113.4,44,113.6,44.3z M115.7,47.3c-0.8-1-1.4-2-2-2.9
			c0,0-0.1-0.1-0.1-0.1C114.2,45.3,114.9,46.3,115.7,47.3c7.5,9.9,9.1,16.5,5.2,23.4c-0.2,0.3-0.3,0.6-0.5,0.9
			c0.2-0.3,0.4-0.6,0.5-0.9C124.7,63.8,123.2,57.2,115.7,47.3z M110.1,86.4c0.1-1.7,0.4-3.5,1.3-5.3c0.3-0.7,0.8-1.3,1.4-1.9
			c-0.6,0.6-1.1,1.3-1.4,1.9C110.6,82.9,110.3,84.6,110.1,86.4z M111.2,39.2c-0.7-2.2-1-4.3-1.1-6.4c-0.3-4.1-0.4-8.3-4-13.6
			c-6.1-9.1-18-4-24.5-7.7c-4.6-2.6-8.3-6.8-11.6-8.9C67.5,0.9,64.5,0,61.5,0c-3,0-6,0.9-8.4,2.7c-3.3,2.1-7,6.2-11.7,8.9
			c-6.5,3.7-18.4-1.4-24.5,7.7c-3.6,5.3-3.7,9.5-4,13.6c-0.3,4.4-1.1,8.5-5.6,14.5C-0.3,57.2-1.8,63.8,2,70.7
			c2.7,4.7,8.2,7.3,9.5,10.3c1.8,4.1,1.1,7.6,1.5,11.6l18.3-10c-4.1-5.9-6.4-13-6.4-20.7c0-10,4.1-19.1,10.7-25.7
			c6.6-6.6,15.7-10.7,25.7-10.7c15.1,0,28,9.2,33.5,22.2l16.2-8.9C111.1,39,111.1,39.1,111.2,39.2z M110.1,86.4
			c-0.1,1.7-0.1,3.4-0.2,5.2C110.1,89.8,110,88.1,110.1,86.4z M107.2,100.9c0.3-0.5,0.5-0.9,0.8-1.4c0-0.1,0.1-0.2,0.1-0.3
			c0,0.1-0.1,0.2-0.1,0.3C107.7,100,107.4,100.4,107.2,100.9z M76.2,115c-1,0.8-2,1.6-2.9,2.3C74.3,116.6,75.2,115.8,76.2,115z"/>
		<path class="st1" d="M120.8,70.7c-0.2,0.3-0.3,0.6-0.5,0.9c-0.7,1.1-1.6,2.1-2.6,3c-1.7,1.6-3.4,2.9-4.7,4.2
			c-0.1,0.1-0.2,0.2-0.3,0.3c-0.6,0.6-1.1,1.3-1.4,1.9c-0.8,1.9-1.1,3.6-1.2,5.3c-0.1,1.7-0.1,3.4-0.2,5.2c0,0.4,0,0.8-0.1,1.1
			c-0.1,0.6-0.1,1.1-0.2,1.7c-0.1,0.4-0.2,0.8-0.3,1.2c-0.1,0.4-0.2,0.8-0.4,1.3c-0.1,0.2-0.2,0.4-0.2,0.6c-0.1,0.3-0.3,0.7-0.4,1
			c-0.1,0.3-0.2,0.5-0.4,0.8c0,0.1-0.1,0.2-0.1,0.3c-0.2,0.5-0.5,1-0.8,1.4c-0.3,0.5-0.6,0.9-0.9,1.4c-0.3,0.4-0.6,0.8-1,1.2v0
			c-0.4,0.4-0.7,0.8-1.1,1.2c-0.5,0.5-1,1-1.6,1.4c-1,0.8-2.1,1.5-3.2,2.1c-0.2,0.1-0.5,0.3-0.7,0.4c0,0,0,0,0,0
			c-0.6,0.3-1.2,0.6-1.9,0.8c-0.3,0.1-0.6,0.2-1,0.3c-0.7,0.2-1.3,0.4-2,0.4c-0.9,0.1-1.8,0.1-2.8,0.1c-0.3,0-0.6,0-0.9,0
			c-0.6,0-1.1-0.1-1.7-0.1c-1.9-0.1-3.7-0.2-5.4,0.5c-2.6,1.1-4.9,2.8-7,4.5c-1,0.8-2,1.6-2.9,2.3c-0.5,0.4-1,0.7-1.4,1.1
			c-0.3,0.2-0.6,0.4-0.9,0.7c-1.3,0.8-2.5,1.5-3.8,1.9c-3.8,1.2-7.9,1.2-11.6,0c-3.3-1-6.4-4.1-10-6.8c-0.5-0.4-1-0.8-1.6-1.1
			c-0.5-0.4-1.1-0.7-1.6-1.1c-0.4-0.2-0.7-0.4-1.1-0.6c-0.6-0.3-1.2-0.6-1.8-0.8c-0.1-0.1-0.3-0.1-0.4-0.2c-1.5-0.5-3.2-0.5-5-0.4
			c-0.3,0-0.6,0-0.8,0.1c-0.2,0-0.4,0-0.6,0c-1,0.1-2.1,0.1-3.1,0c-0.2,0-0.4,0-0.7-0.1c-0.7-0.1-1.3-0.2-2-0.4
			c-5.2-1.6-9.5-5.3-11.8-10.2c-0.1-0.2-0.2-0.5-0.3-0.7c-0.1-0.2-0.2-0.5-0.3-0.7c-0.1-0.2-0.2-0.4-0.3-0.7
			c-0.1-0.2-0.2-0.4-0.2-0.6c-0.1-0.4-0.3-0.8-0.4-1.3c0-0.2-0.1-0.4-0.1-0.6c0,0,0-0.1,0-0.2c-0.1-0.4-0.1-0.7-0.2-1.1
			c0-0.2,0-0.4-0.1-0.5c0-0.2-0.1-0.5-0.1-0.7l18.3-10c1.5,2.1,3.2,4.1,5,5.8c6.5,6.1,15.3,9.9,24.9,9.9c9.7,0,18.5-3.8,25-10
			c7-6.6,11.4-16,11.4-26.4c0-5-1-9.8-2.9-14.2l16.2-8.9c0,0.1,0.1,0.2,0.1,0.3c0.1,0.2,0.2,0.5,0.3,0.7c0,0,0,0.1,0,0.1
			c0.1,0.4,0.3,0.7,0.4,1.1c0.2,0.4,0.3,0.7,0.5,1.1c0.1,0.2,0.2,0.4,0.3,0.6c0.1,0.2,0.2,0.4,0.3,0.5c0.7,1.4,1.6,2.7,2.6,4
			C123.2,57.2,124.7,63.8,120.8,70.7z"/>
	</g>
	<g>
		<path class="st2" d="M61.4,39.8c1.4,0,2.8,0.1,4.1,0.4c1.4,0.3,2.7,0.7,4,1.2c1.3,0.5,2.5,1.2,3.7,2c1.2,0.8,2.2,1.7,3.2,2.6
			c1,1,1.9,2,2.6,3.2c0.8,1.1,1.4,2.4,2,3.7c0.5,1.3,0.9,2.6,1.2,4c0.3,1.3,0.4,2.7,0.4,4.1c0,1.4-0.1,2.8-0.4,4.1
			c-0.3,1.4-0.7,2.7-1.2,4c-0.5,1.3-1.2,2.5-2,3.7c-0.8,1.2-1.7,2.2-2.6,3.2c-1,1-2,1.9-3.2,2.6c-1.1,0.8-2.4,1.4-3.7,2
			c-1.3,0.5-2.6,0.9-4,1.2c-1.3,0.3-2.7,0.4-4.1,0.4c-1.4,0-2.8-0.1-4.1-0.4c-1.4-0.3-2.7-0.7-4-1.2c-1.3-0.5-2.5-1.2-3.7-2
			c-1.2-0.8-2.2-1.7-3.2-2.6l-0.1-0.1c-0.9-1-1.8-2-2.6-3.1c-0.8-1.1-1.4-2.4-2-3.7c-0.5-1.3-0.9-2.6-1.2-4
			c-0.3-1.3-0.4-2.7-0.4-4.1c0-1.4,0.1-2.8,0.4-4.1c0.3-1.4,0.7-2.7,1.2-4c0.5-1.3,1.2-2.5,2-3.7c0.8-1.2,1.7-2.2,2.6-3.2
			c1-1,2-1.9,3.2-2.6c1.1-0.8,2.4-1.4,3.7-2c1.3-0.5,2.6-0.9,4-1.2C58.7,40,60,39.8,61.4,39.8L61.4,39.8z M59.1,47.2l11.2,24.4
			l0.4-0.3c0.2-0.1,0.4-0.3,0.6-0.5c0.7-0.7,1.2-1.4,1.7-2.1c0.5-0.7,0.9-1.6,1.3-2.4c0.3-0.8,0.6-1.7,0.8-2.6
			c0.2-0.9,0.3-1.8,0.3-2.7c0-0.9-0.1-1.8-0.3-2.7c-0.2-0.9-0.4-1.8-0.8-2.6c-0.3-0.8-0.8-1.6-1.3-2.4c-0.5-0.7-1.1-1.5-1.7-2.1
			l-0.1-0.1c-0.6-0.6-1.3-1.2-2.1-1.7c-0.8-0.5-1.6-0.9-2.4-1.3c-0.8-0.3-1.7-0.6-2.6-0.8c-0.9-0.2-1.8-0.3-2.7-0.3
			c-0.4,0-0.8,0-1.1,0c-0.4,0-0.8,0.1-1.1,0.1L59.1,47.2L59.1,47.2z M63.8,74.7L52.6,50.2l-0.4,0.3c-0.2,0.2-0.4,0.3-0.6,0.5
			c-0.7,0.7-1.2,1.4-1.7,2.1c-0.5,0.7-0.9,1.6-1.3,2.4c-0.3,0.8-0.6,1.7-0.8,2.6c-0.2,0.9-0.3,1.8-0.3,2.7c0,0.9,0.1,1.8,0.3,2.7
			c0.2,0.9,0.4,1.8,0.8,2.6c0.3,0.8,0.8,1.6,1.3,2.4c0.5,0.7,1.1,1.5,1.7,2.1c0.7,0.7,1.4,1.2,2.1,1.7c0.7,0.5,1.6,0.9,2.4,1.3
			c0.8,0.3,1.7,0.6,2.6,0.8c0.9,0.2,1.8,0.3,2.7,0.3c0.4,0,0.8,0,1.1,0C63,74.8,63.3,74.7,63.8,74.7L63.8,74.7L63.8,74.7z"/>
	</g>
</g>
</svg>
