<svg width="114" height="32" viewBox="0 0 114 32" fill="none" xmlns="http://www.w3.org/2000/svg">
<path d="M2 8.81564C2.33333 14.8156 3.5 26.6156 5.5 25.8156C8 24.8156 8.5 14.8156 11 18.8156C13.5 22.8156 12.5 30.8156 15.5 29.3156C18.5 27.8156 23.5 5 27.5 3C31.5 1 34.5 3.31564 38.5 8.81564C42.5 14.3156 41 18.8156 45.5 22.3156C50 25.8156 51.5 21 58 15.5C60.4354 13.4392 71 8.31564 75.5 18.8156C80 29.3156 79.5 18.5 83.5 14C87.5 9.49998 88 4.81564 92 6.81564C96 8.81564 96 20.3156 100 22.3156C104 24.3156 110 14.8156 112 11.8156" stroke="#F58634" stroke-width="4" stroke-linecap="round"/>
</svg>
