<svg id="Layer_1" data-name="Layer 1" xmlns="http://www.w3.org/2000/svg" viewBox="0 0 2499.6 2499.9"><defs><style>.cls-1{fill:#c2a633;}.cls-2{fill:#fff;}</style></defs><path class="cls-1" d="M2499.6,1250.05c0,690.2-559.6,1249.8-1250.1,1249.9C559.5,2500-.1,1940.25,0,1250-.2,559.65,559.4.05,1249.7.05s1249.9,559.7,1249.9,1250Z" transform="translate(0 -0.05)"/><path class="cls-2" d="M1173.5,574H785v601.87H625.41v147.42H785v601.83h452.7s636.52,53.35,636.52-664.27C1874.2,554.94,1265.41,574,1173.5,574Zm53.81,1101.37H1040V1323.3h281V1175.87H1040V823.76h178.6c66.8,0,402.87,26.89,403.41,442S1275.45,1675.39,1227.31,1675.39Z" transform="translate(0 -0.05)"/></svg>