<svg id="Layer_1" data-name="Layer 1" xmlns="http://www.w3.org/2000/svg" viewBox="0 0 2499.6 2499.8999"><defs><style>.cls-1{fill:#e1e3e6;}.cls-2{fill:#7986cb;}.cls-3{fill:#9fa8da;}.cls-4{fill:#5c6bc0;}</style></defs><path class="cls-1" d="M2499.6,1250c0,690.2-559.6,1249.8-1250.1,1249.9C559.5,2499.9-.1,1940.2,0,1249.9-.2,559.6,559.4,0,1249.7,0S2499.6,559.7,2499.6,1250Z" transform="translate(-0.0001)"/><path class="cls-2" d="M1249.6,219.5l-13.9,47.1V1634.4l13.9,13.8,634.9-375.3Z" transform="translate(-0.0001)"/><path class="cls-3" d="M1249.6,219.5,614.7,1272.9l634.9,375.3V219.5Z" transform="translate(-0.0001)"/><path class="cls-2" d="M1249.6,1768.4l-7.8,9.5v487.2l7.8,22.8,635.3-894.7Z" transform="translate(-0.0001)"/><path class="cls-3" d="M1249.6,2288V1768.4L614.7,1393.3Z" transform="translate(-0.0001)"/><path class="cls-4" d="M1249.6,1648.2l634.9-375.3L1249.6,984.3Z" transform="translate(-0.0001)"/><path class="cls-2" d="M614.7,1272.9l634.9,375.3V984.3Z" transform="translate(-0.0001)"/></svg>