<?xml version="1.0" encoding="utf-8"?>
<!-- Generator: Adobe Illustrator 25.2.3, SVG Export Plug-In . SVG Version: 6.00 Build 0)  -->
<svg version="1.1" id="Layer_1" xmlns="http://www.w3.org/2000/svg" xmlns:xlink="http://www.w3.org/1999/xlink" x="0px" y="0px"
	 viewBox="0 0 2499.6 2500" style="enable-background:new 0 0 2499.6 2500;" xml:space="preserve">
<style type="text/css">
	.st0{fill:#FF8124;}
	.st1{stroke:#000000;stroke-width:23;stroke-miterlimit:10;}
</style>
<g>
	<path class="st0" d="M2499.6,1250.1c0,690.2-559.6,1249.8-1250.1,1249.9c-690,0-1249.6-559.7-1249.5-1250
		C-0.2,559.7,559.4,0,1249.7,0S2499.6,559.8,2499.6,1250.1L2499.6,1250.1z"/>
	<path class="st1" d="M1909.7,1238.8c0,499.5-346,717.1-672.5,717.1c-365.5,0-647.4-267.9-647.4-694.8
		c0-452,295.8-717.1,669.7-717.1C1647.4,544,1909.7,825.9,1909.7,1238.8z M838.2,1252.8c0,295.8,170.2,519,410.2,519
		c234.4,0,410.2-220.4,410.2-524.6c0-228.8-114.4-519-404.6-519S838.2,996.1,838.2,1252.8z"/>
</g>
</svg>
