<?xml version="1.0" encoding="utf-8"?>
<!-- Generator: Adobe Illustrator 25.2.3, SVG Export Plug-In . SVG Version: 6.00 Build 0)  -->
<svg version="1.1" id="Layer_1" xmlns="http://www.w3.org/2000/svg" xmlns:xlink="http://www.w3.org/1999/xlink" x="0px" y="0px"
	 viewBox="0 0 600 600" style="enable-background:new 0 0 600 600;" xml:space="preserve">
<style type="text/css">
	.st0{fill:#F58634;}
	.st1{enable-background:new    ;}
</style>
<g>
	<path class="st0" d="M300,16.8c-110.2,0-199.6,89.3-199.6,199.6S189.8,415.9,300,415.9s199.6-89.4,199.6-199.6S410.2,16.8,300,16.8
		z M300,351.3c-74.5,0-134.9-60.5-134.9-135s60.5-134.9,135-134.9c74.5,0,134.9,60.4,134.9,135C435,290.9,374.6,351.3,300,351.3
		C300,351.3,300,351.3,300,351.3z"/>
	<g class="st1">
		<path class="st0" d="M143.9,551.5c-14.9,0-26.6-4.2-35.1-12.5c-8.5-8.3-12.8-19.7-12.8-34c0-14.8,4.4-26.3,13.3-34.7
			c8.8-8.3,20.8-12.5,35.8-12.5c14.8,0,26.4,4.2,34.9,12.5c8.4,8.3,12.6,19.4,12.6,33.1c0,14.8-4.3,26.5-13,35.1
			C170.9,547.2,159,551.5,143.9,551.5z M144.6,479c-6.5,0-11.6,2.2-15.2,6.7c-3.6,4.5-5.4,10.8-5.4,19c0,17.1,6.9,25.7,20.7,25.7
			c13.2,0,19.8-8.8,19.8-26.4C164.5,487.3,157.9,479,144.6,479z"/>
		<path class="st0" d="M238.4,538.9H238v51.4h-27.5V460.1H238v13.4h0.3c6.8-10.4,16.4-15.6,28.7-15.6c11.6,0,20.5,4,26.8,11.9
			c6.3,7.9,9.5,18.7,9.5,32.4c0,14.9-3.7,26.8-11,35.8c-7.4,9-17.1,13.5-29.3,13.5C252.2,551.5,244,547.3,238.4,538.9z M237.6,502.3
			v7.1c0,6.2,1.6,11.2,4.9,15.1c3.3,3.9,7.5,5.8,12.8,5.8c6.3,0,11.1-2.4,14.6-7.3c3.5-4.9,5.2-11.7,5.2-20.6
			c0-15.7-6.1-23.5-18.3-23.5c-5.6,0-10.2,2.1-13.8,6.4S237.6,495.3,237.6,502.3z"/>
		<path class="st0" d="M401.4,512.5h-58.2c0.9,13,9.1,19.4,24.5,19.4c9.8,0,18.5-2.3,25.9-7v19.9c-8.3,4.4-19,6.6-32.2,6.6
			c-14.4,0-25.6-4-33.6-12c-8-8-11.9-19.1-11.9-33.4c0-14.8,4.3-26.6,12.9-35.2c8.6-8.7,19.2-13,31.7-13c13,0,23.1,3.9,30.2,11.6
			c7.1,7.7,10.7,18.2,10.7,31.5V512.5z M375.8,495.6c0-12.8-5.2-19.2-15.5-19.2c-4.4,0-8.2,1.8-11.5,5.5c-3.2,3.7-5.2,8.2-5.9,13.7
			H375.8z"/>
		<path class="st0" d="M504,460.1l-29.5,43.2l29.3,46h-31.7l-12.9-24.1c-1-1.9-2.3-4.6-3.7-8.1h-0.3c-0.9,2.4-2.1,5.1-3.6,7.8
			l-13,24.3h-31.6l30.2-44.5l-28.3-44.8h31.9l12.7,25c1.7,3.3,2.9,6.1,3.6,8.4h0.3c0.9-2.7,2.2-5.6,3.7-8.5l13-24.8H504z"/>
	</g>
</g>
</svg>
