<?xml version="1.0" encoding="utf-8"?>
<!-- Generator: Adobe Illustrator 26.2.1, SVG Export Plug-In . SVG Version: 6.00 Build 0)  -->
<svg version="1.1" id="Layer_1" xmlns="http://www.w3.org/2000/svg" xmlns:xlink="http://www.w3.org/1999/xlink" x="0px" y="0px"
	 viewBox="0 0 122.9 121.9" style="enable-background:new 0 0 122.9 121.9;" xml:space="preserve">
<style type="text/css">
	.st0{fill-rule:evenodd;clip-rule:evenodd;fill:#F68020;}
	.st1{fill-rule:evenodd;clip-rule:evenodd;fill:#E86B0F;}
	.st2{fill:#F68020;}
</style>
<g>
	<g>
		<path class="st0" d="M113.6,44.3c-0.2-0.3-0.4-0.6-0.6-0.9C113.2,43.7,113.4,44,113.6,44.3z M115.7,47.3c-0.8-1-1.4-2-2-2.9
			c0,0-0.1-0.1-0.1-0.1C114.2,45.3,114.9,46.3,115.7,47.3c7.5,9.9,9.1,16.5,5.2,23.4c-0.2,0.3-0.3,0.6-0.5,0.9
			c0.2-0.3,0.4-0.6,0.5-0.9C124.7,63.9,123.2,57.2,115.7,47.3z M110.1,86.4c0.1-1.7,0.4-3.5,1.3-5.3c0.3-0.7,0.8-1.3,1.4-1.9
			c-0.6,0.6-1.1,1.3-1.4,1.9C110.6,82.9,110.3,84.6,110.1,86.4z M111.2,39.2c-0.7-2.2-1-4.3-1.1-6.4c-0.3-4.1-0.4-8.3-4-13.6
			c-6.1-9.1-18-4-24.5-7.7c-4.6-2.6-8.3-6.8-11.6-8.9C67.5,0.9,64.5,0,61.5,0c-3,0-6,0.9-8.4,2.7c-3.3,2.1-7,6.2-11.7,8.9
			c-6.5,3.7-18.4-1.4-24.5,7.7c-3.6,5.3-3.7,9.5-4,13.6c-0.3,4.4-1.1,8.5-5.6,14.5C-0.3,57.2-1.8,63.9,2,70.7
			c2.7,4.7,8.2,7.3,9.5,10.3c1.8,4.1,1.1,7.6,1.5,11.6l18.3-10c-4.1-5.9-6.4-13-6.4-20.7c0-10,4.1-19.1,10.7-25.7
			c6.6-6.6,15.7-10.7,25.7-10.7c15.1,0,28,9.2,33.5,22.2l16.2-8.9C111.1,39,111.1,39.1,111.2,39.2z M110.1,86.4
			c-0.1,1.7-0.1,3.4-0.2,5.2C110.1,89.8,110,88.1,110.1,86.4z M107.2,100.9c0.3-0.5,0.5-0.9,0.8-1.4c0-0.1,0.1-0.2,0.1-0.3
			c0,0.1-0.1,0.2-0.1,0.3C107.7,100,107.4,100.4,107.2,100.9z M76.3,115c-1,0.8-2,1.6-2.9,2.3C74.3,116.6,75.3,115.8,76.3,115z"/>
		<path class="st1" d="M120.9,70.7c-0.2,0.3-0.3,0.6-0.5,0.9c-0.7,1.1-1.6,2.1-2.6,3c-1.7,1.6-3.4,2.9-4.7,4.2
			c-0.1,0.1-0.2,0.2-0.3,0.3c-0.6,0.6-1.1,1.3-1.4,1.9c-0.8,1.9-1.1,3.6-1.2,5.3c-0.1,1.7-0.1,3.4-0.2,5.2c0,0.4-0.1,0.8-0.1,1.1
			c-0.1,0.6-0.1,1.1-0.2,1.7c-0.1,0.4-0.2,0.8-0.3,1.2c-0.1,0.4-0.2,0.8-0.4,1.3c-0.1,0.2-0.2,0.4-0.2,0.6c-0.1,0.3-0.3,0.7-0.4,1
			c-0.1,0.3-0.2,0.5-0.4,0.8c0,0.1-0.1,0.2-0.1,0.3c-0.2,0.5-0.5,1-0.8,1.4c-0.3,0.5-0.6,0.9-0.9,1.4c-0.3,0.4-0.6,0.8-1,1.2v0
			c-0.4,0.4-0.7,0.8-1.1,1.2c-0.5,0.5-1,1-1.6,1.4c-1,0.8-2.1,1.5-3.2,2.1c-0.2,0.1-0.5,0.3-0.7,0.4c0,0,0,0,0,0
			c-0.6,0.3-1.2,0.6-1.9,0.8c-0.3,0.1-0.6,0.2-1,0.3c-0.7,0.2-1.3,0.4-2,0.4c-0.9,0.1-1.8,0.1-2.8,0.1c-0.3,0-0.6,0-0.9,0
			c-0.6,0-1.1-0.1-1.7-0.1c-1.9-0.1-3.7-0.2-5.4,0.5c-2.6,1.1-4.9,2.8-7,4.5c-1,0.8-2,1.6-2.9,2.3c-0.5,0.4-1,0.7-1.4,1.1
			c-0.3,0.2-0.6,0.4-0.9,0.7c-1.3,0.8-2.5,1.5-3.8,1.9c-3.8,1.2-7.9,1.2-11.6,0c-3.3-1-6.4-4.1-10-6.8c-0.5-0.4-1-0.8-1.6-1.1
			c-0.5-0.4-1.1-0.7-1.6-1.1c-0.4-0.2-0.7-0.4-1.1-0.6c-0.6-0.3-1.2-0.6-1.8-0.8c-0.1-0.1-0.3-0.1-0.4-0.2c-1.5-0.5-3.2-0.5-5-0.4
			c-0.3,0-0.6,0-0.8,0.1c-0.2,0-0.4,0-0.6,0c-1,0.1-2.1,0.1-3.1,0c-0.2,0-0.4,0-0.7-0.1c-0.7-0.1-1.3-0.2-2-0.4
			c-5.2-1.6-9.5-5.3-11.8-10.2c-0.1-0.2-0.2-0.5-0.3-0.7c-0.1-0.2-0.2-0.5-0.3-0.7c-0.1-0.2-0.2-0.4-0.3-0.7
			c-0.1-0.2-0.2-0.4-0.2-0.6c-0.1-0.4-0.3-0.8-0.4-1.3c-0.1-0.2-0.1-0.4-0.1-0.6c0-0.1,0-0.1,0-0.2c-0.1-0.4-0.1-0.7-0.2-1.1
			c0-0.2-0.1-0.4-0.1-0.5c0-0.2-0.1-0.5-0.1-0.7l18.3-10c1.5,2.1,3.2,4.1,5,5.8c6.5,6.1,15.3,9.9,24.9,9.9c9.7,0,18.5-3.8,25-10
			c7-6.6,11.4-16,11.4-26.4c0-5-1-9.8-2.9-14.2l16.2-8.9c0,0.1,0.1,0.2,0.1,0.3c0.1,0.2,0.2,0.5,0.3,0.7c0,0,0,0.1,0.1,0.1
			c0.1,0.4,0.3,0.7,0.4,1.1c0.2,0.4,0.3,0.7,0.5,1.1c0.1,0.2,0.2,0.4,0.3,0.6c0.1,0.2,0.2,0.4,0.3,0.5c0.7,1.4,1.6,2.7,2.6,4
			C123.2,57.2,124.7,63.9,120.9,70.7z"/>
	</g>
	<path class="st2" d="M63,40.3c-3.3,0-6,2.7-6,6c0,3.3,2.7,6,6,6c3.3,0,6-2.7,6-6C69,43,66.3,40.3,63,40.3z M48.3,47.2
		c-2.9,0-5.2,2.3-5.2,5.2s2.3,5.2,5.2,5.2c2.9,0,5.2-2.3,5.2-5.2S51.2,47.2,48.3,47.2z M75.9,50.6c-1,0-1.7,0.8-1.7,1.7
		s0.8,1.7,1.7,1.7s1.7-0.8,1.7-1.7S76.8,50.6,75.9,50.6z M79.3,58.8c-1.2,0-2.2,1-2.2,2.2s1,2.2,2.2,2.2s2.2-1,2.2-2.2
		S80.5,58.8,79.3,58.8z M45.7,61c-2.4,0-4.3,1.9-4.3,4.3c0,2.4,1.9,4.3,4.3,4.3s4.3-1.9,4.3-4.3C50,62.9,48.1,61,45.7,61z
		 M75.9,67.8c-1.9,0-3.4,1.5-3.4,3.4c0,1.9,1.5,3.4,3.4,3.4c1.9,0,3.4-1.5,3.4-3.4C79.3,69.4,77.8,67.8,75.9,67.8z M53.5,73
		c-1.9,0-3.4,1.5-3.4,3.4c0,1.9,1.5,3.4,3.4,3.4s3.4-1.5,3.4-3.4C56.9,74.5,55.4,73,53.5,73z M65.5,74.7c-1.9,0-3.4,1.5-3.4,3.4
		c0,1.9,1.5,3.4,3.4,3.4c1.9,0,3.4-1.5,3.4-3.4C69,76.3,67.4,74.7,65.5,74.7z"/>
</g>
</svg>
