<?xml version="1.0" encoding="utf-8"?>
<!-- Generator: Adobe Illustrator 26.0.1, SVG Export Plug-In . SVG Version: 6.00 Build 0)  -->
<svg version="1.1" id="Layer_1" xmlns="http://www.w3.org/2000/svg" xmlns:xlink="http://www.w3.org/1999/xlink" x="0px" y="0px"
	 viewBox="0 0 122.9 121.9" style="enable-background:new 0 0 122.9 121.9;" xml:space="preserve">
<style type="text/css">
	.st0{fill-rule:evenodd;clip-rule:evenodd;fill:#DE4C3C;}
	.st1{fill-rule:evenodd;clip-rule:evenodd;fill:#C84436;}
	.st2{fill-rule:evenodd;clip-rule:evenodd;fill:#FFFFFF;}
</style>
<path class="st0" d="M115.6,47.3c-1.2-1.6-2.2-3.1-2.9-4.5c-0.1-0.2-0.2-0.4-0.3-0.6c-0.2-0.4-0.3-0.7-0.5-1.1
	c-0.2-0.4-0.3-0.7-0.4-1.1c0,0,0-0.1-0.1-0.1c-0.1-0.2-0.2-0.5-0.3-0.7c-0.7-2.2-1-4.2-1.1-6.4c-0.3-4.1-0.4-8.3-4-13.6
	c-6.1-9.1-18-4-24.5-7.7c-4.6-2.6-8.3-6.8-11.6-8.9c-2.5-1.8-5.4-2.7-8.5-2.7c-3,0-6,0.9-8.4,2.7c-3.3,2.1-7,6.2-11.7,8.9
	c-6.5,3.7-18.4-1.4-24.5,7.7c-3.6,5.3-3.7,9.5-4,13.6c-0.3,4.4-1.1,8.5-5.6,14.5C-0.3,57.2-1.8,63.8,2,70.7
	c2.7,4.7,8.2,7.3,9.5,10.3c1.8,4.1,1.1,7.6,1.5,11.6c0,0.2,0,0.5,0.1,0.7c0,0.2,0,0.4,0.1,0.5c0.1,0.4,0.1,0.8,0.2,1.2c0,0,0,0,0,0
	c0.1,0.2,0.1,0.4,0.2,0.6c0,0.2,0.1,0.4,0.2,0.6c0.1,0.4,0.3,0.8,0.4,1.3c0.1,0.2,0.2,0.4,0.3,0.7v0c0.1,0.2,0.2,0.4,0.3,0.7
	c0.1,0.2,0.2,0.5,0.3,0.7c0.5,1,1,1.9,1.6,2.8c0.4,0.5,0.7,1,1.1,1.5c0.9,1,1.8,2,2.9,2.8c0.5,0.4,1.1,0.8,1.6,1.1
	c1.4,0.9,3,1.6,4.6,2.1c4.5,1.5,9-0.6,12.6,0.9c0.6,0.2,1.2,0.5,1.8,0.8c0.4,0.2,0.8,0.4,1.1,0.6c0.6,0.3,1.1,0.7,1.6,1
	c0.5,0.4,1,0.8,1.5,1.1c3.6,2.7,6.7,5.7,10,6.8c3.8,1.2,7.8,1.2,11.6,0c5.1-1.6,9.7-7.8,16.1-10.4c3.6-1.5,8.1,0.6,12.6-0.9
	c1.3-0.4,2.6-0.9,3.8-1.6c0.4-0.2,0.8-0.5,1.2-0.7c0.3-0.2,0.5-0.3,0.8-0.5c0.3-0.2,0.5-0.4,0.8-0.6c0.1-0.1,0.2-0.1,0.2-0.2
	c0.3-0.2,0.6-0.5,0.9-0.8c0.8-0.8,1.6-1.6,2.3-2.6c0,0,0,0,0,0c0.3-0.4,0.5-0.7,0.8-1.1c0.2-0.4,0.5-0.8,0.7-1.2c0,0,0,0,0,0
	c0.2-0.3,0.3-0.6,0.5-0.9c0.4-0.7,0.6-1.4,0.9-2c0.1-0.2,0.2-0.4,0.2-0.7c0.1-0.4,0.3-0.8,0.4-1.2v0c0.1-0.4,0.2-0.8,0.3-1.2
	c0.1-0.6,0.2-1.2,0.2-1.8c0-0.4,0.1-0.8,0.1-1.1c0,0,0,0,0,0c0.1-1.8,0-3.4,0.2-5.1c0,0,0-0.1,0-0.1c0.1-1.7,0.5-3.4,1.2-5.3
	c0.1-0.3,0.3-0.6,0.6-1s0.5-0.6,0.8-1c0.1-0.1,0.2-0.2,0.3-0.3c1.3-1.3,3.1-2.6,4.7-4.2c0.2-0.1,0.3-0.3,0.4-0.4c1-1,2-2.1,2.7-3.4
	C124.7,63.8,123.1,57.2,115.6,47.3z M61.3,98.2c-12.4,0-23.4-6.2-30-15.7c-4-5.9-6.4-13-6.4-20.7c0-10,4.1-19.1,10.7-25.7
	c6.6-6.6,15.7-10.7,25.7-10.7c15.1,0,28,9.2,33.5,22.2c1.8,4.3,2.9,9.1,2.9,14.1C97.7,82,81.4,98.2,61.3,98.2z M78,54.5
	c1.7-1.6,1.8-2.6,0-4.4l-5.4-5.5c-1.6-1.7-2.5-0.6-3.8,0.8l-7.4,7.4L54,45.3c-1.6-1.7-2.6-1.8-4.4,0l-5.5,5.4
	c-1.7,1.6-0.6,2.5,0.8,3.8l7.4,7.4l-7.4,7.4c-1.4,1.4-2.5,2.2-0.8,3.8l1.6,1.5l3.9,3.8c1.7,1.8,2.8,1.7,4.4,0l7.4-7.4l7.4,7.4
	c1.3,1.4,2.2,2.5,3.8,0.8l5.4-5.5c1.8-1.8,1.7-2.8,0-4.4l-7.4-7.4l2-2L78,54.5z"/>
<path class="st1" d="M49.7,78.5l-3.9-3.8l26.9-14.7l-2,2l7.4,7.4c1.7,1.6,1.8,2.6,0,4.4l-5.4,5.5c-1.6,1.7-2.5,0.6-3.8-0.8L61.5,71
	L54,78.5C52.4,80.1,51.4,80.2,49.7,78.5z"/>
<path class="st1" d="M120.8,70.7c-0.8,1.5-1.9,2.7-3.1,3.9c-1.6,1.6-3.4,2.9-4.7,4.2c-0.1,0.1-0.2,0.2-0.3,0.3
	c-0.6,0.6-1.1,1.3-1.4,1.9c-1.6,3.8-1.2,7-1.4,10.5c0,0,0,0,0,0c0,0.4-0.1,0.7-0.1,1.1c-0.1,0.6-0.1,1.2-0.2,1.8
	c-0.1,0.4-0.2,0.8-0.3,1.2v0c-0.1,0.4-0.2,0.8-0.4,1.2c-0.1,0.2-0.2,0.4-0.2,0.7c-0.2,0.6-0.5,1.3-0.9,2c-0.2,0.3-0.3,0.6-0.5,0.9
	c0,0,0,0,0,0c-1.8,3.3-4.5,5.9-7.8,7.7c-1.2,0.6-2.4,1.2-3.8,1.6c-4.5,1.5-9-0.6-12.6,0.9c-6.3,2.7-11,8.9-16.1,10.4
	c-3.8,1.2-7.9,1.2-11.6,0c-3.3-1-6.4-4-10-6.8c-0.5-0.4-1-0.8-1.5-1.1c-0.5-0.4-1.1-0.7-1.6-1c-0.4-0.2-0.7-0.4-1.1-0.6
	c-0.6-0.3-1.2-0.6-1.8-0.8c-3.6-1.5-8.1,0.6-12.6-0.9c-1.6-0.5-3.2-1.2-4.6-2.1c-0.6-0.4-1.1-0.7-1.6-1.1c-1-0.8-2-1.7-2.9-2.8
	c-0.4-0.5-0.8-1-1.1-1.5c-0.6-0.9-1.1-1.8-1.6-2.8c-0.1-0.2-0.2-0.4-0.3-0.7c-0.1-0.2-0.2-0.5-0.3-0.7v0c-0.1-0.2-0.2-0.4-0.3-0.7
	c-0.2-0.4-0.3-0.8-0.4-1.3c-0.1-0.2-0.1-0.4-0.2-0.6c-0.1-0.2-0.1-0.4-0.2-0.6c0,0,0,0,0,0c-0.1-0.4-0.2-0.8-0.2-1.2
	c0-0.2,0-0.4-0.1-0.5c0-0.2-0.1-0.5-0.1-0.7l18.3-10c6.6,9.5,17.5,15.7,30,15.7c20.1,0,36.4-16.3,36.4-36.4c0-5-1-9.8-2.9-14.1
	l16.2-8.9c0,0.1,0.1,0.2,0.1,0.3c0.1,0.2,0.2,0.5,0.3,0.7c0,0,0,0.1,0.1,0.1c0.1,0.4,0.3,0.7,0.4,1.1c0.2,0.4,0.3,0.7,0.5,1.1
	c0.9,1.8,2,3.5,3.2,5.1C123.1,57.2,124.7,63.8,120.8,70.7z"/>
<path class="st2" d="M78,69.3c1.7,1.6,1.8,2.6,0,4.4l-5.4,5.5c-1.6,1.7-2.5,0.6-3.8-0.8L61.5,71L54,78.5c-1.6,1.7-2.6,1.8-4.4,0
	l-3.9-3.8l-1.6-1.5c-1.7-1.7-0.6-2.5,0.8-3.8l7.4-7.4l-7.4-7.4c-1.4-1.3-2.5-2.2-0.8-3.8l5.5-5.4c1.7-1.8,2.8-1.7,4.4,0l7.4,7.4
	l7.4-7.4c1.3-1.4,2.2-2.5,3.8-0.8l5.4,5.5c1.8,1.8,1.7,2.8,0,4.4l-5.4,5.5l-2,2L78,69.3z"/>
<path class="st0" d="M78,69.3c1.7,1.6,1.8,2.6,0,4.4l-5.4,5.5c-1.6,1.7-2.5,0.6-3.8-0.8L61.5,71L54,78.5c-1.6,1.7-2.6,1.8-4.4,0
	l-3.9-3.8l-1.6-1.5c-1.7-1.7-0.6-2.5,0.8-3.8l7.4-7.4l-7.4-7.4c-1.4-1.3-2.5-2.2-0.8-3.8l5.5-5.4c1.7-1.8,2.8-1.7,4.4,0l7.4,7.4
	l7.4-7.4c1.3-1.4,2.2-2.5,3.8-0.8l5.4,5.5c1.8,1.8,1.7,2.8,0,4.4l-5.4,5.5l-2,2L78,69.3z"/>
</svg>
