<?xml version="1.0" encoding="utf-8"?>
<!-- Generator: Adobe Illustrator 25.2.3, SVG Export Plug-In . SVG Version: 6.00 Build 0)  -->
<svg version="1.1" id="Layer_1" xmlns="http://www.w3.org/2000/svg" xmlns:xlink="http://www.w3.org/1999/xlink" x="0px" y="0px"
	 viewBox="0 0 128 128" style="enable-background:new 0 0 128 128;" xml:space="preserve">
<style type="text/css">
	.st0{fill:#18A979;}
</style>
<path class="st0" d="M64,117c-29.2,0-53-23.8-53-53s23.8-53,53-53s53,23.8,53,53S93.2,117,64,117z M64,17c-25.9,0-47,21.1-47,47
	s21.1,47,47,47s47-21.1,47-47S89.9,17,64,17z"/>
<g>
	<path class="st0" d="M79.6,43.9v40.1c0,3.5-2.7,6.2-6.2,6.2H54.3c-3.5,0-6.2-2.7-6.2-6.2V72.9c0-0.5,0.4-0.9,0.9-0.9h3.3
		c0.5,0,0.9,0.4,0.9,0.9v11.2c0,0.5,0.4,0.9,0.9,0.9h19.1c0.5,0,0.9-0.4,0.9-0.9V43.9c0-0.5-0.4-0.9-0.9-0.9h-19
		c-0.5,0-0.9,0.4-0.9,0.9v11.2c0,0.5-0.4,0.9-0.9,0.9h-3.3c-0.5,0-0.9-0.4-0.9-0.9V43.9c0-3.5,2.7-6.2,6.2-6.2h19.1
		C76.8,37.7,79.6,40.6,79.6,43.9z"/>
	<path class="st0" d="M57.7,73v-5.7c0-0.4-0.3-0.6-0.6-0.6H37.3c-0.4,0-0.6-0.3-0.6-0.6v-3.9c0-0.4,0.3-0.6,0.6-0.6H57
		c0.4,0,0.6-0.3,0.6-0.6v-5.7c0-0.5,0.7-0.9,1.1-0.5l9,8.8c0.2,0.2,0.2,0.7,0,0.9l-8.9,8.9C58.4,73.9,57.7,73.5,57.7,73z"/>
</g>
</svg>
