<?xml version="1.0" encoding="utf-8"?>
<!-- Generator: Adobe Illustrator 24.3.0, SVG Export Plug-In . SVG Version: 6.00 Build 0)  -->
<svg version="1.1" id="Layer_1" xmlns="http://www.w3.org/2000/svg" xmlns:xlink="http://www.w3.org/1999/xlink" x="0px" y="0px"
	 viewBox="0 0 128 128" style="enable-background:new 0 0 128 128;" xml:space="preserve">
<style type="text/css">
	.st0{fill:#ED3237;}
</style>
<path class="st0" d="M64,117c-29.2,0-53-23.8-53-53s23.8-53,53-53s53,23.8,53,53S93.2,117,64,117z M64,17c-25.9,0-47,21.1-47,47
	s21.1,47,47,47s47-21.1,47-47S89.9,17,64,17z"/>
<path class="st0" d="M64,97c-18.2,0-33-14.8-33-33c0-11.8,6.3-22.7,16.5-28.6c1.4-0.8,3.3-0.3,4.1,1.1c0.8,1.4,0.3,3.3-1.1,4.1
	C42.2,45.4,37,54.4,37,64c0,14.9,12.1,27,27,27s27-12.1,27-27c0-9.6-5.2-18.6-13.5-23.4c-1.4-0.8-1.9-2.7-1.1-4.1
	c0.8-1.4,2.7-1.9,4.1-1.1C90.7,41.3,97,52.2,97,64C97,82.2,82.2,97,64,97z"/>
<path class="st0" d="M64,52c-1.7,0-3-1.3-3-3V29c0-1.7,1.3-3,3-3c1.7,0,3,1.3,3,3v20C67,50.7,65.7,52,64,52z"/>
</svg>
