<?xml version="1.0" encoding="utf-8"?>
<!-- Generator: Adobe Illustrator 26.0.1, SVG Export Plug-In . SVG Version: 6.00 Build 0)  -->
<svg version="1.1" id="Layer_1" xmlns="http://www.w3.org/2000/svg" xmlns:xlink="http://www.w3.org/1999/xlink" x="0px" y="0px"
	 viewBox="0 0 2499.6 2500" style="enable-background:new 0 0 2499.6 2500;" xml:space="preserve">
<style type="text/css">
	.st0{fill:#A09F9D;}
	.st1{fill:#FFFFFF;}
</style>
<path class="st0" d="M2499.6,1250c0,690.2-559.6,1249.8-1250.1,1249.9c-690,0-1249.6-559.7-1249.5-1250C-0.2,559.6,559.4,0,1249.7,0
	S2499.6,559.7,2499.6,1250L2499.6,1250z"/>
<g>
	<path class="st1" d="M1741.5,943.8c-16.1-167.4-160.6-223.5-343.2-239.5V472H1257v226.1c-37.1,0-75.1,0.7-112.8,1.5V472h-141.3
		l-0.1,232.1c-30.6,0.6-60.7,1.2-90,1.2v-0.7l-194.9-0.1v151c0,0,104.4-2,102.6-0.1c57.3,0,75.9,33.2,81.3,61.9v264.6
		c4,0,9.1,0.2,14.9,1h-14.9l-0.1,370.7c-2.5,18-13.1,46.7-53.1,46.8c1.8,1.6-102.7,0-102.7,0l-28.1,168.8h184
		c34.2,0,67.9,0.6,100.9,0.8l0.1,234.9H1144v-232.4c38.7,0.8,76.2,1.1,112.9,1.1l-0.1,231.3h141.3v-234.4
		c237.6-13.6,404.1-73.5,424.7-296.7c16.7-179.7-67.8-260-202.7-292.4C1702.2,1139.8,1753.5,1066.3,1741.5,943.8L1741.5,943.8z
		 M1543.7,1446c0,175.5-300.5,155.6-396.4,155.6v-311.3C1243.2,1290.5,1543.7,1263,1543.7,1446z M1477.9,1006.9
		c0,159.7-250.8,141-330.6,141.1V865.8C1227.2,865.8,1478,840.4,1477.9,1006.9z"/>
	<path class="st1" d="M902,1175.7h21v15.5h-21V1175.7z"/>
</g>
</svg>
