<?xml version="1.0" encoding="utf-8"?>
<!-- Generator: Adobe Illustrator 26.2.1, SVG Export Plug-In . SVG Version: 6.00 Build 0)  -->
<svg version="1.1" id="Layer_1" xmlns="http://www.w3.org/2000/svg" xmlns:xlink="http://www.w3.org/1999/xlink" x="0px" y="0px"
	 viewBox="0 0 2499.6 2499.9" style="enable-background:new 0 0 2499.6 2499.9;" xml:space="preserve">
<style type="text/css">
	.st0{fill:#A09F9D;}
	.st1{fill:#D8D4D4;}
	.st2{fill:#FFFFFF;}
	.st3{fill:#C6C6C6;}
</style>
<path class="st0" d="M2499.6,1250c0,690.2-559.6,1249.8-1250.1,1249.9c-690,0-1249.6-559.7-1249.5-1250C-0.2,559.6,559.4,0,1249.7,0
	S2499.6,559.7,2499.6,1250z"/>
<path class="st1" d="M1249.6,219.5l-13.9,47.1v1367.8l13.9,13.8l634.9-375.3L1249.6,219.5z"/>
<path class="st2" d="M1249.6,219.5L614.7,1272.9l634.9,375.3L1249.6,219.5L1249.6,219.5z"/>
<path class="st1" d="M1249.6,1768.4l-7.8,9.5v487.2l7.8,22.8l635.3-894.7L1249.6,1768.4z"/>
<path class="st2" d="M1249.6,2288v-519.6l-634.9-375.1L1249.6,2288z"/>
<path class="st3" d="M1249.6,1648.2l634.9-375.3l-634.9-288.6V1648.2z"/>
<path class="st1" d="M614.7,1272.9l634.9,375.3V984.3L614.7,1272.9z"/>
</svg>
