<?xml version="1.0" encoding="utf-8"?>
<!-- Generator: Adobe Illustrator 26.0.1, SVG Export Plug-In . SVG Version: 6.00 Build 0)  -->
<svg version="1.1" id="Layer_1" xmlns="http://www.w3.org/2000/svg" xmlns:xlink="http://www.w3.org/1999/xlink" x="0px" y="0px"
	 viewBox="0 0 2500 2500" style="enable-background:new 0 0 2500 2500;" xml:space="preserve">
<style type="text/css">
	.st0{fill:#A09F9D;}
	.st1{fill:#FFFFFF;}
</style>
<path id="path0_fill" class="st0" d="M1250,0c690.3,0,1250,559.7,1250,1250s-559.7,1250-1250,1250S0,1940.6,0,1250S559.7,0,1250,0z"
	/>
<g id="Vector">
	<path id="path1_fill" class="st1" d="M1404,1020.7V834.5h425.3V551.2h-1158v283.3h425.4v186.1c-345.5,16-605.5,84.3-605.5,166.3
		s260,150.3,605.5,166.3v595.5h307.6v-595.5c345.1-16,604.5-84.4,604.5-166.3C2008.5,1105,1749.1,1036.6,1404,1020.7z
		 M1404.3,1302.9c-8.7,0.3-53.1,3.1-152.4,3.1c-79.5,0-135.1-2.1-154.9-3.1v0.3c-305.2-13.5-533.3-66.7-533.3-130.2
		s227.8-116.7,533.3-130.2v206.9c20.1,1.4,77.1,4.9,156.2,4.9c94.8,0,142.4-3.8,151.4-4.9v-207.6c304.9,13.5,532.3,66.7,532.3,130.2
		C1936.3,1235.9,1708.8,1289.1,1404.3,1302.9"/>
</g>
</svg>
