<?xml version="1.0" encoding="utf-8"?>
<!-- Generator: Adobe Illustrator 27.5.0, SVG Export Plug-In . SVG Version: 6.00 Build 0)  -->
<svg version="1.1" id="Layer_1" xmlns="http://www.w3.org/2000/svg" xmlns:xlink="http://www.w3.org/1999/xlink" x="0px" y="0px"
	 viewBox="0 0 2500 2500" style="enable-background:new 0 0 2500 2500;" xml:space="preserve">
<style type="text/css">
	.st0{fill-rule:evenodd;clip-rule:evenodd;fill:#50AF95;}
	.st1{fill-rule:evenodd;clip-rule:evenodd;fill:#FFFFFF;}
</style>
<g>
	<path class="st0" d="M457.7,173.3L1.9,1130.8c-3.6,7.3-1.9,16.1,4,21.7L1237,2332.2c7.3,7,18.7,7,26,0l1231.1-1179.7
		c5.9-5.6,7.5-14.3,4-21.7l-455.9-957.5c-3-6.6-9.6-10.8-16.8-10.8H474.7C467.4,162.5,460.8,166.7,457.7,173.3
		C457.7,173.3,457.7,173.3,457.7,173.3z"/>
	<path class="st1" d="M1408.2,1229.1L1408.2,1229.1c-8.8,0.7-54.5,3.4-156.4,3.4c-81,0-138.5-2.4-158.7-3.4l0,0
		c-313.1-13.8-546.8-68.3-546.8-133.5S780,975.9,1093.1,961.9v212.9c20.5,1.5,79.1,4.9,160.1,4.9c97.2,0,145.9-4.1,154.7-4.9V962
		c312.4,13.9,545.6,68.4,545.6,133.5c0,65.1-233.1,119.6-545.6,133.5l0,0L1408.2,1229.1z M1408.2,940V749.5h436V458.9H657v290.6h436
		V940c-354.4,16.3-620.8,86.5-620.8,170.6c0,84.1,266.5,154.2,620.8,170.6v610.6h315.1v-610.8c353.5-16.3,619.6-86.4,619.6-170.4
		C2027.7,1026.4,1761.9,956.3,1408.2,940L1408.2,940L1408.2,940z M1408.2,940L1408.2,940z"/>
</g>
</svg>
