<svg id="Layer_1" data-name="Layer 1" xmlns="http://www.w3.org/2000/svg" viewBox="0 0 2499.6 2499.9"><defs><style>.cls-1{fill:#b4f19f;}.cls-2{fill:#357b84;}</style></defs><path class="cls-1" d="M2499.6,1250.05c0,690.2-559.6,1249.8-1250.1,1249.9C559.5,2500-.1,1940.25,0,1250-.2,559.65,559.4.05,1249.7.05s1249.9,559.7,1249.9,1250Z" transform="translate(0 -0.05)"/><path class="cls-2" d="M641.4,867v766h-179V867Z" transform="translate(0 -0.05)"/><path class="cls-2" d="M976.39,1331v302h-181V867h336.86q93.18,0,149.61,21.7t93.46,79.77q37.07,58,37.07,129.06,0,138.66-133,199l141,336.5h-198l-117.88-302Zm0-326v195h110.06q53.91,0,78.33-7.56t43.51-33.61q19.08-26.07,19.1-59.69a92.36,92.36,0,0,0-19.1-57.16q-19.1-25.21-41.56-31.09t-84.22-5.89Z" transform="translate(0 -0.05)"/><path class="cls-2" d="M2037.2,867v152h-190v614h-182V1019h-191V867Z" transform="translate(0 -0.05)"/></svg>