<?xml version="1.0" encoding="utf-8"?>
<!-- Generator: Adobe Illustrator 27.5.0, SVG Export Plug-In . SVG Version: 6.00 Build 0)  -->
<svg version="1.1" id="Layer_1" xmlns="http://www.w3.org/2000/svg" xmlns:xlink="http://www.w3.org/1999/xlink" x="0px" y="0px"
	 viewBox="0 0 2499.6 2500" style="enable-background:new 0 0 2499.6 2500;" xml:space="preserve">
<style type="text/css">
	.st0{fill:#0088CC;}
	.st1{fill-rule:evenodd;clip-rule:evenodd;fill:#FFFFFF;}
</style>
<g>
	<circle class="st0" cx="1249.8" cy="1250" r="1249.8"/>
	<path class="st1" d="M901.6,826h700.8c26.8,0,49.1,4.5,75.9,17.9c31.2,13.4,49.1,35.7,58,53.6c0,0,0,4.5,4.5,4.5
		c13.4,22.3,22.3,49.1,22.3,80.3c0,26.8-4.5,53.6-22.3,80.3l0,0l-441.9,758.8c-8.9,17.9-26.8,26.8-49.1,26.8
		c-17.9,0-35.7-8.9-49.1-26.8l-433-758.8l0,0c-8.9-17.9-26.8-40.2-26.8-75.9c-4.5-31.2,4.5-58,17.9-84.8s35.7-49.1,67-58
		C852.5,826,883.8,826,901.6,826z M1196.2,933.1H901.6c-17.9,0-26.8,0-31.2,4.5c-8.9,4.5-13.4,8.9-17.9,17.9
		c-4.5,4.5-4.5,13.4-4.5,22.3c0,4.5,4.5,8.9,13.4,26.8l0,0l334.8,580.3V933.1z M1303.4,933.1v656.1l339.2-584.7
		c4.5-8.9,4.5-17.9,4.5-26.8s0-17.9-4.5-22.3s-4.5-8.9-8.9-8.9l-4.5-4.5c-8.9-4.5-17.9-4.5-31.2-4.5h-294.6V933.1z"/>
</g>
</svg>
