<?xml version="1.0" encoding="utf-8"?>
<!-- Generator: Adobe Illustrator 27.5.0, SVG Export Plug-In . SVG Version: 6.00 Build 0)  -->
<svg version="1.1" id="Layer_1" xmlns="http://www.w3.org/2000/svg" xmlns:xlink="http://www.w3.org/1999/xlink" x="0px" y="0px"
	 viewBox="0 0 2499.6 2500" style="enable-background:new 0 0 2499.6 2500;" xml:space="preserve">
<style type="text/css">
	.st0{fill:#FF060A;}
	.st1{fill:#FFFFFF;}
</style>
<g>
	<path class="st0" d="M1249.8,2447.6c690.5,0,1249.8-536.3,1249.8-1197.6S1940.3,52.4,1249.8,52.4S0,588.7,0,1250
		S559.8,2447.6,1249.8,2447.6z"/>
	<path class="st1" d="M1952.8,1035c-69-61.3-164.7-154.7-242.3-220.8l-4.8-2.9c-7.7-5.7-16.3-10.5-25.4-13.9l0,0
		C1492.6,764,619.2,607.4,602.4,609.3c-4.8,0.5-9.6,2.4-13.4,4.8l-4.3,3.4c-5.3,5.3-9.6,11.5-12,18.7l-1,2.9v15.8v2.4
		c98.2,262.4,486.5,1121.5,563.1,1323.5c4.8,13.9,13.4,39.7,29.7,41.2h3.8c8.6,0,46-47.4,46-47.4s667-774.8,734.6-857.1
		c8.6-10.1,16.3-21.1,23-32.6c1.9-9.1,1-18.2-2.4-26.8C1966.2,1049.4,1959.9,1041.2,1952.8,1035L1952.8,1035z M1384.8,1125.5
		l284.4-226l167.1,147.5L1384.8,1125.5z M1274.2,1110.7l-489.9-385l793,140.3L1274.2,1110.7z M1318.3,1211.2l501.4-77.6
		l-573.2,662.3L1318.3,1211.2z M717.8,764.4l515.7,419l-74.7,612.9L717.8,764.4z"/>
</g>
</svg>
