<svg xmlns="http://www.w3.org/2000/svg" xmlns:xlink="http://www.w3.org/1999/xlink" viewBox="0 0 128 128"><path fill="#fff" d="M100.9,103.5l-2.9-2.9v-26c0-15.1-9.9-28-23.5-32.4c-0.3-0.1-0.5-0.2-0.8-0.2c-3.6-0.8-5.3-5-3.1-7.9l8.9-11.9l0,0c-9.1-6.1-21-6.3-30.3-0.4l-0.7,0.4l9.3,11.6c2.4,2.9,0.8,7.4-2.9,8.1c-0.5,0.1-1,0.2-1.4,0.3C39.8,46.6,30,59.4,30,74.5v26l-2.9,2.9c-2.6,2.6-0.8,7.1,2.9,7.1h68C101.7,110.5,103.6,106.1,100.9,103.5z"/><path fill="#3f4a54" d="M98,113.5H30c-2.9,0-5.5-1.7-6.6-4.4c-1.1-2.7-0.5-5.7,1.5-7.8l2.1-2.1V74.5c0-16.1,10.3-30.2,25.6-35.2c1.6-0.5,3.3,0.3,3.8,1.9c0.5,1.6-0.3,3.3-1.9,3.8C41.6,49.2,33,61.1,33,74.5v26c0,0.8-0.3,1.6-0.9,2.1l-2.9,2.9c-0.5,0.5-0.4,1-0.2,1.2c0.1,0.3,0.4,0.7,1.1,0.7h68c0.7,0,0.9-0.4,1.1-0.7c0.1-0.3,0.2-0.8-0.2-1.2l-2.9-2.9c-0.6-0.6-0.9-1.3-0.9-2.1v-26c0-13.5-8.6-25.3-21.4-29.5l-0.8-0.2c-2.6-0.7-4.7-2.7-5.6-5.3s-0.4-5.4,1.2-7.5l6.7-8.9c-6.9-3.4-15-3.5-22-0.1l5.4,6.4c1.1,1.3,0.9,3.2-0.4,4.2c-1.3,1.1-3.2,0.9-4.2-0.4l-7.7-9.2c-0.6-0.7-0.8-1.5-0.7-2.4s0.6-1.6,1.4-2.1l0.7-0.4c10.3-6.4,23.5-6.2,33.5,0.5c0.7,0.5,1.2,1.2,1.3,2c0.1,0.8-0.1,1.6-0.5,2.3l-8.7,11.6c-0.6,0.8-0.4,1.7-0.3,2c0.1,0.3,0.5,1.1,1.5,1.4l0.9,0.3c0,0,0.1,0,0.1,0c15.3,5,25.6,19.1,25.6,35.2v24.7l2,2.1c2,2,2.7,5.1,1.5,7.8C103.5,111.8,100.9,113.5,98,113.5z"/><path fill="#3f4a54" d="M48.5 25.2c-1 0-2-.5-2.5-1.4-.9-1.4-.5-3.3 1-4.1l.7-.4c10.3-6.4 23.5-6.2 33.5.5 1.4.9 1.8 2.8.8 4.2-.9 1.4-2.8 1.8-4.2.8-8.1-5.4-18.7-5.6-27-.4l-.7.4C49.6 25 49 25.2 48.5 25.2zM89.5 38.3h-8c-1.7 0-3-1.3-3-3s1.3-3 3-3h8c1.7 0 3 1.3 3 3S91.2 38.3 89.5 38.3z"/><g><path fill="#9eb9d3" d="M64,75.5c-0.7,0-1.4-0.3-2-0.8l-11-10c-1.2-1.1-1.3-3-0.2-4.2c1.1-1.2,3-1.3,4.2-0.2l9,8.2l9-8.2c1.2-1.1,3.1-1,4.2,0.2c1.1,1.2,1,3.1-0.2,4.2l-11,10C65.4,75.3,64.7,75.5,64,75.5z"/><path fill="#9eb9d3" d="M64,101.5c-1.7,0-3-1.3-3-3v-24c0-1.7,1.3-3,3-3s3,1.3,3,3v24C67,100.2,65.7,101.5,64,101.5z"/><path fill="#9eb9d3" d="M75,80H53c-1.7,0-3-1.3-3-3s1.3-3,3-3h22c1.7,0,3,1.3,3,3S76.7,80,75,80z"/><g><path fill="#9eb9d3" d="M75,90H53c-1.7,0-3-1.3-3-3s1.3-3,3-3h22c1.7,0,3,1.3,3,3S76.7,90,75,90z"/></g></g></svg>